<?xml version="1.0" encoding="UTF-8"?>
<svg width="45px" height="44px" viewBox="0 0 45 44" version="1.1" xmlns="http://www.w3.org/2000/svg" xmlns:xlink="http://www.w3.org/1999/xlink">
    <!-- Generator: Sketch 52.5 (67469) - http://www.bohemiancoding.com/sketch -->
    <title>Fill 6</title>
    <desc>Created with Sketch.</desc>
    <g id="Blog" stroke="none" stroke-width="1" fill="none" fill-rule="evenodd">
        <g id="Article---Desktop" transform="translate(-1015.000000, -444.000000)" fill="#9B9B9B">
            <g id="Social-Icons" transform="translate(960.646877, 443.939999)">
                <g id="FB" transform="translate(54.512148, 0.000000)">
                    <path d="M27.5381745,15.8666549 L24.7444269,15.8666549 C23.3461903,15.8666549 23.0272942,16.80089 23.0272942,17.7789602 L23.0272942,19.6611289 L27.3310283,19.6611289 L26.7436599,23.4117679 L23.0272942,23.4117679 L23.0272942,34.7321771 L19.3272821,34.7321771 L19.3272821,23.4117679 L17.0391347,23.4117679 L17.0391347,19.6597591 L19.3272821,19.6597591 L19.3272821,17.388554 C19.3272821,14.3296874 20.237635,12.1228651 23.5710529,12.1228651 L27.5381745,12.1228651 L27.5381745,15.8666549 Z M0.645968956,22.0816472 C0.645968956,34.0965685 10.3355033,43.8348053 22.2886546,43.8348053 C34.2404431,43.8348053 43.9299774,34.0965685 43.9299774,22.0816472 C43.9299774,10.0680958 34.2404431,0.327119279 22.2886546,0.327119279 C10.3355033,0.327119279 0.645968956,10.0680958 0.645968956,22.0816472 Z" id="Fill-6"></path>
                </g>
            </g>
        </g>
    </g>
</svg>