<?xml version="1.0" encoding="UTF-8"?>
<svg width="44px" height="44px" viewBox="0 0 44 44" version="1.1" xmlns="http://www.w3.org/2000/svg" xmlns:xlink="http://www.w3.org/1999/xlink">
    <!-- Generator: Sketch 52.5 (67469) - http://www.bohemiancoding.com/sketch -->
    <title>Fill 1</title>
    <desc>Created with Sketch.</desc>
    <g id="Blog" stroke="none" stroke-width="1" fill="none" fill-rule="evenodd">
        <g id="Article---Desktop" transform="translate(-960.000000, -444.000000)" fill="#9B9B9B">
            <g id="Social-Icons" transform="translate(960.646877, 443.939999)">
                <g id="Email">
                    <path d="M33.4711404,28.6822513 C33.4711404,29.2027928 33.3253204,29.6863485 33.0909182,30.1110009 L25.6213911,21.7111038 L33.0105127,15.2125533 C33.2980643,15.6714518 33.4711404,16.2111712 33.4711404,16.791986 L33.4711404,28.6822513 Z M30.5138564,31.6548176 L12.7701521,31.6548176 C12.1964118,31.6548176 11.6649183,31.4835868 11.2111047,31.1972889 L18.7746652,22.689174 L21.1554833,24.7822991 C21.2944893,24.9055852 21.4675654,24.9658584 21.6420042,24.9658584 C21.8164431,24.9658584 21.9895192,24.9055852 22.1285252,24.7822991 L24.5079804,22.689174 L32.0729038,31.1972889 C31.620453,31.4835868 31.0875967,31.6548176 30.5138564,31.6548176 Z M9.81286808,28.6822513 L9.81286808,16.791986 C9.81286808,16.2111712 9.98730695,15.6714518 10.2748585,15.2125533 L17.6612546,21.709734 L10.1930903,30.1110009 C9.95868807,29.6863485 9.81286808,29.2027928 9.81286808,28.6822513 Z M12.7701521,13.8180498 L30.5138564,13.8180498 C31.0262706,13.8180498 31.501889,13.9618837 31.9229954,14.1933877 L21.6420042,23.2357427 L11.3623759,14.1933877 C11.7821194,13.9618837 12.2577379,13.8180498 12.7701521,13.8180498 Z M21.6420042,0.327804202 C9.68885294,0.327804202 -0.000681401907,10.0674109 -0.000681401907,22.0823321 C-0.000681401907,34.0958836 9.68885294,43.8354902 21.6420042,43.8354902 C33.5951555,43.8354902 43.2846899,34.0958836 43.2846899,22.0823321 C43.2846899,10.0674109 33.5951555,0.327804202 21.6420042,0.327804202 Z" id="Fill-1"></path>
                </g>
            </g>
        </g>
    </g>
</svg>