<svg width="26" height="26" viewBox="0 0 26 26" fill="none" xmlns="http://www.w3.org/2000/svg">
<path fill-rule="evenodd" clip-rule="evenodd" d="M25.18 22.2299C24.8306 23.0582 24.2766 23.7842 23.57 24.3399C23.0467 24.7608 22.4451 25.0735 21.8 25.2599C20.8196 25.5048 19.81 25.6125 18.8 25.5799H7.43999C6.42998 25.6131 5.42028 25.5054 4.43999 25.2599C3.79281 25.0711 3.18835 24.7587 2.65999 24.3399C1.93816 23.7872 1.36725 23.0616 0.999989 22.2299C0.619636 21.0799 0.453552 19.8699 0.50999 18.6599V7.33993C0.453552 6.12997 0.619636 4.91993 0.999989 3.76993C1.35596 2.94272 1.91279 2.21747 2.61999 1.65993C3.14835 1.24119 3.75281 0.928772 4.39999 0.739926C5.38028 0.494454 6.38998 0.386753 7.39999 0.419926H18.76C19.77 0.387401 20.7796 0.495093 21.76 0.739926C22.4051 0.926352 23.0067 1.23907 23.53 1.65993C24.2366 2.21564 24.7906 2.94165 25.14 3.76993C25.5231 4.91945 25.6925 6.12939 25.64 7.33993V18.6599C25.7054 19.868 25.5495 21.0779 25.18 22.2299Z" fill="url(#paint0_linear)"/>
<path d="M14.92 14.88C14.6752 14.6558 14.3882 14.4828 14.0756 14.3712C13.7631 14.2596 13.4314 14.2116 13.1 14.23C12.7686 14.2116 12.4369 14.2596 12.1243 14.3712C11.8118 14.4828 11.5247 14.6558 11.28 14.88C11.0816 15.0738 10.9607 15.3334 10.94 15.61C10.8769 16.2417 10.8769 16.8782 10.94 17.51C11.01 18.28 11.13 19.31 11.3 20.36C11.3655 20.8424 11.4624 21.3201 11.59 21.79C11.7071 22.0757 11.9136 22.3159 12.1786 22.4745C12.4436 22.6331 12.7528 22.7017 13.06 22.67C13.3672 22.7017 13.6764 22.6331 13.9414 22.4745C14.2063 22.3159 14.4128 22.0757 14.53 21.79C14.6576 21.3201 14.7545 20.8424 14.82 20.36C14.99 19.31 15.11 18.28 15.18 17.51C15.2431 16.8782 15.2431 16.2417 15.18 15.61C15.1772 15.3445 15.0857 15.0875 14.92 14.88ZM11 11.33C11 11.7374 11.1208 12.1357 11.3472 12.4745C11.5735 12.8132 11.8952 13.0773 12.2717 13.2332C12.6481 13.3891 13.0623 13.4299 13.4619 13.3504C13.8615 13.2709 14.2285 13.0747 14.5166 12.7866C14.8047 12.4985 15.0009 12.1315 15.0804 11.7319C15.1599 11.3323 15.1191 10.9181 14.9632 10.5417C14.8073 10.1652 14.5432 9.84351 14.2045 9.61715C13.8657 9.3908 13.4674 9.26998 13.06 9.26998C12.5136 9.26998 11.9897 9.48701 11.6033 9.87334C11.217 10.2597 11 10.7836 11 11.33ZM13 3.20998C10.9126 3.21529 8.89437 3.95821 7.30175 5.30749C5.70913 6.65676 4.64468 8.52554 4.29648 10.5836C3.94828 12.6417 4.33874 14.7567 5.39887 16.5547C6.459 18.3528 8.12056 19.7183 10.09 20.41C10.1095 20.4171 10.1305 20.4191 10.151 20.4157C10.1715 20.4122 10.1908 20.4035 10.2069 20.3904C10.223 20.3773 10.2355 20.3603 10.243 20.3409C10.2506 20.3215 10.253 20.3005 10.25 20.28C10.25 19.97 10.16 19.67 10.12 19.37C10.1158 19.317 10.0967 19.2663 10.0648 19.2238C10.033 19.1813 9.98966 19.1488 9.93998 19.13C8.31297 18.4221 6.97946 17.1753 6.16387 15.5995C5.34828 14.0238 5.1004 12.2151 5.46193 10.478C5.82347 8.74088 6.77235 7.18131 8.1489 6.06176C9.52545 4.9422 11.2456 4.331 13.02 4.331C14.7943 4.331 16.5145 4.9422 17.8911 6.06176C19.2676 7.18131 20.2165 8.74088 20.578 10.478C20.9396 12.2151 20.6917 14.0238 19.8761 15.5995C19.0605 17.1753 17.727 18.4221 16.1 19.13C16.0526 19.1522 16.0115 19.1857 15.9801 19.2276C15.9487 19.2694 15.9281 19.3183 15.92 19.37C15.92 19.67 15.84 19.97 15.79 20.28C15.787 20.3005 15.7894 20.3215 15.7969 20.3409C15.8045 20.3603 15.8169 20.3773 15.8331 20.3904C15.8492 20.4035 15.8684 20.4122 15.8889 20.4157C15.9094 20.4191 15.9305 20.4171 15.95 20.41C17.9269 19.7159 19.5934 18.3429 20.653 16.5354C21.7126 14.7279 22.0965 12.6031 21.7365 10.5391C21.3765 8.47504 20.2959 6.60567 18.687 5.26361C17.078 3.92155 15.0451 3.19384 12.95 3.20998H13ZM12.84 7.26998C13.8161 7.23056 14.781 7.49055 15.6052 8.0151C16.4293 8.53965 17.0734 9.30366 17.451 10.2047C17.8286 11.1057 17.9217 12.1006 17.7177 13.0561C17.5138 14.0115 17.0226 14.8817 16.31 15.55C16.2694 15.5861 16.2375 15.631 16.2167 15.6812C16.1959 15.7314 16.1868 15.7857 16.19 15.84C16.2094 16.173 16.2094 16.5069 16.19 16.84C16.1889 16.8616 16.1936 16.883 16.2037 16.9021C16.2138 16.9212 16.2288 16.9373 16.2472 16.9485C16.2657 16.9598 16.2868 16.9659 16.3084 16.9661C16.33 16.9664 16.3513 16.9608 16.37 16.95C17.4185 16.2369 18.2108 15.2064 18.6306 14.0099C19.0504 12.8134 19.0756 11.5138 18.7025 10.3019C18.3294 9.09002 17.5777 8.02963 16.5577 7.27637C15.5376 6.52311 14.303 6.11665 13.035 6.11665C11.767 6.11665 10.5323 6.52311 9.51229 7.27637C8.49225 8.02963 7.74053 9.09002 7.36745 10.3019C6.99438 11.5138 7.01959 12.8134 7.4394 14.0099C7.8592 15.2064 8.65149 16.2369 9.69998 16.95C9.71867 16.9608 9.73994 16.9664 9.76154 16.9661C9.78314 16.9659 9.80428 16.9598 9.82271 16.9485C9.84115 16.9373 9.8562 16.9212 9.86628 16.9021C9.87636 16.883 9.88109 16.8616 9.87998 16.84C9.86051 16.5069 9.86051 16.173 9.87998 15.84C9.88245 15.7867 9.87397 15.7335 9.85505 15.6836C9.83613 15.6337 9.80717 15.5882 9.76998 15.55C9.27219 15.0906 8.87888 14.5297 8.61664 13.9051C8.3544 13.2806 8.22936 12.607 8.24998 11.93C8.28533 10.7035 8.789 9.53718 9.65751 8.67052C10.526 7.80387 11.6935 7.3027 12.92 7.26998H12.84Z" fill="white"/>
<defs>
<linearGradient id="paint0_linear" x1="13.1" y1="0.419926" x2="13.1" y2="25.5799" gradientUnits="userSpaceOnUse">
<stop stop-color="#F452FF"/>
<stop offset="1" stop-color="#832BC1"/>
</linearGradient>
</defs>
</svg>
