<svg width="16" height="16" viewBox="0 0 16 16" fill="none" xmlns="http://www.w3.org/2000/svg">
<path d="M0.471069 16C0.517388 15.9998 0.566457 15.9917 0.603712 15.9804L9.87998 13.3304C10.0114 13.2928 10.1199 13.1998 10.177 13.0757L12.4056 8.23673L15.8628 4.77754C16.0458 4.59448 16.0457 4.29776 15.8627 4.11476L11.8847 0.137249C11.7017 -0.0457524 11.4046 -0.0457839 11.2216 0.137343L7.76453 3.59641L2.92513 5.82468C2.80099 5.88184 2.70801 5.99031 2.67047 6.12168L0.0201683 15.3967C-0.0713746 15.7009 0.160874 16.0015 0.471069 16V16ZM11.5533 1.1317L14.8683 4.44632L12.0147 7.3016L8.69971 3.98701L11.5533 1.1317ZM3.51286 6.58619L7.9363 4.54948L11.4524 8.06514L9.41542 12.4881L2.08006 14.5836L5.83022 10.8339C6.35291 11.0829 6.99859 10.9915 7.4307 10.5594C7.97902 10.0112 7.97902 9.11899 7.4307 8.57067C6.88238 8.02239 5.99008 8.02236 5.4417 8.57067C5.00952 9.00277 4.91823 9.64834 5.16723 10.171L1.41703 13.9207L3.51286 6.58619ZM6.10469 9.23359C6.2875 9.05084 6.58491 9.0508 6.76771 9.23359C6.95049 9.41637 6.95049 9.71375 6.76771 9.8965C6.58494 10.0793 6.2875 10.0793 6.10469 9.8965C5.92192 9.71375 5.92192 9.41637 6.10469 9.23359Z" fill="#404040"/>
</svg>
