<?xml version="1.0" encoding="UTF-8"?>
<svg width="260px" height="40px" viewBox="0 0 260 40" version="1.1" xmlns="http://www.w3.org/2000/svg" xmlns:xlink="http://www.w3.org/1999/xlink">
    <!-- Generator: Sketch 52.3 (67297) - http://www.bohemiancoding.com/sketch -->
    <title>Logo</title>
    <desc>Created with Sketch.</desc>
    <defs>
        <polygon id="path-1" points="0 39.1916667 259.848127 39.1916667 259.848127 0 0 0"></polygon>
    </defs>
    <g id="Symbols" stroke="none" stroke-width="1" fill="none" fill-rule="evenodd">
        <g id="Desktop---Full-Nav-Bar" transform="translate(-592.000000, -23.000000)">
            <g id="Logo" transform="translate(592.000000, 22.000000)">
                <path d="M7.62848254,13.5741667 L7.62848254,18.9558333 C7.62848254,20.2391667 8.65610159,21.2758333 9.9263873,21.2758333 C11.1974984,21.2758333 12.2251175,20.2391667 12.2251175,18.9558333 L12.2251175,13.5741667 L17.553054,13.5741667 C18.8241651,13.5741667 19.8517841,12.5366667 19.8517841,11.2533333 C19.8517841,9.97 18.8241651,8.93333333 17.553054,8.93333333 L12.2251175,8.93333333 L12.2251175,3.55416667 C12.2251175,2.27083333 11.1974984,1.23333333 9.9263873,1.23333333 C8.65610159,1.23333333 7.62848254,2.27083333 7.62848254,3.55416667 L7.62848254,8.93333333 L2.29806984,8.93333333 C1.02695873,8.93333333 0.000165079365,9.97 0.000165079365,11.2533333 C0.000165079365,12.5366667 1.02695873,13.5741667 2.29806984,13.5741667 L7.62848254,13.5741667 Z" id="Fill-1" fill="#FFFFFF"></path>
                <path d="M23.2604254,39.0799167 C16.9626476,39.0799167 11.0899492,36.5549167 6.7244254,31.9690833 C6.05915556,31.27075 6.08144127,30.16075 6.77229841,29.4899167 C7.46480635,28.81825 8.56423492,28.84075 9.22867937,29.5390833 C12.9330603,33.4299167 17.915981,35.57325 23.2604254,35.57325 C28.4579492,35.57325 33.3459492,33.5290833 37.0214413,29.81825 C37.6990921,29.1324167 38.799346,29.13325 39.4778222,29.81825 C40.155473,30.50325 40.155473,31.61325 39.4769968,32.2974167 C35.1453143,36.67075 29.3856952,39.0799167 23.2604254,39.0799167" id="Fill-3" fill="#FFFFFF"></path>
                <path d="M34.9697524,18.0025 C31.2843556,18.0025 28.2865143,14.9758333 28.2865143,11.255 C28.2865143,7.53416667 31.2843556,4.50666667 34.9697524,4.50666667 C38.6551492,4.50666667 41.6538159,7.53416667 41.6538159,11.255 C41.6538159,14.9758333 38.6551492,18.0025 34.9697524,18.0025 M34.9697524,1 C29.3694349,1 24.8132444,5.60083333 24.8132444,11.255 C24.8132444,14.0241667 25.9077206,16.5383333 27.680673,18.385 L24.4863873,22.7041667 C23.8516571,23.5616667 24.0258159,24.7775 24.8759746,25.4175 C25.2209905,25.6775 25.6237841,25.8033333 26.0232762,25.8033333 C26.6093079,25.8033333 27.1870857,25.535 27.5642921,25.0241667 L30.8254349,20.6133333 C32.092419,21.1875 33.4939429,21.5091667 34.9697524,21.5091667 C40.5708952,21.5091667 45.1270857,16.9091667 45.1270857,11.255 C45.1270857,5.60083333 40.5708952,1 34.9697524,1" id="Fill-5" fill="#FFFFFF"></path>
                <path d="M237.476902,8.92775 C237.476902,10.1085833 236.528521,11.0669167 235.358108,11.0669167 C234.187695,11.0669167 233.238489,10.1085833 233.238489,8.92775 C233.238489,7.74608333 234.187695,6.78858333 235.358108,6.78858333 C236.528521,6.78858333 237.476902,7.74608333 237.476902,8.92775" id="Fill-7" fill="#FFFFFF"></path>
                <path d="M72.896654,20.0080833 C72.896654,15.0555833 69.5769079,10.9214167 63.9336698,10.9214167 L59.6919556,10.9214167 L59.6919556,29.2430833 L63.9336698,29.2430833 C69.5769079,29.2430833 72.896654,25.10975 72.896654,20.0080833 M77.0277651,20.0080833 C77.0277651,27.3439167 71.4216698,33.1155833 63.9708127,33.1155833 L55.6351302,33.1155833 L55.6351302,7.04891667 L63.9708127,7.04891667 C71.4216698,7.04891667 77.0277651,12.8205833 77.0277651,20.0080833" id="Fill-9" fill="#FFFFFF"></path>
                <path d="M82.7432254,23.47125 C82.7432254,27.75375 85.9886857,29.9129167 88.8288762,29.9129167 C91.6690667,29.9129167 94.9153524,27.75375 94.9153524,23.47125 C94.9153524,19.11375 91.6690667,16.9545833 88.8288762,16.9545833 C85.9886857,16.9545833 82.7432254,19.11375 82.7432254,23.47125 M98.7872889,23.47125 C98.7872889,30.21125 93.2183365,33.48875 88.8288762,33.48875 C84.4394159,33.48875 78.8704635,30.21125 78.8704635,23.47125 C78.8704635,16.73125 84.4394159,13.3795833 88.8288762,13.3795833 C93.2183365,13.3795833 98.7872889,16.73125 98.7872889,23.47125" id="Fill-11" fill="#FFFFFF"></path>
                <path d="M118.371479,18.0716667 L115.27294,19.4866667 C114.129765,17.9225 112.580495,16.9541667 110.220686,16.9541667 C107.37967,16.9541667 104.13421,19.1141667 104.13421,23.4708333 C104.13421,27.7533333 107.37967,29.9133333 110.220686,29.9133333 C112.580495,29.9133333 114.129765,28.9825 115.27294,27.4183333 L118.408622,28.8341667 C116.638146,31.9616667 113.687352,33.4883333 110.183543,33.4883333 C105.831225,33.4883333 100.261448,30.2116667 100.261448,23.4708333 C100.261448,16.7308333 105.831225,13.3791667 110.183543,13.3791667 C113.65021,13.3791667 116.638146,14.9433333 118.371479,18.0716667" id="Fill-13" fill="#FFFFFF"></path>
                <path d="M126.336889,17.10325 L126.336889,27.9399167 C126.336889,28.9824167 126.705841,29.7640833 128.143683,29.7640833 C128.881587,29.7640833 129.582349,29.61575 130.393714,29.3174167 L130.393714,32.6315833 C129.582349,33.0415833 128.476317,33.3390833 127.074794,33.3390833 C124.382349,33.3390833 122.353524,32.3715833 122.353524,28.8340833 L122.353524,17.10325 L119.697397,17.10325 L119.697397,13.7524167 L122.353524,13.7524167 L122.353524,8.79908333 L126.336889,8.79908333 L126.336889,13.7524167 L130.393714,13.7524167 L130.393714,17.10325 L126.336889,17.10325 Z" id="Fill-15" fill="#FFFFFF"></path>
                <path d="M135.188527,23.47125 C135.188527,27.75375 138.433987,29.9129167 141.274178,29.9129167 C144.114368,29.9129167 147.360654,27.75375 147.360654,23.47125 C147.360654,19.11375 144.114368,16.9545833 141.274178,16.9545833 C138.433987,16.9545833 135.188527,19.11375 135.188527,23.47125 M151.23259,23.47125 C151.23259,30.21125 145.663638,33.48875 141.274178,33.48875 C136.884717,33.48875 131.315765,30.21125 131.315765,23.47125 C131.315765,16.73125 136.884717,13.3795833 141.274178,13.3795833 C145.663638,13.3795833 151.23259,16.73125 151.23259,23.47125" id="Fill-17" fill="#FFFFFF"></path>
                <path d="M165.653263,13.5285833 L165.653263,17.3644167 C165.284311,17.2894167 164.915359,17.2894167 164.620692,17.2894167 C161.005454,17.2894167 158.05466,19.8960833 157.612248,23.99275 L157.612248,33.1160833 L153.628883,33.1160833 L153.628883,13.7519167 L157.612248,13.7519167 L157.612248,18.7044167 C158.423613,15.83775 160.894851,13.4535833 164.510089,13.4535833 C164.915359,13.4535833 165.284311,13.4535833 165.653263,13.5285833" id="Fill-19" fill="#FFFFFF"></path>
                <path d="M184.278508,23.43375 C184.278508,19.11375 181.106508,16.9545833 178.119397,16.9545833 C175.13146,16.9545833 171.922317,19.11375 171.922317,23.43375 C171.922317,27.75375 175.13146,29.9129167 178.119397,29.9129167 C181.106508,29.9129167 184.278508,27.75375 184.278508,23.43375 M188.15127,23.43375 C188.15127,30.21125 182.950444,33.4879167 178.63527,33.4879167 C175.315524,33.4879167 173.029175,31.5520833 172.254127,29.9504167 L172.032921,29.9504167 L172.032921,40.19125 L168.049556,40.19125 L168.049556,13.7520833 L172.032921,13.7520833 L172.032921,16.9170833 L172.254127,16.9170833 C173.029175,15.31625 175.315524,13.3795833 178.63527,13.3795833 C182.950444,13.3795833 188.15127,16.65625 188.15127,23.43375" id="Fill-21" fill="#FFFFFF"></path>
                <path d="M193.571651,21.9445 L205.116476,21.9445 C204.747524,18.5186667 201.833873,16.8428333 199.362635,16.8428333 C196.927714,16.8428333 194.198952,18.5186667 193.571651,21.9445 M208.694571,24.9236667 L193.535333,24.9236667 C194.124667,28.3495 196.780794,30.062 199.84219,30.062 C202.386889,30.062 203.752095,29.392 205.152794,28.2753333 L207.403651,30.4345 C205.706635,32.3711667 203.27254,33.4886667 199.731587,33.4886667 C194.899714,33.4886667 189.625429,30.1736667 189.625429,23.4711667 C189.625429,16.7311667 195.04746,13.3795 199.362635,13.3795 C203.714952,13.3795 209.61654,16.7311667 208.694571,24.9236667" id="Fill-23" fill="#FFFFFF"></path>
                <path d="M226.175651,23.43375 C226.175651,19.11375 222.966508,16.9545833 219.978571,16.9545833 C216.99146,16.9545833 213.81946,19.11375 213.81946,23.43375 C213.81946,27.75375 216.99146,29.9129167 219.978571,29.9129167 C222.966508,29.9129167 226.175651,27.75375 226.175651,23.43375 Z M230.048413,6.78791667 L230.048413,33.11625 L226.065048,33.11625 L226.065048,29.9504167 L225.843841,29.9504167 C225.068794,31.5520833 222.782444,33.4879167 219.462698,33.4879167 C215.147524,33.4879167 209.946698,30.21125 209.946698,23.43375 C209.946698,16.65625 215.147524,13.3795833 219.462698,13.3795833 C222.782444,13.3795833 225.068794,15.31625 225.843841,16.9170833 L226.065048,16.9170833 L226.065048,6.78791667 L230.048413,6.78791667 Z" id="Fill-25" fill="#FFFFFF"></path>
                <mask id="mask-2" fill="white">
                    <use xlink:href="#path-1"></use>
                </mask>
                <g id="Clip-28"></g>
                <polygon id="Fill-27" fill="#FFFFFF" mask="url(#mask-2)" points="233.366095 33.1163333 237.34946 33.1163333 237.34946 13.7521667 233.366095 13.7521667"></polygon>
                <path d="M255.9752,23.43375 C255.9752,19.11375 252.766057,16.9545833 249.778946,16.9545833 C246.79101,16.9545833 243.61901,19.11375 243.61901,23.43375 C243.61901,27.75375 246.79101,29.9129167 249.778946,29.9129167 C252.766057,29.9129167 255.9752,27.75375 255.9752,23.43375 M239.746248,23.43375 C239.746248,16.65625 244.947073,13.3795833 249.262248,13.3795833 C252.581994,13.3795833 254.869168,15.31625 255.64339,16.9170833 L255.864597,16.9170833 L255.864597,13.7520833 L259.847962,13.7520833 L259.847962,33.11625 L255.864597,33.11625 L255.864597,29.9504167 L255.64339,29.9504167 C254.869168,31.5520833 252.581994,33.4879167 249.262248,33.4879167 C244.947073,33.4879167 239.746248,30.21125 239.746248,23.43375" id="Fill-29" fill="#FFFFFF" mask="url(#mask-2)"></path>
            </g>
        </g>
    </g>
</svg>