<?xml version="1.0" encoding="UTF-8"?>
<svg width="175px" height="175px" viewBox="0 0 175 175" version="1.1" xmlns="http://www.w3.org/2000/svg" xmlns:xlink="http://www.w3.org/1999/xlink">
    <!-- Generator: Sketch 52.5 (67469) - http://www.bohemiancoding.com/sketch -->
    <title>DP Icon</title>
    <desc>Created with Sketch.</desc>
    <defs>
        <circle id="path-1" cx="87.5" cy="87.5" r="87.5"></circle>
    </defs>
    <g id="All-Desktop-" stroke="none" stroke-width="1" fill="none" fill-rule="evenodd">
        <g id="Desktop-Condition-specific-Home" transform="translate(-323.000000, -1055.000000)">
            <g id="Utilities-and-Doctors" transform="translate(165.000000, 1045.000000)">
                <g id="DP-Icon" transform="translate(158.000000, 10.000000)">
                    <mask id="mask-2" fill="white">
                        <use xlink:href="#path-1"></use>
                    </mask>
                    <use id="Mask-Copy-2" fill="#4A90E2" xlink:href="#path-1"></use>
                    <path d="M51.5753716,79.6370371 L51.5753716,90.1880874 C51.5753716,92.7040874 53.6094216,94.7381375 56.1254217,94.7381375 C58.6414218,94.7381375 60.6746218,92.7040874 60.6746218,90.1880874 L60.6746218,79.6370371 L71.2205721,79.6370371 C73.7374222,79.6370371 75.7714723,77.602987 75.7714723,75.086987 C75.7714723,72.5709869 73.7374222,70.5377868 71.2205721,70.5377868 L60.6746218,70.5377868 L60.6746218,59.9909865 C60.6746218,57.4749865 58.6414218,55.4409364 56.1254217,55.4409364 C53.6094216,55.4409364 51.5753716,57.4749865 51.5753716,59.9909865 L51.5753716,70.5377868 L41.0243213,70.5377868 C38.5083212,70.5377868 36.4742712,72.5709869 36.4742712,75.086987 C36.4742712,77.602987 38.5083212,79.6370371 41.0243213,79.6370371 L51.5753716,79.6370371 Z" id="Fill-7" fill="#FFFFFF" mask="url(#mask-2)"></path>
                    <path d="M112.410128,61.8592016 C105.115428,61.8592016 99.1807279,67.7939017 99.1807279,75.089452 C99.1807279,82.3841522 105.115428,88.3197023 112.410128,88.3197023 C119.704828,88.3197023 125.640379,82.3841522 125.640379,75.089452 C125.640379,67.7939017 119.704828,61.8592016 112.410128,61.8592016 M112.410128,95.1962025 C101.323578,95.1962025 92.3050777,86.1760023 92.3050777,75.089452 C92.3050777,64.0029016 101.323578,54.9827014 112.410128,54.9827014 C123.497529,54.9827014 132.516029,64.0029016 132.516029,75.089452 C132.516029,86.1760023 123.497529,95.1962025 112.410128,95.1962025" id="Fill-9" fill="#FFFFFF" mask="url(#mask-2)"></path>
                    <path d="M88.4856026,134.119999 C76.0186523,134.119999 64.3932019,129.168748 55.7512517,120.178298 C54.4354517,118.808948 54.4779517,116.633798 55.8473017,115.317148 C57.2166517,114.000498 59.3926518,114.044698 60.7084518,115.413198 C68.042252,123.042798 77.9065023,127.243498 88.4856026,127.243498 C98.7740029,127.243498 108.448703,123.236598 115.726403,115.960598 C117.067703,114.617598 119.245403,114.619298 120.588404,115.960598 C121.930554,117.303598 121.930554,119.479598 120.587554,120.821748 C112.012753,129.397398 100.611703,134.119999 88.4856026,134.119999" id="Fill-11" fill="#FFFFFF" mask="url(#mask-2)"></path>
                    <path d="M94.7004628,103.615453 C93.9091128,103.615453 93.1118127,103.369803 92.4292627,102.858953 C90.7471127,101.603503 90.4011627,99.2218026 91.6574627,97.5388026 L99.5454629,86.9741523 C100.801763,85.2903022 103.183463,84.9443522 104.866463,86.2023523 C106.549463,87.4578023 106.894563,89.8395024 105.638263,91.5225024 L97.7502629,102.088003 C97.0039629,103.087603 95.8590128,103.615453 94.7004628,103.615453" id="Fill-13" fill="#FFFFFF" mask="url(#mask-2)"></path>
                </g>
            </g>
        </g>
    </g>
</svg>