<svg width="49" height="49" viewBox="0 0 49 49" fill="none" xmlns="http://www.w3.org/2000/svg">
<path fill-rule="evenodd" clip-rule="evenodd" d="M30.6606 16.2104L28.3696 16.212C26.573 16.212 26.2246 17.0654 26.2246 18.3174V21.08H30.51L29.9517 25.4079H26.2246V36.51H21.7567V25.4079H18.0205V21.08H21.7567V17.8899C21.7567 14.1857 24.0188 12.17 27.3215 12.17C28.9036 12.17 30.2636 12.2871 30.6606 12.3404V16.2104ZM24.34 0C10.8982 0 0 10.8967 0 24.34C0 37.7818 10.8982 48.68 24.34 48.68C37.7833 48.68 48.68 37.7818 48.68 24.34C48.68 10.8967 37.7833 0 24.34 0V0Z" fill="#9B9B9B"/>
</svg>
