<svg width="50" height="49" viewBox="0 0 50 49" fill="none" xmlns="http://www.w3.org/2000/svg">
<mask id="mask0" mask-type="alpha" maskUnits="userSpaceOnUse" x="0" y="0" width="50" height="49">
<path fill-rule="evenodd" clip-rule="evenodd" d="M0.930664 0.203003H49.6068V48.8789H0.930664V0.203003Z" fill="white"/>
</mask>
<g mask="url(#mask0)">
<path fill-rule="evenodd" clip-rule="evenodd" d="M36.1032 35.3555H31.613V28.3298C31.613 26.6545 31.5844 24.4996 29.2799 24.4996C26.9435 24.4996 26.5882 26.3256 26.5882 28.2099V35.3555H22.1024V20.9081H26.4067V22.8837H26.4683C27.0667 21.7474 28.5319 20.5495 30.7165 20.5495C35.2628 20.5495 36.1032 23.5415 36.1032 27.4322V35.3555ZM17.0402 18.9347C15.5981 18.9347 14.4354 17.7687 14.4354 16.331C14.4354 14.8933 15.5981 13.7273 17.0402 13.7273C18.4768 13.7273 19.6428 14.8933 19.6428 16.331C19.6428 17.7687 18.4768 18.9347 17.0402 18.9347ZM14.7918 35.3555H19.2864V20.9081H14.7918V35.3555ZM25.2693 0.202789C11.8273 0.202789 0.930664 11.0994 0.930664 24.5414C0.930664 37.9834 11.8273 48.8789 25.2693 48.8789C38.7113 48.8789 49.6068 37.9834 49.6068 24.5414C49.6068 11.0994 38.7113 0.202789 25.2693 0.202789Z" fill="#9B9B9B"/>
</g>
</svg>
