<svg width="13" height="18" viewBox="0 0 13 18" fill="none" xmlns="http://www.w3.org/2000/svg">
<path d="M5.73497 17.5298C0.932452 10.4093 0.0410156 9.67855 0.0410156 7.06167C0.0410156 3.47712 2.88227 0.571289 6.38717 0.571289C9.89206 0.571289 12.7333 3.47712 12.7333 7.06167C12.7333 9.67855 11.8419 10.4093 7.03937 17.5298C6.72421 17.9954 6.0501 17.9954 5.73497 17.5298ZM6.38717 9.766C7.84754 9.766 9.0314 8.55524 9.0314 7.06167C9.0314 5.56811 7.84754 4.35735 6.38717 4.35735C4.92679 4.35735 3.74294 5.56811 3.74294 7.06167C3.74294 8.55524 4.92679 9.766 6.38717 9.766Z" fill="#DF054E"/>
</svg>
