<?xml version="1.0" encoding="UTF-8"?>
<svg width="318px" height="67px" viewBox="0 0 318 67" version="1.1" xmlns="http://www.w3.org/2000/svg" xmlns:xlink="http://www.w3.org/1999/xlink">
    <!-- Generator: Sketch 52.5 (67469) - http://www.bohemiancoding.com/sketch -->
    <title>Group</title>
    <desc>Created with Sketch.</desc>
    <g id="propuesta-final" stroke="none" stroke-width="1" fill="none" fill-rule="evenodd">
        <g id="Login" transform="translate(-124.000000, -137.000000)">
            <g id="Group-2">
                <g id="Group" transform="translate(127.000000, 140.000000)">
                    <g id="Group-2-Copy" transform="translate(-3.000000, -3.000000)">
                        <g id="network-(1)-2">
                            <g id="network-(1)">
                                <rect id="Rectangle" fill="#424A60" x="33.6226415" y="35.3962264" width="2.49056604" height="22.754717"></rect>
                                <polygon id="Rectangle" fill="#424A60" transform="translate(47.943587, 17.065085) rotate(45.000000) translate(-47.943587, -17.065085) " points="46.5888221 3.74762323 49.098232 3.76649097 49.2983527 30.382547 46.7889429 30.3636793"></polygon>
                                <polygon id="Rectangle" fill="#424A60" transform="translate(19.924653, 45.508928) rotate(45.000000) translate(-19.924653, -45.508928) " points="18.5365341 27.7554571 21.045944 27.7743248 21.3127716 63.2623996 18.8033617 63.2435318"></polygon>
                                <polygon id="Rectangle" fill="#424A60" transform="translate(23.037736, 18.329936) rotate(45.000000) translate(-23.037736, -18.329936) " points="13.2692069 17.0018542 32.7873971 17.1486076 32.8062648 19.6580175 13.2880746 19.5112641"></polygon>
                                <polygon id="Rectangle" fill="#424A60" transform="translate(46.697673, 42.347978) rotate(45.000000) translate(-46.697673, -42.347978) " points="33.380211 40.9932123 59.9962671 41.193333 60.0151348 43.7027429 33.3990788 43.5026222"></polygon>
                                <ellipse id="Oval" fill="#00E6B7" cx="59.7735849" cy="6.32075472" rx="6.22641509" ry="6.32075472"></ellipse>
                                <ellipse id="Oval" fill="#7383BF" cx="34.8679245" cy="60.6792453" rx="6.22641509" ry="6.32075472"></ellipse>
                                <ellipse id="Oval" fill="#00E6B7" cx="6.22641509" cy="58.1509434" rx="6.22641509" ry="6.32075472"></ellipse>
                                <ellipse id="Oval" fill="#9244C0" cx="14.9433962" cy="10.1132075" rx="3.73584906" ry="3.79245283"></ellipse>
                                <ellipse id="Oval" fill="#FA6161" cx="54.7924528" cy="50.5660377" rx="3.73584906" ry="3.79245283"></ellipse>
                                <ellipse id="Oval" fill="#38364D" cx="34.8679245" cy="30.3396226" rx="8.71698113" ry="8.8490566"></ellipse>
                            </g>
                        </g>
                    </g>
                    <g id="Group-2-Copy-2" transform="translate(94.861272, 8.393939)" fill="#3E2E40">
                        <path d="M0,45.5586447 L0,0 L25.3692344,0 L25.3692344,5.00436926 L5.85443871,5.00436926 L5.85443871,20.7256425 L22.906653,20.7256425 L22.906653,25.3051125 L5.85443871,25.3051125 L5.85443871,45.5586447 L0,45.5586447 Z M32.7569785,12.7469783 L38.1467792,12.7469783 L38.1467792,45.5586447 L32.7569785,45.5586447 L32.7569785,12.7469783 Z M32.7569785,5.47647956 L32.7569785,0 L38.1467792,0 L38.1467792,5.47647956 L32.7569785,5.47647956 Z M52.0394552,45.5586447 L46.6496545,45.5586447 L46.6496545,12.7469783 L52.0394552,12.7469783 L52.0394552,18.412302 C53.185568,16.649748 54.2929441,15.3357208 55.3616168,14.4701809 C56.4302896,13.604641 57.5454096,12.9515616 58.7070104,12.5109231 C59.8686112,12.0702847 61.1618406,11.8499687 62.5867376,11.8499687 C64.631155,11.8499687 66.4509689,12.2669953 68.046234,13.101061 C69.6414991,13.9351267 70.8882653,15.1704697 71.7865699,16.8071269 C72.6848745,18.4437842 73.13402,21.0718386 73.13402,24.6913691 L73.13402,45.5586447 L67.7442193,45.5586447 L67.7442193,27.0047096 C67.7442193,24.077611 67.5506221,22.0003465 67.1634218,20.7728535 C66.7762216,19.5453606 66.0250643,18.5854126 64.9099276,17.8929806 C63.7947908,17.2005487 62.5867441,16.854338 61.2857512,16.854338 C59.7059742,16.854338 58.2036597,17.3264436 56.7787627,18.2706689 C55.3538657,19.2148942 54.2077701,20.5289214 53.3404416,22.21279 C52.473113,23.8966585 52.0394552,26.2965285 52.0394552,29.4124721 L52.0394552,45.5586447 Z M102.313286,37.1078702 L107.656623,37.1078702 L107.656623,37.4383474 C107.656623,38.8861595 107.091319,40.3654237 105.960694,41.8761843 C104.830069,43.3869448 103.327755,44.5278666 101.453706,45.298984 C99.5796564,46.0701013 97.4345991,46.4556542 95.0184695,46.4556542 C90.0932821,46.4556542 86.2987765,44.8426268 83.6348387,41.6165236 C80.9709009,38.3904204 79.6389519,34.306707 79.6389519,29.3652611 C79.6389519,24.3293927 81.0483398,20.1512582 83.8671577,16.8307325 C86.6859756,13.5102067 90.3256035,11.8499687 94.7861505,11.8499687 C97.2332562,11.8499687 99.4480084,12.3850217 101.430474,13.4551438 C103.412939,14.5252658 104.984949,16.2012406 106.146549,18.4831185 C107.30815,20.7649964 107.888942,23.9517091 107.888942,28.0433523 L107.888942,29.8373714 L84.9358251,29.8373714 C84.9358251,33.3624793 85.8650917,36.2580603 87.723653,38.5242011 C89.5822143,40.7903419 92.1686732,41.9233953 95.4831075,41.9233953 C97.8372851,41.9233953 99.5641724,41.4591581 100.663821,40.5306699 C101.76347,39.6021816 102.313286,38.5714178 102.313286,37.4383474 L102.313286,37.1078702 Z M85.3075355,25.7300117 L102.73146,25.7300117 L102.73146,25.0690573 C102.73146,23.5582968 102.367497,22.0790326 101.639561,20.6312204 C100.911624,19.1834082 99.9126627,18.1133023 98.6426458,17.4208703 C97.372629,16.7284384 95.8858023,16.3822277 94.1821211,16.3822277 C92.1996558,16.3822277 90.3566102,17.200544 88.652929,18.8372013 C86.9492478,20.4738585 85.8341278,22.771439 85.3075355,25.7300117 Z M113.278743,36.871815 L118.62208,36.871815 L118.62208,37.0134481 C118.62208,38.4297861 119.156408,39.6021816 120.225081,40.5306699 C121.293753,41.4591581 123.082592,41.9233953 125.591649,41.9233953 C127.821923,41.9233953 129.626249,41.3726054 131.004682,40.2710092 C132.383115,39.169413 133.072321,37.8789911 133.072321,36.3997047 C133.072321,34.3853573 131.724884,32.9533037 129.029971,32.1035009 L126.242143,31.2537023 L124.430054,30.68717 L120.71295,29.5068942 C116.469236,27.9017111 114.34741,25.2579199 114.34741,21.575441 C114.34741,18.9945585 115.377347,16.7284516 117.437253,14.7770526 C119.497158,12.8256536 122.555994,11.8499687 126.613853,11.8499687 C130.60976,11.8499687 133.459511,12.6840219 135.163192,14.3521533 C136.866873,16.0202848 137.718701,17.8772334 137.718701,19.923055 L137.718701,20.017477 L132.282437,20.017477 L132.282437,19.923055 C132.282437,18.8214587 131.740364,17.9559318 130.656204,17.3264483 C129.572043,16.6969647 128.131679,16.3822277 126.33507,16.3822277 C124.166749,16.3822277 122.509556,16.8385964 121.363444,17.7513476 C120.217331,18.6640987 119.644283,19.7814153 119.644283,21.1033307 C119.644283,22.1419786 120.01599,22.9760318 120.759414,23.6055154 C121.502839,24.2349989 122.757349,24.8015256 124.522982,25.3051125 L127.078491,26.060489 L128.983507,26.6270213 C131.616469,27.3824016 133.250429,27.9174546 133.885438,28.2321964 C134.520446,28.5469382 135.163189,28.9403595 135.813685,29.4124721 C136.742966,30.1363782 137.424428,30.9940367 137.858092,31.9854733 C138.291757,32.9769099 138.508586,34.1493055 138.508586,35.5026951 C138.508586,38.5871645 137.408953,41.1837453 135.209656,43.2925152 C133.010358,45.4012851 129.819876,46.4556542 125.638113,46.4556542 C122.974175,46.4556542 120.767167,46.0543645 119.017022,45.251773 C117.266877,44.4491814 115.872977,43.3397333 114.83528,41.9233953 C113.797583,40.5070573 113.278743,38.8704246 113.278743,37.0134481 L113.278743,36.871815 Z M165.132343,40.9319636 L165.132343,45.5114336 C162.530357,46.1409172 160.532433,46.4556542 159.138512,46.4556542 C157.125071,46.4556542 155.313001,46.0464961 153.702248,45.2281674 C152.091495,44.4098388 150.86796,43.213838 150.031608,41.6401291 C149.195255,40.0664202 148.777085,37.5799975 148.777085,34.1807862 L148.777085,17.3264483 L143.201429,17.3264483 L143.201429,12.7469783 L148.777085,12.7469783 L148.777085,5.00436926 L154.166886,5.00436926 L154.166886,12.7469783 L163.599037,12.7469783 L163.599037,17.3264483 L154.166886,17.3264483 L154.166886,32.6228222 C154.166886,35.5184466 154.391459,37.5248953 154.840611,38.6422287 C155.289763,39.759562 155.986713,40.5857467 156.931482,41.1208078 C157.876251,41.6558688 159.014602,41.9233953 160.346571,41.9233953 C161.399756,41.9233953 162.994997,41.5929214 165.132343,40.9319636 Z M177.027075,45.5586447 L171.637274,45.5586447 L171.637274,12.7469783 L177.027075,12.7469783 L177.027075,18.5539351 C177.92538,16.8858036 178.90111,15.5875133 179.954295,14.659025 C181.007479,13.7305368 182.122599,13.0302468 183.299688,12.5581342 C184.476777,12.0860215 185.684824,11.8499687 186.923864,11.8499687 C188.039001,11.8499687 188.999243,12.0073372 189.80462,12.322079 L189.80462,17.9874027 C188.534603,17.3893933 187.187166,17.0903931 185.762269,17.0903931 C183.748828,17.0903931 181.789624,17.9873937 179.884599,19.7814219 C177.979574,21.57545 177.027075,24.7700311 177.027075,29.3652611 L177.027075,45.5586447 Z M214.430434,45.5586447 C213.872865,43.7960907 213.594085,42.2853528 213.594085,41.0263857 C211.239908,43.386949 209.23424,44.8819501 207.577023,45.5114336 C205.919806,46.1409172 204.316821,46.4556542 202.76802,46.4556542 C200.227986,46.4556542 198.036466,45.6609432 196.193392,44.0714972 C194.350319,42.4820512 193.428796,40.2867602 193.428796,37.4855584 C193.428796,34.3066664 194.722026,31.8595858 197.308524,30.1442431 C199.895021,28.4289004 204.363245,26.9417678 210.71333,25.6828007 L213.594085,25.1162683 L213.594085,21.433808 C213.594085,19.4194606 212.928111,18.0031438 211.596142,17.1848152 C210.264173,16.3664866 208.668932,15.9573284 206.810371,15.9573284 C204.580097,15.9573284 202.837722,16.4530393 201.583193,17.4444759 C200.328664,18.4359125 199.701409,19.608308 199.701409,20.9616976 L199.701409,21.433808 L193.846971,21.433808 L193.846971,20.9616976 C193.846971,19.5138855 194.450994,18.0188844 195.659059,16.4766497 C196.867124,14.934415 198.470109,13.7698879 200.468062,12.9830335 C202.466015,12.196179 204.642048,11.8027577 206.996226,11.8027577 C209.350403,11.8027577 211.487717,12.1804422 213.40823,12.9358224 C215.328743,13.6912027 216.738131,14.6983613 217.636436,15.9573284 C218.53474,17.2162955 218.983886,19.5768234 218.983886,23.038983 L218.983886,35.7859613 C218.983886,37.2022993 219.014861,38.673695 219.076814,40.2001927 C219.138766,41.7266903 219.479497,43.5128231 220.099017,45.5586447 L214.430434,45.5586447 Z M213.594085,28.9875729 L211.967852,29.4124721 C206.516073,30.7658618 203.031322,32.0484153 201.513497,33.2601711 C199.995672,34.471927 199.236771,35.911849 199.236771,37.5799805 C199.236771,38.4612574 199.461344,39.2717054 199.910496,40.0113485 C200.359649,40.7509917 201.025623,41.3253869 201.90844,41.7345512 C202.791256,42.1437155 203.666316,42.3482946 204.533644,42.3482946 C206.051469,42.3482946 207.538296,41.9076627 208.994169,41.0263857 C210.450042,40.1451087 211.58065,38.9569763 212.386026,37.4619529 C213.191403,35.9669294 213.594085,34.2280072 213.594085,32.245134 L213.594085,28.9875729 Z" id="Finestra"></path>
                    </g>
                </g>
            </g>
        </g>
    </g>
</svg>