<svg width="50" height="49" viewBox="0 0 50 49" fill="none" xmlns="http://www.w3.org/2000/svg">
<mask id="mask0" mask-type="alpha" maskUnits="userSpaceOnUse" x="0" y="0" width="50" height="49">
<path fill-rule="evenodd" clip-rule="evenodd" d="M0.387207 0.203003H49.0633V48.8787H0.387207V0.203003Z" fill="white"/>
</mask>
<g mask="url(#mask0)">
<path fill-rule="evenodd" clip-rule="evenodd" d="M38.0281 31.9255C38.0281 32.5085 37.8642 33.0486 37.6013 33.5249L29.2006 24.1265L37.51 16.8566C37.8334 17.3703 38.0281 17.972 38.0281 18.6232V31.9255ZM34.7028 35.2508H14.7488C14.1031 35.2508 13.5047 35.0605 12.9954 34.7404L21.5017 25.221L24.1791 27.564C24.3353 27.7004 24.53 27.7686 24.7258 27.7686C24.9205 27.7686 25.1163 27.7004 25.2725 27.564L27.9488 25.221L36.4562 34.7404C35.9458 35.0605 35.3485 35.2508 34.7028 35.2508ZM11.4235 31.9255V18.6232C11.4235 17.972 11.6182 17.3703 11.9416 16.8566L20.2499 24.1243L11.8503 33.5249C11.5863 33.0486 11.4235 32.5085 11.4235 31.9255ZM14.7488 15.2979H34.7028C35.2781 15.2979 35.8127 15.4563 36.2868 15.717L24.7258 25.8337L13.1648 15.717C13.6378 15.4563 14.1724 15.2979 14.7488 15.2979ZM24.7258 0.20256C11.2849 0.20256 0.387207 11.0992 0.387207 24.5412C0.387207 37.9832 11.2849 48.8787 24.7258 48.8787C38.1667 48.8787 49.0633 37.9832 49.0633 24.5412C49.0633 11.0992 38.1667 0.20256 24.7258 0.20256Z" fill="#9B9B9B"/>
</g>
</svg>
