<svg width="76" height="75" viewBox="0 0 76 75" fill="none" xmlns="http://www.w3.org/2000/svg">
<rect width="76" height="75" rx="21" fill="#4A90E2"/>
<path fill-rule="evenodd" clip-rule="evenodd" d="M43.2675 36.6031L43.2674 36.6032C41.8061 38.0179 39.8951 38.717 38 38.717C36.1053 38.717 34.1938 38.0181 32.7328 36.6031C29.7947 33.7585 29.7948 29.1126 32.7327 26.2677C34.1454 24.8993 36.022 24.151 38 24.151C39.9784 24.151 41.8545 24.8998 43.2674 26.2676L43.2675 26.2677C46.2055 29.1126 46.2056 33.7585 43.2675 36.6031ZM33.7762 27.3453C31.4469 29.6007 31.4469 33.2703 33.7762 35.5255C34.9404 36.6531 36.4704 37.217 38 37.217C39.5298 37.217 41.0593 36.6531 42.2241 35.5255C44.5533 33.2703 44.5533 29.6007 42.2241 27.3453C41.0957 26.253 39.5957 25.651 38 25.651C36.4043 25.651 34.904 26.2527 33.7762 27.3453ZM37.032 55.8359C37.6469 56.5799 38.0138 57 38.0138 57C38.0138 57 38.3743 56.5744 38.9796 55.8229C42.1442 51.8937 52 39.0551 52 31.5562C52 24.0814 45.7198 18 38 18C30.2805 18 24 24.0814 24 31.5562C24 39.4313 33.846 51.9812 37.032 55.8359ZM37.9981 54.6495C38.2922 54.2821 38.6348 53.8492 39.0147 53.3603C40.3109 51.6921 42.0363 49.3794 43.7588 46.7959C45.4847 44.2074 47.1886 41.3753 48.4559 38.6651C49.7399 35.9191 50.5 33.4547 50.5 31.5562C50.5 24.955 44.9373 19.5 38 19.5C31.063 19.5 25.5 24.955 25.5 31.5562C25.5 33.5784 26.2679 36.1057 27.5498 38.863C28.8179 41.5903 30.5228 44.4048 32.2499 46.9616C33.9738 49.5137 35.7007 51.7811 36.9979 53.4117C37.3708 53.8804 37.7076 54.2957 37.9981 54.6495Z" fill="#E7F2FF"/>
</svg>
