<svg width="16" height="17" viewBox="0 0 16 17" fill="none" xmlns="http://www.w3.org/2000/svg">
<circle cx="8" cy="8.34155" r="8" fill="#DF064E"/>
<path d="M8 4.34155C6.34583 4.34155 5 5.53785 5 7.00822C5 7.44963 5.12415 7.88729 5.36018 8.27547L7.83594 12.2556C7.8689 12.3087 7.93171 12.3416 8 12.3416C8.06829 12.3416 8.1311 12.3087 8.16406 12.2556L10.6407 8.27416C10.8758 7.88729 11 7.44962 11 7.00821C11 5.53785 9.65417 4.34155 8 4.34155ZM8 8.34155C7.17292 8.34155 6.50001 7.74341 6.50001 7.00822C6.50001 6.27304 7.17292 5.6749 8 5.6749C8.82708 5.6749 9.49999 6.27304 9.49999 7.00822C9.49999 7.74341 8.82708 8.34155 8 8.34155Z" fill="white"/>
</svg>
