<svg width="22" height="22" viewBox="0 0 22 22" fill="none" xmlns="http://www.w3.org/2000/svg">
<g clip-path="url(#clip0)">
<path d="M21.8657 10.6759L14.9907 3.80094C14.8117 3.62189 14.5216 3.62189 14.3426 3.80094C14.1636 3.98 14.1636 4.27003 14.3426 4.44904L20.4353 10.5417H0.458348C0.205004 10.5417 0 10.7467 0 11C0 11.2534 0.205004 11.4584 0.458348 11.4584H20.4353L14.3426 17.5509C14.1636 17.73 14.1636 18.02 14.3426 18.199C14.4321 18.2885 14.5494 18.3333 14.6667 18.3333C14.784 18.3333 14.9012 18.2885 14.9908 18.199L21.8658 11.324C22.0448 11.145 22.0448 10.855 21.8657 10.6759Z" fill="#DF054E"/>
</g>
<defs>
<clipPath id="clip0">
<rect width="22" height="22" fill="white"/>
</clipPath>
</defs>
</svg>
