<?xml version="1.0" encoding="UTF-8"?>
<svg width="153px" height="166px" viewBox="0 0 153 166" version="1.1" xmlns="http://www.w3.org/2000/svg" xmlns:xlink="http://www.w3.org/1999/xlink">
    <!-- Generator: Sketch 52.3 (67297) - http://www.bohemiancoding.com/sketch -->
    <title>Page 1</title>
    <desc>Created with Sketch.</desc>
    <defs>
        <polygon id="path-1" points="0.0001 0.681779416 77.02842 0.681779416 77.02842 93 0.0001 93"></polygon>
        <polygon id="path-3" points="0.553552418 0.719228779 152.018 0.719228779 152.018 94 0.553552418 94"></polygon>
        <polygon id="path-5" points="0 0.861679209 22.6139467 0.861679209 22.6139467 17.9588 0 17.9588"></polygon>
        <polygon id="path-7" points="0.439462655 0.940426754 23.018 0.940426754 23.018 17.9588 0.439462655 17.9588"></polygon>
        <polygon id="path-9" points="0 165.688 152.018 165.688 152.018 -2.84217094e-14 0 -2.84217094e-14"></polygon>
    </defs>
    <g id="Symbols" stroke="none" stroke-width="1" fill="none" fill-rule="evenodd">
        <g id="Desktop-Newsletter-signup" transform="translate(-41.000000, -13.000000)">
            <g id="Page-1" transform="translate(41.000000, 13.000000)">
                <g id="Group-3" transform="translate(0.000000, 72.688000)">
                    <mask id="mask-2" fill="white">
                        <use xlink:href="#path-1"></use>
                    </mask>
                    <g id="Clip-2"></g>
                    <path d="M2.1201,93.0004 C0.9491,93.0004 0.0001,92.0514 0.0001,90.8804 L0.0001,2.8014 C0.0001,2.0364 0.4121,1.3314 1.0791,0.9554 C1.7451,0.5794 2.5631,0.5914 3.2181,0.9884 L76.0051,45.0374 C77.0071,45.6434 77.3281,46.9474 76.7221,47.9484 C76.1151,48.9494 74.8121,49.2714 73.8101,48.6644 L4.2401,6.5624 L4.2401,90.8804 C4.2401,92.0514 3.2911,93.0004 2.1201,93.0004" id="Fill-1" fill="#626693" mask="url(#mask-2)"></path>
                </g>
                <g id="Group-6" transform="translate(0.000000, 71.688000)">
                    <mask id="mask-4" fill="white">
                        <use xlink:href="#path-3"></use>
                    </mask>
                    <g id="Clip-5"></g>
                    <path d="M10.2754,89.7601 L147.7774,89.7601 L147.7774,6.5981 L10.2754,89.7601 Z M149.8984,94.0001 L2.6734,94.0001 C1.7224,94.0001 0.8874,93.3651 0.6314,92.4491 C0.3764,91.5321 0.7624,90.5581 1.5764,90.0661 L148.8004,1.0251 C149.4554,0.6291 150.2734,0.6171 150.9394,0.9921 C151.6064,1.3681 152.0184,2.0731 152.0184,2.8391 L152.0184,91.8801 C152.0184,93.0511 151.0684,94.0001 149.8984,94.0001 Z" id="Fill-4" fill="#626693" mask="url(#mask-4)"></path>
                </g>
                <g id="Group-9" transform="translate(0.000000, 58.688000)">
                    <mask id="mask-6" fill="white">
                        <use xlink:href="#path-5"></use>
                    </mask>
                    <g id="Clip-8"></g>
                    <path d="M2.1221,17.9588 C1.4541,17.9588 0.7951,17.6438 0.3831,17.0538 C-0.2879,16.0948 -0.0549,14.7728 0.9051,14.1018 L19.2781,1.2448 C20.2371,0.5738 21.5591,0.8068 22.2311,1.7668 C22.9021,2.7258 22.6681,4.0468 21.7091,4.7188 L3.3361,17.5758 C2.9661,17.8338 2.5411,17.9588 2.1221,17.9588" id="Fill-7" fill="#626693" mask="url(#mask-6)"></path>
                </g>
                <g id="Group-12" transform="translate(129.000000, 58.688000)">
                    <mask id="mask-8" fill="white">
                        <use xlink:href="#path-7"></use>
                    </mask>
                    <g id="Clip-11"></g>
                    <path d="M20.896,17.9588 C20.478,17.9588 20.055,17.8348 19.686,17.5788 L1.348,4.7998 C0.387,4.1308 0.151,2.8098 0.82,1.8488 C1.49,0.8868 2.812,0.6528 3.772,1.3208 L22.11,14.0988 C23.071,14.7688 23.307,16.0898 22.637,17.0508 C22.225,17.6428 21.566,17.9588 20.896,17.9588" id="Fill-10" fill="#626693" mask="url(#mask-8)"></path>
                </g>
                <mask id="mask-10" fill="white">
                    <use xlink:href="#path-9"></use>
                </mask>
                <g id="Clip-14"></g>
                <path d="M42.008,56.881 L111.89,56.881 L111.89,29.399 L42.008,29.399 L42.008,56.881 Z M114.011,61.12 L39.888,61.12 C38.717,61.12 37.768,60.171 37.768,59 L37.768,27.278 C37.768,26.107 38.717,25.158 39.888,25.158 L114.011,25.158 C115.182,25.158 116.131,26.107 116.131,27.278 L116.131,59 C116.131,60.171 115.182,61.12 114.011,61.12 Z" id="Fill-13" fill="#626693" mask="url(#mask-10)"></path>
                <path d="M115.7378,71.642 L37.8468,71.642 C36.6758,71.642 35.7268,70.693 35.7268,69.522 C35.7268,68.351 36.6758,67.402 37.8468,67.402 L115.7378,67.402 C116.9088,67.402 117.8578,68.351 117.8578,69.522 C117.8578,70.693 116.9088,71.642 115.7378,71.642" id="Fill-15" fill="#626693" mask="url(#mask-10)"></path>
                <path d="M115.7378,81.4877 L37.8468,81.4877 C36.6758,81.4877 35.7268,80.5387 35.7268,79.3677 C35.7268,78.1967 36.6758,77.2477 37.8468,77.2477 L115.7378,77.2477 C116.9088,77.2477 117.8578,78.1967 117.8578,79.3677 C117.8578,80.5387 116.9088,81.4877 115.7378,81.4877" id="Fill-16" fill="#626693" mask="url(#mask-10)"></path>
                <path d="M115.7378,91.3334 L75.5358,91.3334 C74.3648,91.3334 73.4158,90.3844 73.4158,89.2134 C73.4158,88.0424 74.3648,87.0934 75.5358,87.0934 L115.7378,87.0934 C116.9088,87.0934 117.8578,88.0424 117.8578,89.2134 C117.8578,90.3844 116.9088,91.3334 115.7378,91.3334" id="Fill-17" fill="#626693" mask="url(#mask-10)"></path>
                <path d="M131.5596,87.6405 C130.3126,87.6405 129.3016,86.6295 129.3016,85.3835 L129.3016,12.4145 L122.3376,5.4505 L114.7056,13.0835 C114.2826,13.5065 113.7076,13.7445 113.1086,13.7445 C112.5106,13.7445 111.9226,13.5065 111.4996,13.0835 L103.8666,5.4505 L96.2336,13.0835 C95.8106,13.5065 95.2366,13.7445 94.6376,13.7445 C94.0386,13.7445 93.4626,13.5065 93.0386,13.0835 L85.4056,5.4505 L77.7736,13.0835 C77.3506,13.5065 76.7756,13.7445 76.1766,13.7445 C75.5786,13.7445 74.9986,13.5065 74.5756,13.0835 L66.9416,5.4505 L59.3096,13.0835 C58.8866,13.5065 58.3116,13.7445 57.7126,13.7445 C57.1146,13.7445 56.5266,13.5065 56.1036,13.0835 L48.4716,5.4505 L40.8376,13.0835 C40.4146,13.5065 39.8406,13.7445 39.2416,13.7445 C38.6426,13.7445 38.0636,13.5065 37.6406,13.0835 L30.0076,5.4505 L22.7516,12.7065 L22.7516,85.3835 C22.7516,86.6295 21.7406,87.6405 20.4936,87.6405 C19.2466,87.6405 18.2356,86.6295 18.2356,85.3835 L18.2356,11.8895 C18.2356,11.4215 18.3806,10.9665 18.6506,10.5855 L18.9346,10.1835 C19.0086,10.0785 19.0916,9.9805 19.1816,9.8905 L28.4106,0.6605 C28.8336,0.2375 29.4086,-0.0005 30.0076,-0.0005 C30.6056,-0.0005 31.1806,0.2375 31.6036,0.6605 L39.2396,8.2965 L46.8746,0.6605 C47.2976,0.2375 47.8716,-0.0005 48.4716,-0.0005 C49.0696,-0.0005 49.6436,0.2375 50.0676,0.6605 L57.7066,8.3005 L65.3456,0.6605 C65.7686,0.2375 66.3436,-0.0005 66.9416,-0.0005 C67.5406,-0.0005 68.1156,0.2375 68.5386,0.6605 L76.1736,8.2965 L83.8096,0.6605 C84.2326,0.2375 84.8076,-0.0005 85.4056,-0.0005 C86.0046,-0.0005 86.5786,0.2375 87.0026,0.6605 L94.6366,8.2945 L102.2696,0.6605 C102.6936,0.2375 103.2676,-0.0005 103.8666,-0.0005 C104.4656,-0.0005 105.0396,0.2375 105.4626,0.6605 L113.1026,8.3005 L120.7416,0.6605 C121.1646,0.2375 121.7396,-0.0005 122.3376,-0.0005 C122.9366,-0.0005 123.5106,0.2375 123.9346,0.6605 L133.1636,9.8905 C133.5976,10.3245 133.8366,10.9155 133.8246,11.5295 L133.8166,11.9315 L133.8176,85.3835 C133.8176,86.6295 132.8066,87.6405 131.5596,87.6405" id="Fill-18" fill="#626693" mask="url(#mask-10)"></path>
            </g>
        </g>
    </g>
</svg>