<?xml version="1.0" encoding="UTF-8"?>
<svg width="92px" height="100px" viewBox="0 0 92 100" version="1.1" xmlns="http://www.w3.org/2000/svg" xmlns:xlink="http://www.w3.org/1999/xlink">
    <!-- Generator: Sketch 52.3 (67297) - http://www.bohemiancoding.com/sketch -->
    <title>newsletter icon</title>
    <desc>Created with Sketch.</desc>
    <defs>
        <polygon id="path-1" points="0.332855049 0.433270349 91.4095163 0.433270349 91.4095163 56.626506 0.332855049 56.626506"></polygon>
        <polygon id="path-3" points="0 0.519083861 13.5979288 0.519083861 13.5979288 10.8185542 0 10.8185542"></polygon>
        <polygon id="path-5" points="0.264252054 0.566522141 13.8408889 0.566522141 13.8408889 10.8185542 0.264252054 10.8185542"></polygon>
        <polygon id="path-7" points="0 99.8120482 91.4095163 99.8120482 91.4095163 -2.84217094e-14 0 -2.84217094e-14"></polygon>
    </defs>
    <g id="Navigation" stroke="none" stroke-width="1" fill="none" fill-rule="evenodd">
        <g id="Desktop-Off_canvass-Nav" transform="translate(-143.000000, -801.000000)">
            <g id="newsletter-icon" transform="translate(143.000000, 801.000000)">
                <path d="M1.2748915,99.8119277 C0.570760784,99.8119277 0.000120261438,99.240241 0.000120261438,98.5348193 L0.000120261438,45.4757831 C0.000120261438,45.0149398 0.247858824,44.5896386 0.648930719,44.3631325 C1.04940131,44.1372289 1.54127059,44.1444578 1.9351268,44.383012 L45.7024732,70.9191566 C46.304983,71.2842169 46.4980026,72.0691566 46.1336105,72.6727711 C45.768617,73.2757831 44.9851137,73.469759 44.3826039,73.1040964 L2.54966275,47.7414458 L2.54966275,98.5348193 C2.54966275,99.240241 1.97902222,99.8119277 1.2748915,99.8119277" id="Fill-1" fill="#FFFFFF"></path>
                <g id="Group-5" transform="translate(0.000000, 43.185542)">
                    <mask id="mask-2" fill="white">
                        <use xlink:href="#path-1"></use>
                    </mask>
                    <g id="Clip-4"></g>
                    <path d="M6.1786719,54.0723494 L88.8596131,54.0723494 L88.8596131,3.97475904 L6.1786719,54.0723494 Z M90.1349856,56.6265663 L1.60753464,56.6265663 C1.0356915,56.6265663 0.5336,56.2446386 0.379665359,55.6922289 C0.226332026,55.1404217 0.458436601,54.5530723 0.947900654,54.2566867 L89.4747503,0.61753012 C89.8686065,0.378975904 90.3604758,0.371746988 90.7609464,0.597650602 C91.161417,0.824156627 91.4097569,1.24885542 91.4097569,1.7103012 L91.4097569,55.3494578 C91.4097569,56.0548795 90.838515,56.6265663 90.1349856,56.6265663 Z" id="Fill-3" fill="#FFFFFF" mask="url(#mask-2)"></path>
                </g>
                <g id="Group-8" transform="translate(0.000000, 35.354217)">
                    <mask id="mask-4" fill="white">
                        <use xlink:href="#path-3"></use>
                    </mask>
                    <g id="Clip-7"></g>
                    <path d="M1.27603399,10.8185542 C0.874360784,10.8185542 0.478099346,10.6287952 0.230360784,10.2733735 C-0.17311634,9.69566265 -0.0330117647,8.89927711 0.544243137,8.49506024 L11.5920601,0.749879518 C12.1687137,0.345662651 12.9636418,0.486024096 13.3677203,1.06433735 C13.7711974,1.64204819 13.6304915,2.43843373 13.0538379,2.8426506 L2.00541961,10.5878313 C1.78353725,10.743253 1.5279817,10.8185542 1.27603399,10.8185542" id="Fill-6" fill="#FFFFFF" mask="url(#mask-4)"></path>
                </g>
                <g id="Group-11" transform="translate(77.568627, 35.354217)">
                    <mask id="mask-6" fill="white">
                        <use xlink:href="#path-5"></use>
                    </mask>
                    <g id="Clip-10"></g>
                    <path d="M12.564915,10.8185542 C12.3135686,10.8185542 12.0592157,10.7438554 11.8373333,10.5896386 L0.810562092,2.89144578 C0.232705882,2.48843373 0.0907973856,1.6926506 0.493071895,1.11373494 C0.895947712,0.534216867 1.69087582,0.393253012 2.26813072,0.795662651 L13.294902,8.49325301 C13.8727582,8.89686747 14.0146667,9.6926506 13.6117908,10.2715663 C13.3640523,10.6281928 12.9677908,10.8185542 12.564915,10.8185542" id="Fill-9" fill="#FFFFFF" mask="url(#mask-6)"></path>
                </g>
                <mask id="mask-8" fill="white">
                    <use xlink:href="#path-7"></use>
                </mask>
                <g id="Clip-13"></g>
                <path d="M25.2597124,34.2656627 L67.2808627,34.2656627 L67.2808627,17.710241 L25.2597124,17.710241 L25.2597124,34.2656627 Z M68.555634,36.8192771 L23.9849412,36.8192771 C23.2808105,36.8192771 22.7101699,36.2475904 22.7101699,35.5421687 L22.7101699,16.4325301 C22.7101699,15.7271084 23.2808105,15.1560241 23.9849412,15.1560241 L68.555634,15.1560241 C69.2597647,15.1560241 69.8304052,15.7271084 69.8304052,16.4325301 L69.8304052,35.5421687 C69.8304052,36.2475904 69.2597647,36.8192771 68.555634,36.8192771 Z" id="Fill-12" fill="#FFFFFF" mask="url(#mask-8)"></path>
                <path d="M69.5940314,43.1577711 L22.7576131,43.1577711 C22.0534824,43.1577711 21.4828418,42.5860843 21.4828418,41.8806627 C21.4828418,41.175241 22.0534824,40.6035542 22.7576131,40.6035542 L69.5940314,40.6035542 C70.2981621,40.6035542 70.8688026,41.175241 70.8688026,41.8806627 C70.8688026,42.5860843 70.2981621,43.1577711 69.5940314,43.1577711" id="Fill-14" fill="#FFFFFF" mask="url(#mask-8)"></path>
                <path d="M69.5940314,49.0889157 L22.7576131,49.0889157 C22.0534824,49.0889157 21.4828418,48.5172289 21.4828418,47.8118072 C21.4828418,47.1063855 22.0534824,46.5346988 22.7576131,46.5346988 L69.5940314,46.5346988 C70.2981621,46.5346988 70.8688026,47.1063855 70.8688026,47.8118072 C70.8688026,48.5172289 70.2981621,49.0889157 69.5940314,49.0889157" id="Fill-15" fill="#FFFFFF" mask="url(#mask-8)"></path>
                <path d="M69.5940314,55.0200602 L45.4202797,55.0200602 C44.716149,55.0200602 44.1455085,54.4483735 44.1455085,53.7429518 C44.1455085,53.0375301 44.716149,52.4658434 45.4202797,52.4658434 L69.5940314,52.4658434 C70.2981621,52.4658434 70.8688026,53.0375301 70.8688026,53.7429518 C70.8688026,54.4483735 70.2981621,55.0200602 69.5940314,55.0200602" id="Fill-16" fill="#FFFFFF" mask="url(#mask-8)"></path>
                <path d="M79.1077333,52.7957831 C78.3579033,52.7957831 77.7499817,52.186747 77.7499817,51.4355422 L77.7499817,7.47831325 L73.5624784,3.28313253 L68.973302,7.8813253 C68.718949,8.13614458 68.3731974,8.28012048 68.0130144,8.28012048 C67.6534327,8.28012048 67.2998641,8.13614458 67.0455111,7.8813253 L62.4557333,3.28313253 L57.8659556,7.8813253 C57.6116026,8.13614458 57.2664523,8.28012048 56.9062693,8.28012048 C56.5460863,8.28012048 56.1997333,8.13614458 55.9447791,7.8813253 L51.3550013,3.28313253 L46.7652235,7.8813253 C46.5114719,8.13614458 46.1657203,8.28012048 45.8055373,8.28012048 C45.4459556,8.28012048 45.0971974,8.13614458 44.8428444,7.8813253 L40.2524654,3.28313253 L35.6632889,7.8813253 C35.4089359,8.13614458 35.0631843,8.28012048 34.7030013,8.28012048 C34.3434196,8.28012048 33.989851,8.13614458 33.735498,7.8813253 L29.1463216,3.28313253 L24.5559425,7.8813253 C24.3015895,8.13614458 23.9564392,8.28012048 23.5962562,8.28012048 C23.2360732,8.28012048 22.8879163,8.13614458 22.6335634,7.8813253 L18.0437856,3.28313253 L13.6807007,7.65421687 L13.6807007,51.4355422 C13.6807007,52.186747 13.0727791,52.7957831 12.322949,52.7957831 C11.573119,52.7957831 10.9651974,52.186747 10.9651974,51.4355422 L10.9651974,7.16204819 C10.9651974,6.88072289 11.0523869,6.6060241 11.2147399,6.37650602 L11.3855111,6.13433735 C11.4300078,6.07168675 11.4799163,6.0126506 11.534034,5.95843373 L17.083498,0.398192771 C17.337851,0.142771084 17.6836026,-0.000602409639 18.0437856,-0.000602409639 C18.4033673,-0.000602409639 18.749119,0.142771084 19.0034719,0.398192771 L23.5950536,4.99759036 L28.186034,0.398192771 C28.4403869,0.142771084 28.7855373,-0.000602409639 29.1463216,-0.000602409639 C29.5059033,-0.000602409639 29.8510536,0.142771084 30.1060078,0.398192771 L34.6993935,5 L39.2927791,0.398192771 C39.547132,0.142771084 39.8928837,-0.000602409639 40.2524654,-0.000602409639 C40.6126484,-0.000602409639 40.9584,0.142771084 41.2127529,0.398192771 L45.8037333,4.99819277 L50.395315,0.398192771 C50.649668,0.142771084 50.9954196,-0.000602409639 51.3550013,-0.000602409639 C51.7151843,-0.000602409639 52.0603346,0.142771084 52.3152889,0.398192771 L56.905668,4.99698795 L61.4954458,0.398192771 C61.7504,0.142771084 62.0961516,-0.000602409639 62.4557333,-0.000602409639 C62.8159163,-0.000602409639 63.1610667,0.142771084 63.4154196,0.398192771 L68.0094065,5 L72.6027922,0.398192771 C72.8571451,0.142771084 73.2028967,-0.000602409639 73.5624784,-0.000602409639 C73.9226614,-0.000602409639 74.2678118,0.142771084 74.522766,0.398192771 L80.0722301,5.95843373 C80.3331974,6.21927711 80.4763085,6.57590361 80.4696941,6.94578313 L80.4648837,7.18795181 L80.465485,51.4355422 C80.465485,52.186747 79.8575634,52.7957831 79.1077333,52.7957831" id="Fill-17" fill="#FFFFFF" mask="url(#mask-8)"></path>
            </g>
        </g>
    </g>
</svg>