<?xml version="1.0" encoding="UTF-8"?>
<svg width="14px" height="19px" viewBox="0 0 14 19" version="1.1" xmlns="http://www.w3.org/2000/svg" xmlns:xlink="http://www.w3.org/1999/xlink">
    <!-- Generator: Sketch 52.5 (67469) - http://www.bohemiancoding.com/sketch -->
    <title>pause (2)</title>
    <desc>Created with Sketch.</desc>
    <g id="Page-1" stroke="none" stroke-width="1" fill="none" fill-rule="evenodd">
        <g id="Artboard" transform="translate(-157.000000, -176.000000)" fill="#DF054E">
            <g id="pause-(2)" transform="translate(157.000000, 176.000000)">
                <path d="M9.45977011,0 L13.5402299,0 C13.7941361,0 14,0.208130242 14,0.464831804 L14,18.5351682 C14,18.7918698 13.7941361,19 13.5402299,19 L9.45977011,19 C9.20586385,19 9,18.7918698 9,18.5351682 L9,0.464831804 C9,0.208130242 9.20586385,0 9.45977011,0 Z" id="Path"></path>
                <path d="M0.459770115,0 L4.54022989,0 C4.79413615,0 5,0.208130242 5,0.464831804 L5,18.5351682 C5,18.7918698 4.79413615,19 4.54022989,19 L0.459770115,19 C0.205863851,19 0,18.7918698 0,18.5351682 L0,0.464831804 C0,0.208130242 0.205863851,0 0.459770115,0 Z" id="Path"></path>
            </g>
        </g>
    </g>
</svg>