<svg width="17" height="17" viewBox="0 0 17 17" fill="none" xmlns="http://www.w3.org/2000/svg">
<path fill-rule="evenodd" clip-rule="evenodd" d="M5.35555 4.46515C5.37597 4.46532 5.39622 4.46461 5.41664 4.47065L6.87061 4.90913C7.06011 4.96596 7.18194 5.21833 7.1759 5.40853L7.14269 6.48529C7.14997 6.8554 6.98996 6.92146 6.68751 6.99587L6.06593 7.07916L6.14354 7.51196C6.2453 8.20227 6.47795 8.7221 6.92069 9.33231C7.41654 9.90186 7.86603 10.2434 8.52455 10.5089L8.94066 10.6922L9.17935 10.1205C9.32711 9.85142 9.42514 9.71751 9.78992 9.81519L10.8665 10.0482C11.0565 10.0892 11.2727 10.2652 11.2828 10.459L11.3606 11.9408C11.3691 12.1079 11.1819 12.2401 10.872 12.2626C9.02804 12.3971 7.15423 11.6348 5.92723 10.0926V10.0871C4.70023 8.54486 4.3992 6.5771 4.98367 4.85923C5.06962 4.60669 5.2117 4.46426 5.35555 4.46515ZM8.03066 0.341553C3.59736 0.341553 0 3.93874 0 8.37222C0 12.8055 3.59736 16.3974 8.03066 16.3974C12.4638 16.3974 16.0556 12.8055 16.0556 8.37222C16.0556 3.93874 12.4638 0.341553 8.03066 0.341553Z" fill="#DF064E"/>
</svg>
