<svg width="121" height="60" viewBox="0 0 121 60" fill="none" xmlns="http://www.w3.org/2000/svg">
<path fill-rule="evenodd" clip-rule="evenodd" d="M69.9027 34.195C81.801 11.915 73.0537 0 60.495 0C47.6891 0 39.1586 12.375 51.0872 34.19C55.0306 41.3997 47.0938 43.2143 38.793 45.1122C38.6142 45.1531 38.4352 45.194 38.2562 45.235C30.7542 46.955 30.25 50.59 30.25 56.885L30.2601 60H90.7349L90.745 56.905C90.745 50.6 90.2458 46.96 82.7337 45.24C82.6219 45.2144 82.5101 45.1888 82.3984 45.1632C73.8607 43.2091 66.0459 41.4205 69.9027 34.195ZM88.745 56.905C88.745 56.9044 88.745 56.9038 88.745 56.9032C88.7449 53.6711 88.5811 51.7146 87.8084 50.3251C87.1357 49.1152 85.7747 47.988 82.2874 47.1896C82.1695 47.1626 82.0514 47.1355 81.9333 47.1085C79.9002 46.6432 77.8382 46.1713 75.9648 45.6266C73.9953 45.054 72.0938 44.3628 70.5594 43.4243C69.0189 42.482 67.645 41.1631 67.1145 39.2692C66.583 37.3713 67.0229 35.3429 68.1383 33.2532C73.9572 22.3572 74.4718 14.4595 72.5093 9.47522C70.5977 4.62007 66.1191 2 60.495 2C54.7679 2 50.276 4.71669 48.382 9.63333C46.439 14.677 47.0164 22.5766 52.842 33.2305C53.9931 35.3351 54.4459 37.3823 53.8989 39.2984C53.355 41.2034 51.952 42.5215 50.3987 43.4578C48.8477 44.3928 46.9317 45.0797 44.9624 45.6464C43.1519 46.1674 41.1762 46.619 39.247 47.06C39.0651 47.1016 38.8837 47.1431 38.7028 47.1845C35.2205 47.9829 33.86 49.109 33.1872 50.3173C32.4151 51.7041 32.2501 53.6567 32.25 56.8821C32.25 56.8831 32.25 56.884 32.25 56.885L32.2536 58H88.7414L88.745 56.905ZM114.544 50.8795L114.275 50.818C112.753 50.4696 111.192 50.1124 109.772 49.6993C108.281 49.2657 106.805 48.7324 105.597 47.9935C104.383 47.2509 103.238 46.1732 102.793 44.5852C102.348 42.9935 102.73 41.3356 103.601 39.7035C107.93 31.5923 108.248 25.832 106.854 22.2888C105.51 18.8753 102.364 17 98.3075 17C95.5434 17 93.2386 17.8802 91.6371 19.4242C90.0503 20.9541 88.9738 23.3088 88.9738 26.62C88.9738 31.315 89.6635 33.967 90.5454 35.7203C91.335 37.29 92.3221 38.2653 93.5824 39.5105C93.7469 39.6731 93.9161 39.8402 94.09 40.0138C95.6002 41.5211 97.2411 43.3317 98.4422 46.4639C99.4897 49.1952 100.164 52.8228 100.28 58H118.999L119 57.685C119 57.6833 119 57.6816 119 57.6798C119 55.2372 118.867 53.9012 118.361 52.9887C117.954 52.256 117.092 51.4628 114.544 50.8795ZM121 57.685L120.99 60H98.2974C98.2984 59.7628 98.2984 59.5289 98.2974 59.2983C98.2401 46.9067 95.1276 43.8409 92.1807 40.9382C89.5092 38.3068 86.9738 35.8094 86.9738 26.62C86.9738 19.085 91.9297 15 98.3075 15C107.73 15 114.285 23.935 105.366 40.645C102.474 46.0646 108.333 47.4058 114.74 48.8727L114.99 48.93C120.627 50.22 121 52.955 121 57.685ZM0.0100833 60H22.7026C22.7016 59.7735 22.7017 59.5499 22.7026 59.3294C22.7573 46.9132 25.8717 43.8454 28.8201 40.9411C31.4913 38.3099 34.0262 35.8129 34.0262 26.62C34.0262 19.085 29.0702 15 22.6925 15C13.2697 15 6.7155 23.935 15.6392 40.645C18.5286 46.0653 12.6813 47.4039 6.27962 48.8693C6.19141 48.8895 6.1031 48.9097 6.01471 48.93C0.373083 50.22 0 52.955 0 57.685L0.0100833 60ZM2 57.6807C2.00016 55.2375 2.13255 53.9017 2.63977 52.9893C3.04711 52.2566 3.90876 51.4632 6.46052 50.8797C6.55444 50.8582 6.64937 50.8364 6.74363 50.8149C8.26104 50.4676 9.81662 50.1115 11.2323 49.7002C12.7232 49.267 14.2 48.7342 15.4077 47.9956C16.6218 47.2532 17.7672 46.1757 18.2118 44.5872C18.6572 42.9954 18.2746 41.3371 17.4042 39.7042L17.4034 39.7029C13.0717 31.5916 12.7528 25.8316 14.147 22.2886C15.4902 18.8753 18.6361 17 22.6925 17C25.4566 17 27.7614 17.8802 29.3629 19.4242C30.9497 20.9541 32.0262 23.3088 32.0262 26.62C32.0262 31.3164 31.3368 33.9691 30.4551 35.7227C29.6657 37.293 28.6786 38.2683 27.4181 39.5138C27.254 39.6759 27.0853 39.8425 26.9118 40.0157C25.4021 41.5226 23.7614 43.3327 22.56 46.4644C21.5123 49.1954 20.8378 52.8227 20.7203 58H2.00139L2 57.685C2 57.6836 2 57.6821 2 57.6807Z" fill="#DF054E"/>
</svg>
