<svg width="84" height="43" viewBox="0 0 84 43" fill="none" xmlns="http://www.w3.org/2000/svg">
<rect width="84" height="43" rx="10" fill="black" fill-opacity="0.6"/>
<path d="M16.875 23.2031C16.875 22.5729 16.6536 22.0755 16.2109 21.7109C15.7682 21.3411 14.9583 20.9922 13.7812 20.6641C12.6042 20.3307 11.7448 19.9688 11.2031 19.5781C10.4323 19.026 10.0469 18.3021 10.0469 17.4062C10.0469 16.5365 10.4036 15.8307 11.1172 15.2891C11.8359 14.7422 12.7526 14.4688 13.8672 14.4688C14.6224 14.4688 15.2969 14.6146 15.8906 14.9062C16.4896 15.1979 16.9531 15.6042 17.2812 16.125C17.6094 16.6458 17.7734 17.2266 17.7734 17.8672H16.8047C16.8047 17.0911 16.5391 16.4688 16.0078 16C15.4766 15.526 14.763 15.2891 13.8672 15.2891C12.9974 15.2891 12.3047 15.4844 11.7891 15.875C11.2734 16.2604 11.0156 16.7656 11.0156 17.3906C11.0156 17.9688 11.2474 18.4401 11.7109 18.8047C12.1745 19.1693 12.9167 19.4922 13.9375 19.7734C14.9583 20.0495 15.7318 20.3385 16.2578 20.6406C16.7839 20.9375 17.1797 21.2943 17.4453 21.7109C17.7109 22.1276 17.8438 22.6198 17.8438 23.1875C17.8438 24.0833 17.4844 24.8021 16.7656 25.3438C16.0521 25.8854 15.1094 26.1562 13.9375 26.1562C13.1354 26.1562 12.3984 26.013 11.7266 25.7266C11.0599 25.4401 10.5521 25.0391 10.2031 24.5234C9.85938 24.0078 9.6875 23.4167 9.6875 22.75H10.6484C10.6484 23.5521 10.9479 24.1849 11.5469 24.6484C12.1458 25.112 12.9427 25.3438 13.9375 25.3438C14.8229 25.3438 15.5339 25.1484 16.0703 24.7578C16.6068 24.3672 16.875 23.849 16.875 23.2031Z" fill="white"/>
<path d="M20.6328 18.9766C20.9401 18.4714 21.3333 18.0807 21.8125 17.8047C22.2917 17.5286 22.8151 17.3906 23.3828 17.3906C24.2891 17.3906 24.9635 17.6458 25.4062 18.1562C25.849 18.6667 26.0729 19.4323 26.0781 20.4531V26H25.1484V20.4453C25.1432 19.6901 24.9818 19.1276 24.6641 18.7578C24.3516 18.388 23.849 18.2031 23.1562 18.2031C22.5781 18.2031 22.0651 18.3854 21.6172 18.75C21.1745 19.1094 20.8464 19.5964 20.6328 20.2109V26H19.7031V14H20.6328V18.9766Z" fill="white"/>
<path d="M33.8203 26C33.7266 25.7344 33.6667 25.3411 33.6406 24.8203C33.3125 25.2474 32.8932 25.5781 32.3828 25.8125C31.8776 26.0417 31.3411 26.1562 30.7734 26.1562C29.9609 26.1562 29.3021 25.9297 28.7969 25.4766C28.2969 25.0234 28.0469 24.4505 28.0469 23.7578C28.0469 22.9349 28.388 22.2839 29.0703 21.8047C29.7578 21.3255 30.7135 21.0859 31.9375 21.0859H33.6328V20.125C33.6328 19.5208 33.4453 19.0469 33.0703 18.7031C32.7005 18.3542 32.1589 18.1797 31.4453 18.1797C30.7943 18.1797 30.2552 18.3464 29.8281 18.6797C29.401 19.013 29.1875 19.4141 29.1875 19.8828L28.25 19.875C28.25 19.2031 28.5625 18.6224 29.1875 18.1328C29.8125 17.638 30.5807 17.3906 31.4922 17.3906C32.4349 17.3906 33.1771 17.6276 33.7188 18.1016C34.2656 18.5703 34.5469 19.2266 34.5625 20.0703V24.0703C34.5625 24.888 34.6484 25.5 34.8203 25.9062V26H33.8203ZM30.8828 25.3281C31.5078 25.3281 32.0651 25.1771 32.5547 24.875C33.0495 24.5729 33.4089 24.1693 33.6328 23.6641V21.8047H31.9609C31.0286 21.8151 30.2995 21.987 29.7734 22.3203C29.2474 22.6484 28.9844 23.1016 28.9844 23.6797C28.9844 24.1536 29.1589 24.5469 29.5078 24.8594C29.862 25.1719 30.3203 25.3281 30.8828 25.3281Z" fill="white"/>
<path d="M40.9688 18.3438C40.7708 18.3073 40.5599 18.2891 40.3359 18.2891C39.7526 18.2891 39.2578 18.4531 38.8516 18.7812C38.4505 19.1042 38.1641 19.5755 37.9922 20.1953V26H37.0625V17.5469H37.9766L37.9922 18.8906C38.487 17.8906 39.2812 17.3906 40.375 17.3906C40.6354 17.3906 40.8411 17.4245 40.9922 17.4922L40.9688 18.3438Z" fill="white"/>
<path d="M45.5703 26.1562C44.8516 26.1562 44.2005 25.9792 43.6172 25.625C43.0391 25.2708 42.5885 24.7786 42.2656 24.1484C41.9427 23.513 41.7812 22.8021 41.7812 22.0156V21.6797C41.7812 20.8672 41.9375 20.1354 42.25 19.4844C42.5677 18.8333 43.0078 18.3229 43.5703 17.9531C44.1328 17.5781 44.7422 17.3906 45.3984 17.3906C46.4245 17.3906 47.237 17.7422 47.8359 18.4453C48.4401 19.1432 48.7422 20.099 48.7422 21.3125V21.8359H42.7109V22.0156C42.7109 22.974 42.9844 23.7734 43.5312 24.4141C44.0833 25.0495 44.776 25.3672 45.6094 25.3672C46.1094 25.3672 46.5495 25.276 46.9297 25.0938C47.3151 24.9115 47.6641 24.6198 47.9766 24.2188L48.5625 24.6641C47.875 25.6589 46.8776 26.1562 45.5703 26.1562ZM45.3984 18.1875C44.6953 18.1875 44.1016 18.4453 43.6172 18.9609C43.138 19.4766 42.8464 20.1693 42.7422 21.0391H47.8125V20.9375C47.7865 20.125 47.5547 19.4635 47.1172 18.9531C46.6797 18.4427 46.1068 18.1875 45.3984 18.1875Z" fill="white"/>
<path d="M68.7925 25.9251C68.6019 26.1117 68.4379 26.3167 68.2961 26.5335L62.0126 22.7998C62.1788 22.3926 62.273 21.9498 62.273 21.4852C62.273 21.0207 62.1788 20.5779 62.013 20.1707L68.2979 16.4654C68.9434 17.4579 70.075 18.1192 71.3637 18.1192C73.3688 18.1192 75 16.5224 75 14.5596C75 12.5968 73.3688 11 71.3637 11C69.3586 11 67.7274 12.5968 67.7274 14.5596C67.7274 15.0067 67.8158 15.4332 67.9699 15.8276L61.6766 19.5378C61.0264 18.5681 59.9072 17.9256 58.6363 17.9256C56.6312 17.9256 55 19.5225 55 21.4852C55 23.448 56.6312 25.0449 58.6363 25.0449C59.9072 25.0449 61.0261 24.4023 61.6762 23.4327L67.9685 27.1714C67.8121 27.5722 67.727 28.0004 67.727 28.4422C67.727 29.3929 68.1052 30.2871 68.7921 30.9592C69.5008 31.6529 70.4321 32 71.3633 32C72.2946 32 73.2259 31.6529 73.9346 30.9592C74.6215 30.2868 74.9996 29.3929 74.9996 28.4422C74.9996 27.4914 74.6215 26.5972 73.9346 25.9251C72.5168 24.5369 70.2103 24.5369 68.7925 25.9251ZM71.3637 11.7119C72.9677 11.7119 74.2727 12.9895 74.2727 14.5596C74.2727 16.1298 72.9677 17.4073 71.3637 17.4073C69.7597 17.4073 68.4547 16.1298 68.4547 14.5596C68.4547 12.9895 69.7594 11.7119 71.3637 11.7119ZM58.6367 24.3329C57.0327 24.3329 55.7276 23.0554 55.7276 21.4852C55.7276 19.9151 57.0327 18.6375 58.6367 18.6375C60.2406 18.6375 61.5457 19.9151 61.5457 21.4852C61.5457 23.0554 60.2406 24.3329 58.6367 24.3329ZM73.4204 30.4558C72.2862 31.5661 70.4408 31.5661 69.3066 30.4558C68.7572 29.918 68.4547 29.2025 68.4547 28.4422C68.4547 27.6818 68.7572 26.9663 69.3066 26.4285C69.8739 25.8732 70.6186 25.5959 71.3637 25.5959C72.1088 25.5959 72.8535 25.8732 73.4208 26.4285C73.9702 26.9663 74.2727 27.6818 74.2727 28.4422C74.2727 29.2025 73.9702 29.918 73.4204 30.4558Z" fill="white"/>
</svg>
