<svg width="64" height="64" viewBox="0 0 64 64" fill="none" xmlns="http://www.w3.org/2000/svg">
<path fill-rule="evenodd" clip-rule="evenodd" d="M32 0C49.6613 0 64 14.3387 64 32C64 49.6613 49.6613 64 32 64C14.3387 64 0 49.6613 0 32C0 14.3387 14.3387 0 32 0ZM32 2.66667C48.1893 2.66667 61.3333 15.8107 61.3333 32C61.3333 48.1893 48.1893 61.3333 32 61.3333C15.8107 61.3333 2.66667 48.1893 2.66667 32C2.66667 15.8107 15.8107 2.66667 32 2.66667ZM50.6667 22.552L26.6533 48.0587L13.3333 32.4187L15.3627 30.688L26.752 44.064L48.7253 20.7253L50.6667 22.552Z" fill="#70AA45"/>
</svg>
