<svg width="26" height="26" viewBox="0 0 26 26" fill="none" xmlns="http://www.w3.org/2000/svg">
<path fill-rule="evenodd" clip-rule="evenodd" d="M25.18 22.2299C24.8306 23.0582 24.2766 23.7842 23.57 24.3399C23.0468 24.7608 22.4451 25.0735 21.8 25.2599C20.8196 25.5048 19.81 25.6125 18.8 25.5799H7.44002C6.43001 25.6131 5.42031 25.5054 4.44002 25.2599C3.79284 25.0711 3.18838 24.7587 2.66002 24.3399C1.93819 23.7872 1.36728 23.0616 1.00002 22.2299C0.619666 21.0799 0.453582 19.8699 0.51002 18.6599V7.33993C0.453582 6.12997 0.619666 4.91993 1.00002 3.76993C1.35599 2.94272 1.91282 2.21747 2.62002 1.65993C3.14838 1.24119 3.75284 0.928772 4.40002 0.739926C5.38031 0.494454 6.39001 0.386753 7.40002 0.419926H18.76C19.77 0.387401 20.7796 0.495093 21.76 0.739926C22.4051 0.926352 23.0068 1.23907 23.53 1.65993C24.2366 2.21564 24.7906 2.94165 25.14 3.76993C25.5231 4.91945 25.6926 6.12939 25.64 7.33993V18.6599C25.7054 19.868 25.5496 21.0779 25.18 22.2299Z" fill="#1ED760"/>
<path d="M13.1 4.65992C11.4505 4.65992 9.83806 5.14905 8.46656 6.06546C7.09505 6.98187 6.02609 8.2844 5.39486 9.80834C4.76362 11.3323 4.59846 13.0092 4.92026 14.627C5.24206 16.2448 6.03637 17.7308 7.20274 18.8972C8.36911 20.0636 9.85516 20.8579 11.473 21.1797C13.0908 21.5015 14.7677 21.3363 16.2916 20.7051C17.8155 20.0738 19.1181 19.0049 20.0345 17.6334C20.9509 16.2619 21.44 14.6494 21.44 12.9999C21.4413 11.9043 21.2265 10.8192 20.8078 9.80678C20.3892 8.79433 19.7749 7.87442 19.0002 7.09971C18.2255 6.32501 17.3056 5.71074 16.2931 5.29208C15.2807 4.87342 14.1956 4.6586 13.1 4.65992ZM16.92 16.6599C16.8477 16.7758 16.7327 16.8587 16.5999 16.8905C16.467 16.9223 16.327 16.9005 16.21 16.8299C15.102 16.218 13.8835 15.8321 12.6252 15.6948C11.367 15.5575 10.0939 15.6714 8.88001 16.0299C8.74612 16.0598 8.60583 16.0357 8.4897 15.9626C8.37356 15.8896 8.29101 15.7736 8.26001 15.6399C8.22984 15.5048 8.25375 15.3632 8.32663 15.2454C8.39952 15.1277 8.51559 15.0432 8.65001 15.0099C9.99492 14.6242 11.4027 14.5079 12.7927 14.6675C14.1827 14.8271 15.5275 15.2595 16.75 15.9399C16.8119 15.9767 16.8656 16.0256 16.9079 16.0838C16.9502 16.142 16.9803 16.2082 16.9962 16.2784C17.0121 16.3486 17.0135 16.4212 17.0004 16.492C16.9873 16.5627 16.96 16.6301 16.92 16.6899V16.6599ZM17.92 14.3899C17.8292 14.5351 17.6848 14.6386 17.5182 14.6779C17.3515 14.7172 17.1761 14.6892 17.03 14.5999C14.5 13.1846 11.5136 12.8252 8.72001 13.5999C8.6368 13.6318 8.54791 13.6463 8.45886 13.6424C8.36982 13.6385 8.28253 13.6163 8.20242 13.5773C8.12231 13.5382 8.05108 13.4831 7.99317 13.4154C7.93526 13.3476 7.8919 13.2687 7.86578 13.1835C7.83967 13.0983 7.83136 13.0086 7.84137 12.92C7.85138 12.8315 7.87949 12.7459 7.92397 12.6687C7.96844 12.5914 8.02833 12.5242 8.0999 12.471C8.17147 12.4179 8.2532 12.3801 8.34001 12.3599C9.89651 11.9109 11.5269 11.777 13.1358 11.9659C14.7448 12.1547 16.2998 12.6627 17.71 13.4599C17.7923 13.5039 17.8643 13.5648 17.9213 13.6386C17.9783 13.7124 18.019 13.7975 18.0408 13.8882C18.0625 13.9789 18.0647 14.0732 18.0474 14.1649C18.03 14.2565 17.9934 14.3434 17.94 14.4199L17.92 14.3899ZM18 12.0499C15.31 10.4599 10.88 10.3099 8.31001 11.0499C8.21004 11.0876 8.10338 11.1044 7.99666 11.0991C7.88994 11.0939 7.78543 11.0668 7.68961 11.0195C7.5938 10.9722 7.50872 10.9058 7.43966 10.8243C7.37059 10.7427 7.31901 10.6479 7.28812 10.5456C7.25723 10.4433 7.24768 10.3358 7.26007 10.2296C7.27246 10.1235 7.30653 10.0211 7.36015 9.92864C7.41377 9.83622 7.48581 9.7558 7.57179 9.69237C7.65778 9.62895 7.75588 9.58386 7.86001 9.55992C10.81 8.65992 15.7 8.83992 18.8 10.6699C18.9777 10.776 19.106 10.9483 19.1566 11.149C19.2073 11.3497 19.1761 11.5622 19.07 11.7399C18.9639 11.9176 18.7916 12.0459 18.5909 12.0965C18.3903 12.1472 18.1777 12.116 18 12.0099V12.0499Z" fill="white"/>
</svg>
