<?xml version="1.0" encoding="UTF-8"?>
<svg width="1441px" height="51px" viewBox="0 0 1441 51" version="1.1" xmlns="http://www.w3.org/2000/svg" xmlns:xlink="http://www.w3.org/1999/xlink">
    <!-- Generator: Sketch 52.3 (67297) - http://www.bohemiancoding.com/sketch -->
    <title>Combined Shape Copy</title>
    <desc>Created with Sketch.</desc>
    <g id="All-Page-Layups" stroke="none" stroke-width="1" fill="none" fill-rule="evenodd">
        <g id="Condition-specific-Home---Desktop" transform="translate(0.000000, -4048.000000)" fill="#FFFFFF">
            <g id="Find-a-Clinic" transform="translate(0.000000, 3036.000000)">
                <path d="M1108.63656,1041.50827 L1087.14485,1062.99999 L1065.65313,1041.50827 L1044.16141,1062.99999 L1022.66969,1041.50827 L1001.17797,1062.99999 L979.686256,1041.50827 L958.194538,1062.99999 L936.70282,1041.50827 L915.211101,1062.99999 L893.719383,1041.50827 L872.227665,1062.99999 L850.735947,1041.50827 L829.244229,1062.99999 L804.253859,1038.00962 L779.263489,1062.99999 L757.771771,1041.50827 L736.280053,1062.99999 L714.788335,1041.50827 L693.296617,1062.99999 L671.804899,1041.50827 L650.313181,1062.99999 L628.821463,1041.50827 L607.329744,1062.99999 L585.838026,1041.50827 L564.346308,1062.99999 L542.85459,1041.50827 L521.362872,1062.99999 L499.871154,1041.50827 L478.379436,1062.99999 L452.825493,1037.44605 L478.271531,1012.00001 L499.763249,1033.49173 L521.254968,1012.00001 L542.746686,1033.49173 L564.238404,1012.00001 L585.730122,1033.49173 L607.22184,1012.00001 L628.713558,1033.49173 L650.205276,1012.00001 L671.696994,1033.49173 L693.188712,1012.00001 L714.680431,1033.49173 L736.172149,1012.00001 L757.663867,1033.49173 L779.155585,1012.00001 L804.145955,1036.99038 L829.136325,1012.00001 L850.628043,1033.49173 L872.119761,1012.00001 L893.611479,1033.49173 L915.103197,1012.00001 L936.594915,1033.49173 L958.086633,1012.00001 L979.578351,1033.49173 L1001.07007,1012.00001 L1022.56179,1033.49173 L1044.05351,1012.00001 L1065.54522,1033.49173 L1087.03694,1012.00001 L1108.52866,1033.49173 L1130.02038,1012.00001 L1154.78291,1036.76255 L1179.54545,1012.00001 L1201.03717,1033.49173 L1222.52889,1012.00001 L1244.0206,1033.49173 L1265.51232,1012.00001 L1287.00404,1033.49173 L1308.49576,1012.00001 L1329.98748,1033.49173 L1351.47919,1012.00001 L1372.97091,1033.49173 L1394.46263,1012.00001 L1415.95435,1033.49173 L1437.44607,1012.00001 L1463.00001,1037.55395 L1437.55397,1062.99999 L1416.06225,1041.50827 L1394.57053,1062.99999 L1373.07882,1041.50827 L1351.5871,1062.99999 L1330.09538,1041.50827 L1308.60366,1062.99999 L1287.11194,1041.50827 L1265.62023,1062.99999 L1244.12851,1041.50827 L1222.63679,1062.99999 L1201.14507,1041.50827 L1179.65335,1062.99999 L1154.89082,1038.23745 L1130.12828,1062.99999 L1108.63656,1041.50827 Z M405.907363,1041.50827 L384.415645,1062.99999 L362.923927,1041.50827 L341.432209,1062.99999 L319.940491,1041.50827 L298.448773,1062.99999 L276.957054,1041.50827 L255.465336,1062.99999 L233.973618,1041.50827 L212.4819,1062.99999 L190.990182,1041.50827 L169.498464,1062.99999 L148.006746,1041.50827 L126.515028,1062.99999 L101.524658,1038.00962 L76.534288,1062.99999 L50.9803451,1037.44605 L76.4263836,1012.00001 L101.416753,1036.99038 L126.407123,1012.00001 L147.898841,1033.49173 L169.39056,1012.00001 L190.882278,1033.49173 L212.373996,1012.00001 L233.865714,1033.49173 L255.357432,1012.00001 L276.84915,1033.49173 L298.340868,1012.00001 L319.832586,1033.49173 L341.324304,1012.00001 L362.816023,1033.49173 L384.307741,1012.00001 L405.799459,1033.49173 L427.291177,1012.00001 L452.84512,1037.55395 L427.399081,1062.99999 L405.907363,1041.50827 Z M-9.42467865e-06,1037.44605 L25.446029,1012.00001 L50.9999718,1037.55395 L25.5539334,1062.99999 L-9.42467865e-06,1037.44605 Z" id="Combined-Shape-Copy"></path>
            </g>
        </g>
    </g>
</svg>