<svg width="50" height="49" viewBox="0 0 50 49" fill="none" xmlns="http://www.w3.org/2000/svg">
<path fill-rule="evenodd" clip-rule="evenodd" d="M37.0012 20.4496L37.0199 21.1778C37.0199 28.6138 31.3615 37.1894 21.0083 37.1894C17.8304 37.1894 14.8736 36.2566 12.3821 34.6572C12.8232 34.7067 13.2698 34.7342 13.7241 34.7342C16.3608 34.7342 18.7885 33.8377 20.7135 32.3296C18.2517 32.2845 16.1738 30.6576 15.4577 28.4202C15.8031 28.4895 16.154 28.5247 16.517 28.5247C17.0318 28.5247 17.529 28.4543 17.9998 28.3278C15.4269 27.8097 13.4865 25.5349 13.4865 22.8102V22.7398C14.2455 23.1611 15.1134 23.4141 16.0352 23.446C14.5271 22.4384 13.5327 20.7147 13.5327 18.7622C13.5327 17.7293 13.8088 16.7624 14.2939 15.9341C17.0692 19.3375 21.2162 21.5782 25.8923 21.8136C25.7966 21.4022 25.7471 20.9721 25.7471 20.531C25.7471 17.4246 28.2672 14.9056 31.3747 14.9056C32.995 14.9056 34.4558 15.5876 35.4821 16.6832C36.7647 16.4291 37.9681 15.9616 39.0582 15.317C38.6369 16.6271 37.747 17.7315 36.5843 18.4278C37.7228 18.2925 38.8063 17.99 39.8161 17.5412C39.0637 18.6698 38.1067 19.6598 37.0012 20.4496ZM24.8121 0.203003C11.3712 0.203003 0.474609 11.0996 0.474609 24.5416C0.474609 37.9825 11.3712 48.8791 24.8121 48.8791C38.2541 48.8791 49.1507 37.9825 49.1507 24.5416C49.1507 11.0996 38.2541 0.203003 24.8121 0.203003Z" fill="#9B9B9B"/>
</svg>
