<svg width="31" height="22" viewBox="0 0 31 22" fill="none" xmlns="http://www.w3.org/2000/svg">
<path d="M26.2138 6.98563C25.9528 3.10492 22.2793 0.00292969 17.8502 0.00292969C15.1616 0.00292969 12.5581 1.15119 10.9449 3.02472C10.9083 3.0079 10.8691 2.99669 10.832 2.98073C10.734 2.93934 10.6344 2.89967 10.5324 2.86474C10.4755 2.84534 10.4186 2.82766 10.3611 2.80998C10.2611 2.77937 10.1601 2.75263 10.0566 2.72806C9.99918 2.71469 9.94223 2.70089 9.88381 2.68925C9.77289 2.66726 9.66 2.65044 9.54562 2.63578C9.49512 2.62931 9.4456 2.62069 9.3946 2.61551C9.2312 2.59999 9.06483 2.59007 8.89599 2.59007C6.43907 2.59007 4.43966 4.33079 4.43966 6.47079C4.43966 6.52642 4.44313 6.58075 4.44759 6.63508C2.38827 7.61259 0.973633 9.66117 0.973633 11.7115C0.973633 14.7656 3.82667 17.2506 7.3338 17.2506H9.88628C10.1596 17.2506 10.3814 17.0578 10.3814 16.8194C10.3814 16.5809 10.1596 16.3882 9.88628 16.3882H7.3338C4.37282 16.3882 1.96393 14.2904 1.96393 11.7115C1.96393 9.92032 3.3033 8.06102 5.14871 7.29049L5.42996 7.17363V6.90198C5.42996 6.84895 5.43392 6.79462 5.43738 6.74029L5.44184 6.66483L5.4359 6.58376C5.43342 6.54625 5.42996 6.50874 5.42996 6.47079C5.42996 4.80683 6.98472 3.45246 8.89599 3.45246C9.04899 3.45246 9.20001 3.4641 9.35004 3.48135C9.38866 3.48566 9.42678 3.49126 9.46491 3.49687C9.59761 3.51584 9.72833 3.54085 9.85707 3.57319C9.8739 3.5775 9.89123 3.58009 9.90757 3.5844C10.0492 3.62191 10.1873 3.66978 10.3225 3.72324C10.3567 3.73661 10.3903 3.75127 10.424 3.76593C10.5438 3.81724 10.6612 3.87416 10.7741 3.93798C11.7282 4.47653 12.362 5.40963 12.362 6.47079C12.362 6.70924 12.5838 6.90198 12.8572 6.90198C13.1305 6.90198 13.3523 6.70924 13.3523 6.47079C13.3523 5.28329 12.7354 4.22041 11.7678 3.50808C13.1869 1.89111 15.525 0.865311 17.8502 0.865311C21.6846 0.865311 24.8704 3.51067 25.2022 6.85326C24.6961 6.82221 23.9381 6.80626 23.1805 6.90716C22.9101 6.94295 22.7245 7.16285 22.7656 7.39828C22.8027 7.61172 23.0136 7.7648 23.2543 7.7648C23.279 7.7648 23.3043 7.76307 23.3295 7.75962C24.4307 7.61474 25.579 7.75057 25.6488 7.75876C27.9542 8.14036 29.6922 9.98974 29.6922 12.0642C29.6922 14.4483 27.4645 16.3882 24.7268 16.3882H22.7601C22.4868 16.3882 22.265 16.5809 22.265 16.8194C22.265 17.0578 22.4868 17.2506 22.7601 17.2506H24.7268C28.0106 17.2506 30.6825 14.9239 30.6825 12.0642C30.6825 9.69739 28.7875 7.57464 26.2138 6.98563Z" fill="#EC0F68"/>
<path d="M16.6737 11.3406C16.6282 11.3005 16.5732 11.269 16.5123 11.247C16.3915 11.2035 16.2548 11.2035 16.134 11.247C16.0731 11.269 16.0186 11.3005 15.9726 11.3406L12.0119 14.7897C11.8183 14.9583 11.8183 15.2308 12.0119 15.3994C12.1085 15.4835 12.2352 15.5257 12.362 15.5257C12.4887 15.5257 12.6155 15.4835 12.712 15.3994L15.828 12.6859V21.5624C15.828 21.8008 16.0498 21.9936 16.3231 21.9936C16.5965 21.9936 16.8183 21.8008 16.8183 21.5624V12.6859L19.9343 15.3994C20.0308 15.4835 20.1576 15.5257 20.2843 15.5257C20.4111 15.5257 20.5378 15.4835 20.6344 15.3994C20.828 15.2308 20.828 14.9583 20.6344 14.7897L16.6737 11.3406Z" fill="#EC0F68"/>
</svg>
