<?xml version="1.0" encoding="UTF-8"?>
<svg width="50px" height="49px" viewBox="0 0 50 49" version="1.1" xmlns="http://www.w3.org/2000/svg" xmlns:xlink="http://www.w3.org/1999/xlink">
    <!-- Generator: Sketch 52.5 (67469) - http://www.bohemiancoding.com/sketch -->
    <title>Group 8</title>
    <desc>Created with Sketch.</desc>
    <defs>
        <polygon id="path-1" points="0.986590021 0.823900018 49.6626911 0.823900018 49.6626911 49.4997811 0.986590021 49.4997811"></polygon>
    </defs>
    <g id="Experts-Bio-Page" stroke="none" stroke-width="1" fill="none" fill-rule="evenodd">
        <g id="Experts---Desktop--Copy-11" transform="translate(-313.000000, -518.000000)">
            <g id="Group-8" transform="translate(312.944434, 517.379104)">
                <mask id="mask-2" fill="white">
                    <use xlink:href="#path-1"></use>
                </mask>
                <g id="Clip-7"></g>
                <path d="M36.1590908,35.9763808 L31.6688907,35.9763808 L31.6688907,28.9506806 C31.6688907,27.2753806 31.6402907,25.1204805 29.3357906,25.1204805 C26.9993906,25.1204805 26.6440906,26.9464806 26.6440906,28.8307806 L26.6440906,35.9763808 L22.1582905,35.9763808 L22.1582905,21.5289805 L26.4625906,21.5289805 L26.4625906,23.5045805 L26.5241906,23.5045805 C27.1225906,22.3682805 28.5877906,21.1703805 30.7723907,21.1703805 C35.3186908,21.1703805 36.1590908,24.1623805 36.1590908,28.0530806 L36.1590908,35.9763808 Z M17.0960904,19.5555804 C15.6539903,19.5555804 14.4912903,18.3895804 14.4912903,16.9518804 C14.4912903,15.5141803 15.6539903,14.3481803 17.0960904,14.3481803 C18.5326904,14.3481803 19.6986904,15.5141803 19.6986904,16.9518804 C19.6986904,18.3895804 18.5326904,19.5555804 17.0960904,19.5555804 Z M14.8476903,35.9763808 L19.3422904,35.9763808 L19.3422904,21.5289805 L14.8476903,21.5289805 L14.8476903,35.9763808 Z M25.3251905,0.823680018 C11.8831903,0.823680018 0.986590021,11.7202803 0.986590021,25.1622805 C0.986590021,38.6042808 11.8831903,49.4997811 25.3251905,49.4997811 C38.7671908,49.4997811 49.6626911,38.6042808 49.6626911,25.1622805 C49.6626911,11.7202803 38.7671908,0.823680018 25.3251905,0.823680018 Z" id="Fill-6" fill="#9B9B9B" mask="url(#mask-2)"></path>
            </g>
        </g>
    </g>
</svg>