<?xml version="1.0" encoding="UTF-8"?>
<svg width="44px" height="44px" viewBox="0 0 44 44" version="1.1" xmlns="http://www.w3.org/2000/svg" xmlns:xlink="http://www.w3.org/1999/xlink">
    <!-- Generator: Sketch 52.5 (67469) - http://www.bohemiancoding.com/sketch -->
    <title>Fill 9</title>
    <desc>Created with Sketch.</desc>
    <g id="Blog" stroke="none" stroke-width="1" fill="none" fill-rule="evenodd">
        <g id="Article---Desktop" transform="translate(-1070.000000, -444.000000)" fill="#9B9B9B">
            <g id="Social-Icons" transform="translate(960.646877, 443.939999)">
                <g id="Twitter" transform="translate(109.970688, 0.000000)">
                    <path d="M32.5033529,18.4230619 L32.5210694,19.0751087 C32.5210694,25.7216026 27.4882353,33.3858923 18.2824963,33.3858923 C15.4560414,33.3858923 12.827193,32.5516559 10.612637,31.1229063 C11.0037617,31.1681112 11.4017003,31.1913986 11.806453,31.1913986 C14.1504754,31.1913986 16.3091565,30.3900386 18.0208379,29.0421099 C15.8321752,29.0023843 13.9842134,27.5476076 13.3464212,25.549002 C13.6530521,25.6092752 13.9651341,25.6421515 14.2881186,25.6421515 C14.7460206,25.6421515 15.187569,25.5791386 15.6073126,25.4668112 C13.3191652,25.0038032 11.5938557,22.9695815 11.5938557,20.5339949 L11.5938557,20.470982 C12.2684435,20.8476897 13.0397904,21.0750842 13.8601982,21.1024811 C12.5191994,20.2011223 11.6347398,18.6614152 11.6347398,16.9148612 C11.6347398,15.9943246 11.8800444,15.1299516 12.3120532,14.3874949 C14.7800907,17.4299234 18.4664748,19.4326386 22.6257517,19.6435949 C22.539895,19.2751063 22.4962853,18.8915493 22.4962853,18.4970336 C22.4962853,15.7203553 24.7367346,13.4683281 27.5005005,13.4683281 C28.940984,13.4683281 30.239736,14.0779097 31.1528144,15.0573497 C32.2934811,14.8313251 33.3632821,14.4121522 34.3322355,13.8354469 C33.9574645,15.0080353 33.1670383,15.9956944 32.1340331,16.6176046 C33.1452335,16.4970581 34.1087357,16.2258286 35.0068233,15.8258335 C34.3376867,16.8340403 33.4872972,17.718961 32.5033529,18.4230619 M21.6649751,0.327393248 C9.71182375,0.327393248 0.0236522154,10.0669999 0.0236522154,22.0819212 C0.0236522154,34.0954726 9.71182375,43.8350793 21.6649751,43.8350793 C33.6167635,43.8350793 43.3076607,34.0954726 43.3076607,22.0819212 C43.3076607,10.0669999 33.6167635,0.327393248 21.6649751,0.327393248" id="Fill-9"></path>
                </g>
            </g>
        </g>
    </g>
</svg>