<svg width="375" height="737" viewBox="0 0 375 737" fill="none" xmlns="http://www.w3.org/2000/svg">
<rect width="375" height="737" fill="#F4F4F4"/>
<mask id="mask0" mask-type="alpha" maskUnits="userSpaceOnUse" x="0" y="0" width="375" height="737">
<rect width="375" height="737" fill="#F4F4F4"/>
</mask>
<g mask="url(#mask0)">
<path d="M356.883 1140C318.063 1140.06 287.09 1111.56 262.193 1052.86C240.056 1000.67 224.499 929.561 209.454 860.795C177.854 716.344 145.168 567.009 49.8369 571.439C-21.7086 574.791 -62.0729 663.419 -101.109 749.13C-134.816 823.143 -166.654 893.049 -216.289 902.681C-243.833 908.018 -274.354 894.338 -309.601 860.837C-332.616 838.961 -361.001 828.685 -393.954 830.283C-420.395 831.568 -449.831 840.453 -481.448 856.682C-535.372 884.367 -577.453 924.37 -577.872 924.771L-579.083 923.507C-578.662 923.105 -536.422 882.945 -482.278 855.141C-450.433 838.787 -420.75 829.835 -394.055 828.535C-360.598 826.9 -331.773 837.344 -308.394 859.564C-273.587 892.648 -243.569 906.192 -216.622 900.96C-167.874 891.502 -136.217 821.993 -102.701 748.402C-63.4482 662.214 -22.8572 573.092 49.7564 569.689C146.506 565.14 179.409 715.258 211.164 860.422C226.192 929.11 241.731 1000.14 263.804 1052.17C288.398 1110.16 318.844 1138.31 356.881 1138.25C424.365 1138.14 472.66 1026.86 523.787 909.046C576.518 787.531 631.048 661.881 710.141 661.755C774.612 661.652 798.099 713.804 822.965 769.018C853.395 836.584 884.865 906.461 996.162 882.815L996.528 884.528C883.841 908.461 852.082 837.937 821.369 769.737C796.74 715.056 773.478 663.406 710.145 663.506C632.194 663.629 577.897 788.746 525.389 909.743C474.027 1028.1 425.514 1139.89 356.883 1140Z" fill="#E1E1E1"/>
<g opacity="0.9706">
<path opacity="0.9706" d="M349.732 1135.58C311.449 1135.64 280.694 1107.61 255.72 1049.91C233.427 998.412 217.57 928.243 202.235 860.385C170.2 718.625 137.054 572.055 43.5817 578.287C-26.4879 583.154 -66.5724 669.264 -105.34 752.538C-138.998 824.837 -170.788 893.127 -219.858 902.472C-247.175 907.669 -277.39 894.158 -312.22 861.147C-335.082 839.535 -363.274 829.361 -396.025 830.897C-422.299 832.133 -451.553 840.862 -482.974 856.841C-536.565 884.098 -578.394 923.524 -578.809 923.92L-580.016 922.65C-579.597 922.255 -537.611 882.674 -483.8 855.3C-452.151 839.198 -422.652 830.4 -396.126 829.149C-362.89 827.573 -334.242 837.918 -311.017 859.876C-276.624 892.473 -246.913 905.84 -220.185 900.752C-171.995 891.573 -140.389 823.68 -106.928 751.797C-67.9478 668.063 -27.6401 581.479 43.4628 576.539C138.464 570.21 171.743 717.521 203.941 859.997C219.259 927.777 235.097 997.864 257.324 1049.21C281.991 1106.2 312.224 1133.89 349.728 1133.83C349.895 1133.83 350.059 1133.83 350.224 1133.82C417.342 1133.17 465.285 1023.68 516.041 907.749C568.42 788.124 622.59 664.419 701.249 664.294C701.393 664.294 701.523 664.294 701.667 664.294C765.573 664.574 790.18 717.046 816.235 772.593C848.488 841.363 881.829 912.467 994.613 886.724L995.002 888.43C978.694 892.156 964.013 893.882 950.757 893.904C871.243 894.038 842.547 832.822 814.649 773.339C788.839 718.304 764.46 666.32 701.662 666.044C701.53 666.044 701.386 666.044 701.252 666.044C623.724 666.168 569.806 789.329 517.647 908.452C466.655 1024.91 418.492 1134.91 350.239 1135.57C350.07 1135.58 349.898 1135.58 349.732 1135.58Z" fill="#E1E1E1"/>
</g>
<g opacity="0.9412">
<path opacity="0.9412" d="M342.577 1131.17C304.834 1131.23 274.298 1103.66 249.244 1046.93C226.794 996.087 210.631 926.835 195.003 859.864C178.763 790.272 161.969 718.311 138.029 666.174C111.288 607.941 78.3475 581.434 37.3284 585.133C-31.3054 591.326 -71.1119 674.971 -109.607 755.864C-143.213 826.48 -174.954 893.18 -223.466 902.242C-250.556 907.305 -280.443 893.965 -314.839 861.46C-337.551 840.104 -365.572 830.032 -398.115 831.512C-424.225 832.702 -453.299 841.287 -484.532 857.021C-537.786 883.852 -579.336 922.679 -579.749 923.069L-580.951 921.796C-580.534 921.403 -538.8 882.402 -485.322 855.459C-453.868 839.61 -424.554 830.965 -398.196 829.764C-365.166 828.264 -336.708 838.493 -313.639 860.188C-279.678 892.279 -250.295 905.471 -223.788 900.524C-176.154 891.624 -144.598 825.315 -111.189 755.115C-72.4818 673.779 -32.4559 589.673 37.173 583.392C79.0388 579.635 112.534 606.458 139.62 665.446C163.634 717.744 180.449 789.793 196.71 859.469C212.319 926.362 228.461 995.531 250.849 1046.22C275.589 1102.25 305.607 1129.48 342.579 1129.42C342.912 1129.42 343.235 1129.41 343.57 1129.41C410.324 1128.22 457.916 1020.5 508.299 906.466C560.326 788.713 614.12 666.964 692.358 666.838C692.64 666.838 692.923 666.838 693.207 666.84C756.54 667.496 782.242 720.268 809.451 776.135C843.547 846.141 878.807 918.538 993.071 890.639L993.49 892.343C976.126 896.58 960.553 898.536 946.534 898.56C867.179 898.691 837.111 836.929 807.878 776.901C780.912 721.535 755.441 669.237 693.19 668.591C692.914 668.588 692.634 668.588 692.362 668.588C615.263 668.71 561.707 789.927 509.903 907.172C459.286 1021.73 411.476 1129.94 343.599 1131.16C343.257 1131.16 342.915 1131.17 342.577 1131.17Z" fill="#E1E1E1"/>
</g>
<g opacity="0.9118">
<path opacity="0.9118" d="M335.245 1126.76C298.12 1126.82 267.855 1099.76 242.768 1044.12C220.155 993.973 203.687 925.632 187.763 859.54C171.292 791.183 154.259 720.498 130.391 669.623C103.753 612.836 71.2844 587.444 31.0774 591.982C-36.0879 599.574 -75.5999 680.725 -113.81 759.205C-147.374 828.142 -179.078 893.257 -227.038 902.034C-253.901 906.954 -283.482 893.782 -317.458 861.773C-340.01 840.683 -367.848 830.703 -400.171 832.128C-426.111 833.265 -454.998 841.691 -486.03 857.167C-538.955 883.564 -580.278 921.836 -580.689 922.22L-581.883 920.94C-581.47 920.554 -539.99 882.131 -486.843 855.618C-455.585 840.023 -426.456 831.53 -400.266 830.378C-367.466 828.922 -339.176 839.065 -316.26 860.496C-282.718 892.094 -253.629 905.117 -227.354 900.308C-180.263 891.692 -148.749 826.964 -115.384 758.435C-76.968 679.531 -37.2419 597.939 30.8798 590.24C71.9007 585.597 104.977 611.322 131.975 668.877C155.916 719.913 172.97 790.686 189.462 859.129C205.368 925.142 221.815 993.402 244.362 1043.4C269.514 1099.18 299.799 1125.84 336.913 1124.98C403.323 1123.4 450.573 1017.41 500.594 905.199C552.255 789.312 605.673 669.496 683.449 669.37C683.879 669.37 684.303 669.374 684.735 669.379C747.496 670.409 774.264 723.462 802.6 779.629C838.562 850.906 875.747 924.61 991.525 894.55L991.964 896.247C973.567 901.023 957.127 903.217 942.355 903.239C863.06 903.37 831.614 841.025 801.036 780.417C772.944 724.736 746.41 672.142 684.706 671.131C684.289 671.124 683.866 671.12 683.451 671.12C606.799 671.243 553.631 790.526 502.193 905.91C451.937 1018.64 404.468 1125.13 336.95 1126.73C336.384 1126.75 335.814 1126.76 335.245 1126.76Z" fill="#E1E1E1"/>
</g>
<g opacity="0.8529">
<path opacity="0.8529" d="M320.837 1117.95C284.822 1118.01 255.027 1091.94 229.813 1038.34C206.875 989.568 189.793 923.105 173.272 858.835C156.34 792.964 138.834 724.85 115.12 676.507C88.3243 621.88 57.6369 599.377 18.573 605.674C-45.6166 616.023 -84.4135 692.073 -121.932 765.619C-155.385 831.19 -186.979 893.126 -233.924 901.42C-260.399 906.1 -289.445 893.334 -322.694 862.4C-344.877 841.764 -372.298 831.947 -404.2 833.232C-429.794 834.26 -458.316 842.386 -488.978 857.383C-541.272 882.956 -582.158 920.147 -582.564 920.52L-583.747 919.229C-583.337 918.856 -542.295 881.513 -489.781 855.823C-420.072 821.724 -361.881 823.552 -321.5 861.118C-288.682 891.65 -260.136 904.274 -234.228 899.694C-188.143 891.555 -156.738 829.996 -123.49 764.822C-85.7724 690.888 -46.7707 614.436 18.295 603.946C57.6881 597.587 89.8807 621.075 116.693 675.737C140.485 724.241 158.015 792.443 174.969 858.399C207.568 985.227 241.271 1116.33 320.85 1116.2C321.762 1116.2 322.677 1116.18 323.604 1116.15C389.29 1113.58 435.841 1011.11 485.123 902.623C536.064 790.488 588.733 674.561 665.617 674.439C666.347 674.437 667.068 674.446 667.803 674.466C729.416 676.225 758.23 729.794 788.735 786.506C828.488 860.414 869.604 936.841 988.438 902.376L988.927 904.058C968.525 909.975 950.379 912.667 934.134 912.694C854.682 912.827 820.474 849.206 787.191 787.336C756.934 731.079 728.353 677.946 667.754 676.216C667.044 676.198 666.327 676.189 665.623 676.189C589.847 676.309 537.43 791.708 486.716 903.345C437.204 1012.34 390.435 1115.29 323.67 1117.9C322.722 1117.93 321.775 1117.95 320.837 1117.95Z" fill="#E1E1E1"/>
</g>
<g opacity="0.8235">
<path opacity="0.8235" d="M313.633 1113.56C233.766 1113.69 199.336 984.003 166.022 858.526C148.863 793.891 131.119 727.059 107.484 679.977C80.7983 626.815 50.5754 605.378 12.3217 612.518C-50.3645 624.222 -88.8084 697.75 -125.989 768.858C-159.414 832.788 -190.988 893.171 -237.421 901.189C-263.708 905.731 -292.455 893.14 -325.313 862.713C-347.332 842.324 -374.563 832.624 -406.254 833.821C-431.678 834.798 -460.019 842.773 -490.489 857.52C-542.459 882.674 -583.101 919.302 -583.506 919.67L-584.682 918.371C-584.276 918.004 -543.472 881.228 -491.284 855.96C-422.01 822.423 -364.207 824.309 -324.125 861.427C-291.692 891.46 -263.426 903.912 -237.719 899.461C-192.139 891.592 -160.76 831.581 -127.539 768.046C-90.1655 696.567 -51.5222 622.657 11.9998 610.796C50.5864 603.59 82.3291 625.963 109.048 679.189C132.763 726.433 150.531 793.355 167.714 858.076C200.856 982.904 235.117 1111.93 313.645 1111.81C314.737 1111.8 315.833 1111.78 316.945 1111.73C382.266 1108.66 428.467 1007.95 477.379 901.328C528.545 789.795 581.439 674.452 659.337 677.006C720.375 679.122 750.168 732.924 781.714 789.885C823.395 865.15 866.491 942.981 986.895 906.285L987.407 907.96C966.026 914.477 947.044 917.43 930.077 917.457C850.419 917.592 814.821 853.283 780.181 790.731C748.883 734.215 719.322 680.833 659.276 678.754C658.417 678.725 657.552 678.714 656.694 678.714C581.366 678.835 529.324 792.289 478.971 902.054C429.829 1009.18 383.415 1110.36 317.027 1113.47C315.888 1113.53 314.754 1113.56 313.633 1113.56Z" fill="#E1E1E1"/>
</g>
<g opacity="0.7941">
<path opacity="0.7941" d="M306.431 1109.16C227.621 1109.3 192.632 981.706 158.771 858.246C141.383 794.847 123.403 729.293 99.8486 683.46C73.2744 631.757 43.4758 611.388 6.07434 619.36C-55.092 632.4 -93.1683 703.402 -129.992 772.068C-163.406 834.375 -194.964 893.228 -240.901 900.966C-266.991 905.365 -295.458 892.952 -327.93 863.025C-349.782 842.881 -376.812 833.274 -408.304 834.413C-433.56 835.34 -461.718 843.163 -491.997 857.662C-543.639 882.392 -584.039 918.457 -584.442 918.817L-585.612 917.515C-585.208 917.153 -544.646 880.94 -492.784 856.099C-423.941 823.124 -366.524 825.073 -326.741 861.736C-294.693 891.271 -266.711 903.535 -241.19 899.242C-196.1 891.646 -164.738 833.159 -131.532 771.242C-94.5217 702.224 -56.2498 630.859 5.71222 617.648C43.4849 609.592 74.7869 630.865 101.409 682.661C125.046 728.653 143.051 794.3 160.463 857.783C194.7 982.616 230.07 1111.67 310.297 1107.3C375.253 1103.74 421.1 1004.79 469.636 900.033C519.854 791.647 571.768 679.611 647.753 679.491C648.792 679.489 649.827 679.509 650.873 679.549C711.335 682.016 742.083 736.038 774.64 793.231C818.27 869.886 863.384 949.153 985.359 910.2L985.891 911.867C963.543 919.006 943.749 922.225 926.058 922.255C846.134 922.385 809.126 857.361 773.118 794.097C740.81 737.338 710.293 683.726 650.805 681.301C649.786 681.261 648.771 681.242 647.76 681.244C572.884 681.363 521.217 792.878 471.227 900.77C422.463 1006.02 376.4 1105.44 310.394 1109.05C309.057 1109.13 307.736 1109.16 306.431 1109.16Z" fill="#E1E1E1"/>
</g>
<g opacity="0.7353">
<path opacity="0.7353" d="M292.03 1100.4C215.317 1100.53 179.209 977.176 144.26 857.797C126.417 796.858 107.969 733.842 84.577 690.5C58.2314 641.682 29.3162 623.428 -6.42456 633.051C-64.4928 648.688 -101.772 714.625 -137.823 778.394C-171.254 837.527 -202.83 893.381 -247.816 900.558C-273.54 904.65 -301.453 892.591 -333.167 863.65C-360.101 839.07 -410.051 818.134 -495.05 857.964C-546.033 881.853 -585.923 916.767 -586.318 917.12L-587.476 915.806C-587.077 915.455 -546.998 880.374 -495.792 856.379C-427.819 824.528 -371.177 826.598 -331.985 862.358C-300.69 890.915 -273.253 902.849 -248.093 898.828C-203.939 891.781 -172.564 836.287 -139.347 777.531C-103.118 713.451 -65.6559 647.187 -6.87994 631.36C29.2741 621.62 59.6909 640.698 86.1205 689.668C109.6 733.175 128.074 796.28 145.943 857.307C180.709 976.056 216.64 1098.77 292.055 1098.65C293.681 1098.65 295.32 1098.59 296.984 1098.47C361.199 1093.91 406.339 998.473 454.13 897.433C504.519 790.899 556.574 680.763 633.941 684.634C693.249 687.786 725.822 742.205 760.31 799.819C807.909 879.34 857.131 961.561 982.271 918.024L982.844 919.678C926.235 939.375 879.866 934.999 841.088 906.301C806.834 880.955 782.42 840.164 758.806 800.718C724.565 743.515 692.223 689.483 633.849 686.382C557.68 682.57 505.856 792.166 455.712 898.181C407.696 999.699 362.344 1095.59 297.107 1100.21C295.397 1100.33 293.701 1100.4 292.03 1100.4Z" fill="#E1E1E1"/>
</g>
<g opacity="0.7059">
<path opacity="0.7059" d="M284.829 1096.02C209.156 1096.16 172.497 974.942 137.003 857.629C118.105 795.16 100.253 736.155 76.945 694.047C50.7147 646.661 22.2421 629.451 -12.6739 639.894C-69.1546 656.783 -105.998 720.182 -141.629 781.494C-175.095 839.081 -206.708 893.477 -251.247 900.374C-276.788 904.319 -304.44 892.416 -335.786 863.965C-362.515 839.699 -412.108 818.987 -496.564 858.11C-547.22 881.577 -586.865 915.925 -587.26 916.27L-588.411 914.952C-588.016 914.606 -548.18 880.092 -497.299 856.521C-429.761 825.24 -373.503 827.363 -334.608 862.669C-303.679 890.743 -276.501 902.52 -251.514 898.642C-207.801 891.877 -176.393 837.831 -143.144 780.614C-107.342 719.01 -70.3215 655.306 -13.1769 638.215C22.1652 627.647 52.1467 645.63 78.4777 693.199C101.877 735.471 119.755 794.562 138.682 857.121C174.84 976.637 212.245 1100.16 290.327 1094.05C354.171 1088.99 398.956 995.309 446.369 896.128C495.492 793.366 546.264 687.169 620.866 687.048C622.395 687.044 623.924 687.086 625.475 687.174C684.207 690.659 717.65 745.257 753.062 803.059C802.675 884.053 853.982 967.811 980.728 921.935L981.324 923.582C924.006 944.323 876.739 940.296 836.83 911.264C801.589 885.629 776.159 844.117 751.568 803.973C716.403 746.57 683.19 692.352 625.372 688.92C549.371 684.638 497.833 792.532 447.947 896.879C400.307 996.531 355.314 1090.66 290.466 1095.79C288.566 1095.94 286.68 1096.02 284.829 1096.02Z" fill="#E1E1E1"/>
</g>
<g opacity="0.6765">
<path opacity="0.6765" d="M277.632 1091.65C202.996 1091.78 165.783 972.731 129.753 857.499C100.141 762.797 72.1711 673.347 25.5574 649.412C11.707 642.301 -2.84393 641.425 -18.922 646.732C-73.7841 664.841 -110.163 725.692 -145.344 784.54C-178.87 840.617 -210.536 893.586 -254.651 900.194C-280.026 903.992 -307.421 892.247 -338.401 864.274C-364.928 840.321 -414.166 819.835 -498.073 858.249C-548.402 881.293 -587.804 915.076 -588.195 915.416L-589.338 914.09C-588.945 913.748 -549.353 879.803 -498.803 856.66C-431.702 825.94 -375.83 828.123 -337.227 862.976C-306.66 890.576 -279.737 902.189 -254.909 898.462C-211.613 891.975 -180.152 839.352 -146.846 783.64C-111.5 724.517 -74.9509 663.38 -19.4688 645.068C-3.14935 639.685 12.2703 640.619 26.3584 647.853C73.6232 672.12 101.701 761.912 131.426 856.976C168.231 974.679 206.231 1096.4 283.671 1089.62C347.138 1084.07 391.566 992.142 438.602 894.813C488.479 791.616 540.139 684.906 617.008 689.712C675.17 693.53 709.458 748.29 745.76 806.267C797.413 888.761 850.832 974.064 979.189 925.842L979.804 927.482C921.77 949.281 873.6 945.595 832.543 916.219C796.306 890.287 769.857 848.046 744.274 807.194C708.215 749.609 674.156 695.215 616.895 691.458C541.082 686.722 489.801 792.898 440.179 895.574C392.922 993.36 348.281 1085.73 283.825 1091.36C281.734 1091.55 279.664 1091.65 277.632 1091.65Z" fill="#E1E1E1"/>
</g>
<g opacity="0.5882">
<path opacity="0.5882" d="M256.042 1078.57C184.5 1078.68 145.648 966.246 108.026 857.386C77.5118 769.091 48.6917 685.693 4.65863 666.278C-8.67419 660.396 -22.5191 660.718 -37.6662 667.253C-87.4202 688.717 -122.175 741.867 -155.785 793.265C-189.664 845.075 -221.667 894.014 -264.692 899.763C-289.629 903.091 -316.306 891.796 -346.254 865.216C-372.181 842.208 -420.355 822.397 -502.622 858.695C-551.962 880.463 -590.629 912.547 -591.013 912.867L-592.136 911.527C-591.75 911.202 -552.893 878.96 -503.329 857.092C-437.538 828.067 -382.82 830.424 -345.093 863.908C-315.549 890.129 -289.318 901.291 -264.924 898.029C-222.694 892.385 -190.906 843.773 -157.25 792.309C-123.497 740.693 -88.5943 687.32 -38.3575 665.646C-22.958 659.001 -8.24622 658.675 5.36646 664.678C50.0981 684.4 79.0408 768.15 109.683 856.814C148.432 968.937 188.498 1084.89 263.701 1076.37C326.018 1069.32 371.39 978.606 415.264 890.886C464.378 792.691 515.183 691.122 591.607 697.346C648.058 702.116 684.717 757.299 723.528 815.723C752.021 858.613 781.483 902.963 820.5 929.645C864.555 959.777 914.951 962.373 974.564 937.592L975.237 939.208C915.026 964.238 864.092 961.578 819.51 931.094C780.214 904.217 750.659 859.723 722.073 816.694C683.501 758.634 647.07 703.793 591.466 699.094C516.175 693.021 465.687 793.997 416.833 891.67C370.719 983.869 327.163 1070.95 263.903 1078.11C261.238 1078.41 258.615 1078.56 256.042 1078.57Z" fill="#E1E1E1"/>
</g>
<g opacity="0.5294">
<path opacity="0.5294" d="M241.648 1069.87C172.151 1069.98 132.242 962.057 93.5917 857.553C62.5128 773.513 33.155 694.133 -9.15161 677.549C-22.1808 672.442 -35.5959 673.548 -50.1615 680.93C-96.21 704.274 -129.612 752.211 -161.914 798.572C-196.246 847.845 -228.675 894.387 -271.185 899.566C-295.901 902.582 -322.168 891.548 -351.491 865.845C-377.021 843.472 -424.492 824.121 -505.66 858.997C-554.342 879.917 -592.513 910.864 -592.894 911.173L-594 909.818C-593.62 909.505 -555.256 878.405 -506.353 857.39C-441.442 829.495 -387.491 831.963 -350.337 864.53C-321.409 889.886 -295.586 900.772 -271.395 897.83C-229.665 892.745 -197.452 846.516 -163.35 797.572C-130.925 751.034 -97.3933 702.91 -50.9534 679.368C-36.1263 671.852 -21.8461 670.691 -8.50964 675.918C34.5267 692.789 64.0162 772.527 95.2358 856.946C135.278 965.22 176.69 1077.2 250.389 1067.53C311.921 1059.47 356.528 972.428 399.667 888.251C446.575 796.721 495.032 702.179 566.763 702.063C569.371 702.06 572.002 702.18 574.676 702.431C629.999 707.812 668.105 763.217 708.449 821.876C738.975 866.264 770.546 912.164 811.657 939.529C858.126 970.459 910.407 972.383 971.484 945.416L972.192 947.018C910.525 974.249 857.692 972.273 810.687 940.986C769.295 913.436 737.631 867.394 707.008 822.867C666.903 764.553 629.021 709.474 574.512 704.174C499.533 697.176 449.576 794.71 401.229 889.048C357.882 973.628 313.06 1061.09 250.619 1069.27C247.572 1069.66 244.582 1069.86 241.648 1069.87Z" fill="#E1E1E1"/>
</g>
</g>
</svg>
