<svg width="1440" height="300" viewBox="0 0 1440 300" fill="none" xmlns="http://www.w3.org/2000/svg">
<path d="M557.635 870.201C498.412 870.293 451.161 826.808 413.179 737.264C379.407 657.647 355.674 549.163 332.722 444.254C284.514 223.885 234.649 -3.93545 89.2156 2.82339C-19.9318 7.93645 -81.5102 143.144 -141.063 273.902C-192.485 386.814 -241.056 493.46 -316.778 508.155C-358.797 516.297 -405.359 495.426 -459.131 444.318C-494.242 410.945 -537.545 395.268 -587.817 397.706C-628.154 399.667 -673.062 413.221 -721.295 437.98C-803.559 480.216 -867.758 541.243 -868.397 541.854L-870.244 539.927C-869.602 539.313 -805.161 478.045 -722.562 435.629C-673.98 410.68 -628.696 397.023 -587.971 395.04C-536.931 392.546 -492.955 408.479 -457.289 442.377C-404.19 492.849 -358.395 513.51 -317.285 505.53C-242.917 491.1 -194.623 385.059 -143.49 272.792C-83.6085 141.306 -21.6841 5.34505 89.0928 0.153882C236.691 -6.78627 286.886 222.228 335.331 443.685C358.258 548.474 381.963 656.833 415.637 736.217C453.156 824.671 499.603 867.62 557.633 867.528C660.583 867.364 734.26 697.6 812.258 517.865C892.703 332.486 975.891 140.798 1096.55 140.605C1194.91 140.449 1230.74 220.01 1268.67 304.243C1315.1 407.319 1363.11 513.921 1532.9 477.847L1533.46 480.461C1361.54 516.972 1313.09 409.383 1266.24 305.339C1228.67 221.921 1193.18 143.124 1096.56 143.278C977.641 143.465 894.807 334.338 814.702 518.928C736.347 699.486 662.335 870.03 557.635 870.201Z" fill="#E1E1E1"/>
<g opacity="0.9706">
<path opacity="0.9706" d="M546.726 863.458C488.323 863.556 441.404 820.793 403.305 732.767C369.296 654.199 345.105 547.151 321.71 443.629C272.838 227.366 222.272 3.76313 79.6735 13.2696C-27.2224 20.6951 -88.3739 152.061 -147.516 279.101C-198.863 389.399 -247.362 493.58 -322.221 507.836C-363.895 515.764 -409.99 495.153 -463.126 444.792C-498.003 411.821 -541.013 396.3 -590.976 398.643C-631.059 400.529 -675.687 413.846 -723.622 438.223C-805.378 479.805 -869.192 539.951 -869.825 540.557L-871.667 538.618C-871.028 538.016 -806.974 477.632 -724.883 435.871C-676.599 411.308 -631.597 397.885 -591.129 395.977C-540.427 393.572 -496.722 409.355 -461.29 442.853C-408.821 492.581 -363.496 512.975 -322.721 505.212C-249.203 491.209 -200.987 387.633 -149.938 277.972C-90.4721 150.229 -28.9802 18.14 79.4921 10.6029C224.423 0.948587 275.193 225.681 324.313 443.038C347.68 546.44 371.843 653.362 405.751 731.701C443.382 818.64 489.506 860.875 546.72 860.783C546.974 860.783 547.225 860.783 547.477 860.778C649.869 859.785 723.01 692.741 800.442 515.887C880.349 333.39 962.99 144.669 1082.99 144.48C1083.21 144.48 1083.41 144.48 1083.63 144.48C1181.12 144.907 1218.66 224.955 1258.41 309.696C1307.61 414.61 1358.48 523.084 1530.53 483.811L1531.13 486.414C1506.25 492.098 1483.85 494.732 1463.63 494.765C1342.33 494.969 1298.55 401.581 1255.99 310.834C1216.61 226.875 1179.42 147.571 1083.62 147.149C1083.42 147.149 1083.2 147.149 1082.99 147.149C964.72 147.339 882.463 335.228 802.891 516.958C725.1 694.624 651.624 862.44 547.499 863.45C547.242 863.458 546.98 863.458 546.726 863.458Z" fill="#E1E1E1"/>
</g>
<g opacity="0.9412">
<path opacity="0.9412" d="M535.811 856.725C478.231 856.817 431.647 814.76 393.425 728.212C359.176 650.651 334.519 545.003 310.677 442.834C285.901 336.668 260.282 226.886 223.759 147.348C182.964 58.5091 132.711 18.0704 70.1339 23.7135C-34.5717 33.1614 -95.2991 160.768 -154.026 284.176C-205.295 391.904 -253.718 493.661 -327.726 507.485C-369.054 515.209 -414.647 494.857 -467.121 445.269C-501.769 412.689 -544.517 397.324 -594.165 399.581C-633.997 401.397 -678.352 414.493 -725.999 438.497C-807.242 479.429 -870.629 538.663 -871.259 539.257L-873.092 537.316C-872.456 536.716 -808.788 477.217 -727.204 436.114C-679.219 411.935 -634.499 398.747 -594.288 396.914C-543.898 394.627 -500.483 410.231 -465.291 443.328C-413.481 492.286 -368.655 512.411 -328.217 504.863C-255.548 491.287 -207.407 390.128 -156.439 283.032C-97.3889 158.949 -36.3267 30.6397 69.8967 21.058C133.766 15.3256 184.864 56.2469 226.186 146.237C262.821 226.021 288.473 335.937 313.281 442.232C337.094 544.281 361.72 649.803 395.874 727.135C433.616 812.607 479.411 854.144 535.814 854.055C536.322 854.055 536.815 854.052 537.326 854.044C639.163 852.222 711.768 687.899 788.631 513.929C868.002 334.288 950.069 148.553 1069.43 148.36C1069.85 148.36 1070.29 148.36 1070.72 148.363C1167.34 149.364 1206.55 229.871 1248.06 315.1C1300.07 421.899 1353.87 532.345 1528.18 489.783L1528.82 492.383C1502.33 498.846 1478.57 501.831 1457.19 501.867C1336.13 502.068 1290.26 407.846 1245.66 316.268C1204.52 231.804 1165.66 152.02 1070.69 151.035C1070.27 151.03 1069.85 151.03 1069.43 151.03C951.812 151.217 870.109 336.14 791.078 515.006C713.858 689.779 640.921 854.859 537.371 856.711C536.849 856.719 536.327 856.725 535.811 856.725Z" fill="#E1E1E1"/>
</g>
<g opacity="0.9118">
<path opacity="0.9118" d="M524.625 850.002C467.988 850.091 421.817 808.819 383.545 723.936C349.048 647.427 323.925 543.168 299.631 442.34C274.503 338.057 248.519 230.222 212.108 152.608C171.469 65.9765 121.936 27.2394 60.5974 34.1628C-41.8677 45.7446 -102.146 169.546 -160.438 289.272C-211.642 394.44 -260.009 493.778 -333.175 507.167C-374.157 514.674 -419.284 494.578 -471.117 445.746C-505.522 413.573 -547.991 398.348 -597.301 400.521C-636.873 402.256 -680.944 415.11 -728.284 438.72C-809.025 478.991 -872.065 537.377 -872.693 537.963L-874.515 536.01C-873.885 535.422 -810.604 476.804 -729.526 436.357C-681.839 412.566 -637.401 399.609 -597.446 397.851C-547.408 395.631 -504.25 411.104 -469.289 443.799C-418.118 492.004 -373.741 511.87 -333.658 504.534C-261.817 491.39 -213.74 392.644 -162.84 288.098C-104.233 167.725 -43.6283 43.2508 60.296 31.5044C122.876 24.422 173.336 63.6669 214.524 151.47C251.047 229.33 277.065 337.298 302.223 441.713C326.489 542.42 351.581 646.556 385.978 722.831C424.348 807.932 470.55 848.602 527.17 847.293C628.483 844.881 700.566 683.184 776.876 511.996C855.689 335.203 937.181 152.416 1055.83 152.224C1056.49 152.224 1057.14 152.229 1057.8 152.237C1153.54 153.808 1194.38 234.744 1237.61 320.43C1292.47 429.169 1349.2 541.609 1525.83 495.75L1526.49 498.339C1498.43 505.625 1473.35 508.972 1450.81 509.005C1329.84 509.206 1281.87 414.094 1235.22 321.632C1192.36 236.688 1151.89 156.452 1057.75 154.91C1057.12 154.899 1056.47 154.893 1055.84 154.893C938.9 155.08 857.788 337.055 779.315 513.081C702.648 685.065 630.229 847.511 527.226 849.963C526.364 849.988 525.493 849.999 524.625 850.002Z" fill="#E1E1E1"/>
</g>
<g opacity="0.8529">
<path opacity="0.8529" d="M502.645 836.568C447.701 836.658 402.247 796.874 363.782 715.104C328.788 640.707 302.728 539.313 277.525 441.264C251.694 340.774 224.987 236.861 188.81 163.111C147.931 79.7735 101.116 45.4437 41.5211 55.0506C-56.4045 70.8389 -115.592 186.858 -172.829 299.058C-223.863 399.09 -272.063 493.577 -343.68 506.23C-384.07 513.371 -428.38 493.895 -479.105 446.703C-512.947 415.222 -554.779 400.245 -603.448 402.206C-642.493 403.774 -686.005 416.17 -732.782 439.049C-812.56 478.062 -874.934 534.8 -875.553 535.369L-877.358 533.4C-876.733 532.831 -814.12 475.862 -734.007 436.67C-627.66 384.649 -538.887 387.439 -477.283 444.748C-427.217 491.326 -383.668 510.585 -344.143 503.597C-273.837 491.181 -225.928 397.269 -175.206 297.842C-117.665 185.05 -58.165 68.4176 41.0969 52.4146C101.194 42.7128 150.306 78.5461 191.209 161.937C227.506 235.933 254.25 339.979 280.114 440.6C329.846 634.085 381.262 834.091 502.664 833.899C504.057 833.896 505.452 833.868 506.866 833.812C607.074 829.893 678.091 673.567 753.275 508.066C830.988 336.997 911.339 160.143 1028.63 159.956C1029.74 159.953 1030.84 159.967 1031.96 159.998C1125.96 162.682 1169.92 244.404 1216.45 330.922C1277.1 443.674 1339.83 560.268 1521.12 507.689L1521.86 510.255C1490.74 519.282 1463.05 523.388 1438.27 523.43C1317.06 523.634 1264.87 426.575 1214.1 332.188C1167.94 246.365 1124.34 165.306 1031.89 162.668C1030.81 162.64 1029.71 162.626 1028.64 162.626C913.038 162.81 833.073 338.858 755.705 509.168C680.17 675.441 608.821 832.498 506.967 836.482C505.521 836.535 504.076 836.565 502.645 836.568Z" fill="#E1E1E1"/>
</g>
<g opacity="0.8235">
<path opacity="0.8235" d="M491.654 829.862C369.812 830.063 317.287 632.216 266.465 440.793C240.288 342.188 213.218 240.231 177.161 168.405C136.45 87.3021 90.3429 54.5987 31.9843 65.4915C-63.6477 83.3467 -122.297 195.519 -179.017 303.998C-230.01 401.528 -278.179 493.647 -349.015 505.879C-389.117 512.808 -432.973 493.6 -483.101 447.18C-516.691 416.075 -558.233 401.277 -606.581 403.104C-645.367 404.594 -688.603 416.761 -735.086 439.258C-814.371 477.633 -876.373 533.511 -876.99 534.072L-878.784 532.091C-878.165 531.531 -815.917 475.426 -736.3 436.879C-630.618 385.715 -542.436 388.594 -481.287 445.219C-431.809 491.036 -388.688 510.032 -349.47 503.243C-279.934 491.237 -232.063 399.687 -181.383 302.759C-124.367 193.714 -65.4138 80.9589 31.4933 62.8637C90.3596 51.8705 138.785 86.0022 179.546 167.203C215.726 239.277 242.832 341.371 269.046 440.106C319.606 630.539 371.874 827.377 491.674 827.187C493.339 827.184 495.011 827.145 496.707 827.067C596.36 822.389 666.841 668.752 741.461 506.091C819.518 335.94 900.212 159.976 1019.05 163.873C1112.17 167.1 1157.62 249.18 1205.74 336.077C1269.33 450.899 1335.08 569.634 1518.76 513.653L1519.54 516.208C1486.92 526.15 1457.97 530.655 1432.08 530.697C1310.56 530.903 1256.25 432.795 1203.4 337.368C1155.66 251.149 1110.56 169.711 1018.96 166.539C1017.65 166.495 1016.33 166.478 1015.02 166.478C900.1 166.662 820.706 339.745 743.888 507.198C668.92 670.621 598.112 824.981 496.833 829.728C495.094 829.818 493.365 829.86 491.654 829.862Z" fill="#E1E1E1"/>
</g>
<g opacity="0.7941">
<path opacity="0.7941" d="M480.666 823.159C360.437 823.363 307.058 628.712 255.402 440.365C228.876 343.647 201.446 243.639 165.512 173.719C124.971 94.8417 79.5113 63.7672 22.4529 75.9292C-70.8605 95.8235 -128.948 204.141 -185.125 308.896C-236.101 403.949 -284.245 493.733 -354.325 505.538C-394.126 512.25 -437.555 493.312 -487.093 447.657C-520.43 416.926 -561.666 402.27 -609.709 404.008C-648.238 405.422 -691.195 417.355 -737.389 439.476C-816.171 477.203 -877.805 532.222 -878.419 532.772L-880.205 530.786C-879.588 530.233 -817.708 474.988 -738.588 437.091C-633.565 386.786 -545.971 389.759 -485.28 445.691C-436.388 490.749 -393.699 509.457 -354.766 502.908C-285.977 491.32 -238.132 402.094 -187.474 307.635C-131.013 202.344 -72.6266 93.4721 21.9005 73.3183C79.5253 61.028 127.279 93.4805 167.892 172.5C203.952 242.663 231.42 342.813 257.983 439.66C310.214 630.101 364.173 826.983 486.565 820.322C585.659 814.891 655.603 663.934 729.647 504.116C806.259 338.765 885.457 167.847 1001.38 167.663C1002.96 167.66 1004.54 167.691 1006.14 167.752C1098.38 171.515 1145.28 253.93 1194.95 341.181C1261.51 458.123 1330.34 579.051 1516.42 519.625L1517.23 522.169C1483.14 533.059 1452.94 537.971 1425.95 538.016C1304.02 538.214 1247.56 439.015 1192.63 342.503C1143.34 255.913 1096.78 174.123 1006.03 170.425C1004.48 170.363 1002.93 170.335 1001.39 170.338C887.159 170.519 808.338 340.643 732.075 505.24C657.681 665.809 587.409 817.477 486.713 822.992C484.673 823.103 482.659 823.156 480.666 823.159Z" fill="#E1E1E1"/>
</g>
<g opacity="0.7353">
<path opacity="0.7353" d="M458.697 809.786C341.667 809.99 286.582 621.802 233.265 439.682C206.044 346.715 177.9 250.579 142.214 184.458C102.022 109.983 57.9103 82.1355 3.38544 96.8163C-85.2015 120.672 -142.073 221.262 -197.072 318.547C-248.073 408.758 -296.245 493.967 -364.874 504.916C-404.117 511.159 -446.7 492.762 -495.081 448.611C-536.172 411.112 -612.373 379.173 -742.045 439.936C-819.823 476.38 -880.679 529.644 -881.281 530.183L-883.047 528.177C-882.439 527.642 -821.296 474.123 -743.178 437.517C-639.479 388.928 -553.069 392.085 -493.279 446.639C-445.537 490.204 -403.679 508.411 -365.295 502.277C-297.936 491.527 -250.071 406.867 -199.396 317.23C-144.126 219.471 -86.976 118.382 2.69067 94.2361C57.8462 79.3767 104.249 108.482 144.569 183.189C180.389 249.561 208.572 345.833 235.832 438.934C288.87 620.092 343.685 807.301 458.736 807.117C461.217 807.111 463.717 807.022 466.255 806.841C564.22 799.892 633.084 654.291 705.993 500.149C782.864 337.624 862.277 169.604 980.305 175.51C1070.78 180.319 1120.48 263.338 1173.09 351.231C1245.71 472.547 1320.8 597.98 1511.71 531.561L1512.58 534.085C1426.22 564.133 1355.48 557.458 1296.32 513.678C1244.07 475.01 1206.82 412.78 1170.8 352.603C1118.56 265.335 1069.22 182.907 980.166 178.176C863.965 172.36 784.903 339.557 708.406 501.29C635.154 656.163 565.967 802.444 466.443 809.504C463.834 809.689 461.247 809.783 458.697 809.786Z" fill="#E1E1E1"/>
</g>
<g opacity="0.7059">
<path opacity="0.7059" d="M447.713 803.109C332.268 803.312 276.342 618.394 222.194 439.426C193.363 344.124 166.129 254.109 130.571 189.87C90.5551 117.579 47.1183 91.3245 -6.14825 107.255C-92.3134 133.021 -148.521 229.74 -202.878 323.276C-253.932 411.129 -302.16 494.113 -370.108 504.635C-409.072 510.654 -451.257 492.495 -499.077 449.091C-539.855 412.072 -615.512 380.473 -744.355 440.159C-821.634 475.959 -882.115 528.359 -882.718 528.886L-884.473 526.875C-883.87 526.348 -823.098 473.694 -745.477 437.735C-642.442 390.013 -556.618 393.252 -497.28 447.113C-450.096 489.943 -408.634 507.909 -370.516 501.993C-303.828 491.672 -255.913 409.221 -205.188 321.934C-150.571 227.952 -94.0936 130.767 -6.91565 104.694C47.001 88.5713 92.7398 116.006 132.909 188.576C168.607 253.065 195.88 343.212 224.755 438.65C279.916 620.98 336.98 809.424 456.1 800.096C553.498 792.386 621.82 649.466 694.152 498.158C769.092 341.388 846.549 179.376 960.359 179.192C962.691 179.187 965.024 179.251 967.39 179.385C1056.99 184.701 1108.01 267.994 1162.03 356.174C1237.72 479.736 1315.99 607.515 1509.35 537.528L1510.26 540.041C1422.82 571.682 1350.71 565.54 1289.83 521.249C1236.06 482.141 1197.27 418.812 1159.75 357.569C1106.11 269.997 1055.44 187.284 967.234 182.049C851.289 175.516 772.663 340.116 696.559 499.304C623.882 651.329 555.242 794.927 456.312 802.752C453.413 802.989 450.536 803.103 447.713 803.109Z" fill="#E1E1E1"/>
</g>
<g opacity="0.6765">
<path opacity="0.6765" d="M436.733 796.439C322.87 796.64 266.099 615.021 211.133 439.227C165.958 294.753 123.289 158.29 52.1763 121.777C31.0466 110.928 8.84821 109.592 -15.6799 117.687C-99.3757 145.314 -154.874 238.147 -208.546 327.923C-259.692 413.472 -308 494.28 -375.301 504.361C-414.011 510.155 -455.805 492.238 -503.067 449.562C-543.535 413.02 -618.651 381.767 -746.657 440.371C-823.436 475.526 -883.547 527.064 -884.144 527.583L-885.888 525.561C-885.288 525.039 -824.887 473.253 -747.771 437.947C-645.403 391.081 -560.167 394.412 -501.276 447.582C-454.644 489.688 -413.571 507.404 -375.694 501.719C-309.643 491.822 -261.647 411.542 -210.836 326.55C-156.914 236.353 -101.156 143.085 -16.5141 115.149C8.38232 106.937 31.9059 108.362 53.3984 119.397C125.504 156.419 168.338 293.403 213.686 438.429C269.835 617.992 327.806 803.68 445.946 793.345C542.769 784.877 610.547 644.634 682.304 496.152C758.394 338.718 837.204 175.925 954.474 183.256C1043.2 189.08 1095.51 272.622 1150.89 361.07C1229.69 486.918 1311.19 617.055 1507.01 543.489L1507.94 545.991C1419.41 579.246 1345.92 573.623 1283.29 528.808C1228.01 489.248 1187.65 424.806 1148.63 362.484C1093.62 274.633 1041.66 191.652 954.301 185.92C838.644 178.695 760.411 340.673 684.709 497.312C612.615 646.492 544.513 787.401 446.18 796.004C442.991 796.294 439.833 796.433 436.733 796.439Z" fill="#E1E1E1"/>
</g>
<g opacity="0.5882">
<path opacity="0.5882" d="M403.796 776.478C294.654 776.659 235.383 605.127 177.987 439.055C131.436 304.355 87.4691 177.125 20.2938 147.507C-0.0463867 138.533 -21.1677 139.024 -44.2757 148.993C-120.179 181.739 -173.2 262.823 -224.474 341.234C-276.159 420.273 -324.98 494.933 -390.618 503.703C-428.662 508.78 -469.359 491.549 -515.048 450.999C-554.601 415.899 -628.093 385.676 -753.596 441.052C-828.869 474.26 -887.858 523.207 -888.444 523.695L-890.157 521.65C-889.568 521.154 -830.289 471.967 -754.676 438.605C-654.306 394.326 -570.831 397.921 -513.276 449.005C-468.204 489.005 -428.188 506.035 -390.973 501.059C-326.549 492.447 -278.053 418.287 -226.709 339.775C-175.217 261.032 -121.97 179.608 -45.3303 146.542C-21.8373 136.405 0.606506 135.908 21.3735 145.066C89.6147 175.153 133.769 302.918 180.515 438.181C239.629 609.233 300.753 786.121 415.481 773.128C510.549 762.369 579.767 623.984 646.7 490.16C721.626 340.358 799.133 185.407 915.722 194.902C1001.84 202.18 1057.77 286.366 1116.98 375.494C1160.45 440.926 1205.39 508.584 1264.91 549.291C1332.12 595.258 1409 599.219 1499.95 561.414L1500.98 563.88C1409.12 602.065 1331.42 598.006 1263.4 551.5C1203.46 510.498 1158.37 442.619 1114.76 376.975C1055.91 288.402 1000.34 204.738 915.507 197.569C800.646 188.305 723.624 342.35 649.094 491.357C578.743 632.012 512.296 764.862 415.788 775.786C411.722 776.243 407.721 776.469 403.796 776.478Z" fill="#E1E1E1"/>
</g>
<g opacity="0.5294">
<path opacity="0.5294" d="M381.837 763.209C275.815 763.382 214.931 598.737 155.967 439.309C108.554 311.1 63.7668 190.001 -0.774658 164.701C-20.6516 156.91 -41.1173 158.598 -63.338 169.859C-133.588 205.472 -184.544 278.603 -233.824 349.329C-286.2 424.499 -335.672 495.502 -400.524 503.402C-438.23 508.004 -478.302 491.17 -523.036 451.959C-561.983 417.827 -634.404 388.306 -758.231 441.512C-832.499 473.426 -890.732 520.638 -891.312 521.109L-893 519.042C-892.42 518.565 -833.894 471.12 -759.288 439.06C-660.263 396.505 -577.957 400.27 -521.275 449.953C-477.144 488.635 -437.75 505.243 -400.844 500.755C-337.182 492.997 -288.039 422.472 -236.014 347.804C-186.548 276.806 -135.393 203.391 -64.5461 167.477C-41.9265 156.009 -20.1411 154.238 0.20459 162.213C65.8594 187.951 110.848 309.596 158.475 438.383C219.563 603.563 282.74 774.394 395.171 759.644C489.043 747.351 557.094 614.559 622.905 486.141C694.467 346.506 768.391 202.275 877.821 202.099C881.8 202.094 885.814 202.278 889.894 202.66C974.293 210.869 1032.43 295.392 1093.97 384.881C1140.54 452.598 1188.71 522.621 1251.42 564.368C1322.32 611.555 1402.07 614.489 1495.25 573.35L1496.33 575.794C1402.25 617.337 1321.65 614.322 1249.94 566.591C1186.8 524.563 1138.49 454.321 1091.77 386.393C1030.59 297.432 972.8 213.405 889.643 205.318C775.258 194.643 699.045 343.438 625.288 487.357C559.159 616.389 490.781 749.814 395.523 762.291C390.875 762.899 386.313 763.2 381.837 763.209Z" fill="#E1E1E1"/>
</g>
</svg>
