<svg width="1440" height="295" viewBox="0 0 1440 295" fill="none" xmlns="http://www.w3.org/2000/svg">
<g opacity="0.7">
<path d="M-264.011 55.9762L-265.656 54.3893C-264.79 53.4873 -177.556 -35.7189 -64.6359 -35.0727C0.893768 -34.6914 62.2574 -4.61192 117.758 54.3504C141.607 79.6826 166.875 92.1592 195.018 92.5017C265.669 93.3512 340.825 17.2563 420.397 -63.3094C515.36 -159.453 613.544 -258.863 709.478 -227.192C739.882 -217.15 765.814 -194.163 780.621 -164.125C820.664 -82.8806 961.848 183.8 1097.35 204.453C1172.65 215.932 1234.56 195.335 1289.18 177.162C1376.21 148.215 1451.36 123.218 1546.04 236.35C1579.83 276.735 1616.61 295.58 1655.33 292.365C1741.74 285.197 1810.35 170.033 1811.04 168.871L1813.01 170.028C1812.32 171.2 1743.11 287.373 1655.53 294.639C1616.02 297.922 1578.58 278.803 1544.28 237.816C1501.33 186.492 1460.21 160.365 1414.8 155.661C1373.88 151.398 1333.09 164.966 1289.91 179.331C1235.04 197.585 1172.85 218.275 1097 206.711C960.412 185.889 818.741 -81.6201 778.573 -163.115C764.035 -192.608 738.589 -215.173 708.763 -225.023C614.167 -256.276 516.495 -157.356 422.025 -61.7042C342.102 19.2132 266.612 95.6437 194.993 94.7829C166.204 94.4358 140.392 81.7217 116.098 55.9146C61.0446 -2.57056 0.235992 -32.4194 -64.6313 -32.7893C-176.562 -33.4401 -263.148 55.0811 -264.011 55.9762Z" fill="#EFEFEF"/>
<path d="M-266.668 23.5243L-268.228 21.8574C-267.76 21.4212 -220.682 -22.0436 -151.444 -40.9137C-110.743 -52.0043 -70.4537 -52.5614 -31.7014 -42.5806C16.7098 -30.1086 62.8257 -1.05443 105.362 43.7713C189.219 131.952 284.408 55.7615 374.726 -29.83C388.197 -42.5943 401.987 -56.0414 415.324 -69.05C509.054 -160.462 605.99 -254.986 700.161 -222.199C730.469 -211.647 755.57 -189.123 770.839 -158.777C779.264 -142.039 792.409 -116.253 809.205 -85.687C878.238 40.4352 988.84 179.262 1092.17 190.396C1163.98 198.185 1224.18 178.685 1277.3 161.475C1340.15 141.113 1394.42 123.52 1452.86 152.044C1481.48 166.019 1509.32 189.449 1537.96 223.675C1570.43 262.472 1605.59 281.861 1642.45 281.32C1714.11 280.253 1772.89 205.618 1795.02 177.518C1800.84 170.133 1802.73 167.774 1803.93 167.332L1804.73 169.473C1803.92 169.903 1800.63 174.088 1796.81 178.929C1774.5 207.264 1715.23 282.523 1642.48 283.601C1604.9 284.167 1569.14 264.489 1536.21 225.138C1507.78 191.166 1480.19 167.927 1451.85 154.097C1394.27 125.979 1340.39 143.433 1278 163.646C1224.67 180.925 1164.22 200.507 1091.92 192.666C1090.03 192.461 1088.12 192.209 1086.22 191.919C983.658 176.296 875.251 39.7297 807.204 -84.5909C790.392 -115.189 777.236 -141 768.804 -157.752C753.8 -187.566 729.158 -209.69 699.412 -220.045C606.552 -252.39 510.152 -158.345 416.92 -67.4196C403.577 -54.4064 389.782 -40.9526 376.297 -28.1768C333.233 12.6369 282.743 56.8735 234.782 75.5313C184.502 95.0911 141.628 85.2176 103.709 45.34C61.469 0.829407 15.7186 -28.0079 -32.2701 -40.3726C-70.6341 -50.2575 -110.528 -49.698 -150.843 -38.7125C-219.543 -19.9908 -266.204 23.0904 -266.668 23.5243Z" fill="#EFEFEF"/>
<path d="M162.206 74.9173C137.601 71.1679 114.058 58.4447 91.3186 34.7679C49.7136 -8.70602 4.8631 -38.0502 -41.9882 -52.4426C-79.4409 -63.9487 -118.262 -65.9855 -157.368 -58.5005C-223.989 -45.743 -268.892 -9.286 -269.338 -8.91837L-270.788 -10.6835C-270.336 -11.0511 -224.983 -47.878 -157.797 -60.7428C-118.316 -68.3009 -79.1302 -66.2435 -41.3144 -54.6255C5.91373 -40.1167 51.0931 -10.5716 92.9699 33.1901C169.933 113.315 256.777 65.4799 363.496 -30.9922C378.931 -44.9393 394.725 -59.7837 410 -74.1396C502.563 -161.142 598.268 -251.097 690.84 -217.205C720.603 -206.304 745.539 -183.652 761.059 -153.424L761.751 -152.079C771.031 -134.011 783.739 -109.265 799.375 -80.4601C865.547 42.3398 980.116 169.384 1086.99 176.344C1155.13 180.79 1213.43 162.297 1264.86 145.979C1330.25 125.241 1386.71 107.337 1445.84 138.547C1474.06 153.446 1501.55 177.144 1529.89 210.997C1562.08 249.466 1596.8 269.355 1633.11 270.108C1698.74 271.469 1753.93 210.824 1780.44 181.678C1788.61 172.7 1793.54 167.284 1796.23 166.284L1797.03 168.425C1794.86 169.229 1789.24 175.401 1782.13 183.215C1755.39 212.607 1699.74 273.773 1633.07 272.392C1596.07 271.631 1560.77 251.46 1528.14 212.463C1500 178.842 1472.73 155.323 1444.78 140.568C1386.49 109.794 1330.45 127.577 1265.55 148.158C1213.93 164.537 1155.4 183.099 1086.85 178.623C1082.53 178.342 1078.19 177.865 1073.85 177.205C969.952 161.381 861.177 39.0425 797.367 -79.3755C781.722 -108.201 769.007 -132.958 759.723 -151.036L759.031 -152.381C743.774 -182.097 719.28 -204.358 690.059 -215.061C598.817 -248.481 503.627 -159.005 411.567 -72.4772C396.285 -58.1146 380.48 -43.261 365.028 -29.2979C288.627 39.7663 222.259 84.0692 162.206 74.9173Z" fill="#EFEFEF"/>
<path d="M152.837 65.2582C127.44 61.3901 102.684 48.6738 78.9279 24.2024C-13.8154 -71.8814 -104.313 -84.5658 -163.903 -78.2933C-228.448 -71.4978 -271.594 -41.6581 -272.022 -41.3567L-273.333 -43.2269C-272.901 -43.5305 -229.27 -73.7082 -164.14 -80.5653C-104.046 -86.888 -12.8104 -74.126 80.57 22.6132C118.03 61.2029 160.196 72.8986 209.478 58.3578C249.123 46.6598 293.161 18.7473 352.263 -32.1523C369.589 -47.0607 387.302 -63.1131 404.431 -78.6358C495.9 -161.519 590.487 -247.227 681.519 -212.209C710.736 -200.972 735.51 -178.195 751.276 -148.072C753.663 -143.514 756.278 -138.502 759.108 -133.082C767.433 -117.125 777.793 -97.2685 789.542 -75.2335C822.37 -13.684 867.383 43.68 916.289 86.2908C971.982 134.813 1029.23 161.1 1081.81 162.294C1146.1 163.763 1202.29 146.201 1251.87 130.706C1320.06 109.401 1378.94 91.0015 1438.83 125.045C1466.63 140.848 1493.77 164.815 1521.81 198.317C1553.93 236.697 1588.45 257.12 1624.41 259.004C1685.65 262.221 1738.48 211.091 1766.87 183.624C1776.94 173.88 1784.21 166.838 1788.53 165.233L1789.33 167.375C1785.46 168.811 1777.95 176.072 1768.46 185.263C1739.82 212.972 1686.52 264.552 1624.29 261.283C1587.7 259.362 1552.6 238.67 1520.06 199.781C1492.2 166.491 1465.26 142.693 1437.7 127.027C1378.67 93.4767 1320.22 111.735 1252.55 132.879C1202.81 148.429 1146.42 166.048 1081.76 164.573C1028.62 163.358 970.89 136.887 914.789 88.0056C865.677 45.2167 820.483 -12.3779 787.53 -74.1671C775.772 -96.2089 765.408 -116.072 757.082 -132.031C754.255 -137.452 751.637 -142.464 749.251 -147.02C733.745 -176.649 709.397 -199.047 680.702 -210.083C590.962 -244.59 496.921 -159.371 405.964 -76.9483C388.825 -61.4165 371.099 -45.3573 353.752 -30.4283C287.051 27.0202 217.883 75.1637 152.837 65.2582Z" fill="#EFEFEF"/>
<path d="M143.807 56.2479C115.844 51.9847 90.2886 37.839 66.5375 13.6302C-24.728 -80.0629 -112.641 -98.8418 -170.323 -98.0951C-232.833 -97.2868 -274.314 -74.0256 -274.726 -73.7904L-275.858 -75.7724C-275.443 -76.0122 -233.539 -99.5314 -170.473 -100.376C-112.319 -101.157 -23.7026 -82.2847 68.1728 12.0341C105.788 50.3772 148.009 63.073 197.243 50.8339C237.477 40.8325 283.166 14.096 341.033 -33.3146C360.18 -48.9857 379.735 -66.0748 398.646 -82.5998C489.081 -161.633 582.589 -243.359 672.205 -207.213C700.874 -195.647 725.484 -172.742 741.492 -142.72C747.556 -131.36 754.867 -117.401 763.332 -101.237C768.42 -91.5189 773.897 -81.0608 779.712 -70.0068C811.364 -9.8228 856.847 44.9814 907.784 84.3087C963.31 127.18 1021.7 149.295 1076.63 148.249C1136.93 147.107 1190.79 130.413 1238.31 115.685C1309.57 93.6 1371.11 74.5243 1431.81 111.55C1459.18 128.244 1485.98 152.48 1513.73 185.644C1545.9 224.088 1580.35 245.093 1616.09 248.062C1673.85 252.866 1724.16 209.803 1754.22 184.069C1765.73 174.211 1774.83 166.42 1780.83 164.192L1781.63 166.334C1776.01 168.421 1767.05 176.093 1755.7 185.804C1725.38 211.767 1674.62 255.22 1615.9 250.338C1579.53 247.297 1544.56 226.04 1511.98 187.11C1484.39 154.14 1457.77 130.059 1430.62 113.498C1370.8 77.0201 1309.71 95.945 1238.98 117.866C1191.32 132.637 1137.29 149.382 1076.68 150.535C1021.21 151.587 962.332 129.31 906.386 86.1172C855.2 46.5936 809.491 -8.47328 777.691 -68.9427C771.874 -79.999 766.397 -90.4593 761.306 -100.178C752.846 -116.337 745.537 -130.291 739.475 -141.644C723.716 -171.196 699.519 -193.731 671.347 -205.096C583.041 -240.701 490.063 -159.46 400.147 -80.8804C381.222 -64.3416 361.653 -47.2388 342.479 -31.5449C284.34 16.0871 238.366 42.9675 197.793 53.0534C178.818 57.7686 160.864 58.8464 143.807 56.2479Z" fill="#EFEFEF"/>
<path d="M135.064 47.3426C105.701 42.8693 78.9553 28.1779 54.1468 3.05571C-35.8672 -88.1051 -121.231 -112.962 -176.997 -117.76C-237.408 -122.959 -277.062 -106.391 -277.457 -106.224L-278.355 -108.322C-277.958 -108.491 -237.881 -125.259 -176.939 -120.046C-120.754 -115.225 -34.7846 -90.2584 55.7729 1.45274C93.486 39.6497 135.737 53.3593 184.946 43.3785C226.302 34.9893 272.333 10.2507 329.802 -34.4722C350.705 -50.7188 372.024 -68.6915 392.644 -86.0752C482.112 -161.501 574.625 -239.486 662.884 -202.217C691.414 -190.165 715.213 -167.742 731.71 -137.368C742.132 -118.201 756.283 -90.9982 769.88 -64.7777C800.611 -5.52538 846.557 46.742 899.253 82.3884C954.473 119.743 1014.01 137.665 1071.46 134.204C1127.62 130.827 1178.9 114.952 1224.14 100.953C1298.78 77.8513 1363.23 57.9011 1424.79 98.0549C1451.72 115.619 1478.17 140.122 1505.66 172.972C1548.38 224.017 1592.78 244.707 1641.4 236.229C1682.13 229.123 1717.06 202.679 1742.56 183.368C1755.4 173.65 1765.53 165.973 1773.14 163.146L1773.94 165.288C1766.64 167.996 1756.63 175.581 1743.94 185.186C1718.25 204.638 1683.07 231.276 1641.8 238.476C1592.99 246.986 1546.6 225.444 1503.91 174.438C1476.57 141.764 1450.28 117.405 1423.55 99.9684C1362.88 60.3991 1298.9 80.2032 1224.82 103.133C1179.45 117.176 1128.04 133.089 1071.6 136.487C1013.65 139.967 953.614 121.921 897.972 84.2814C844.968 48.4249 798.758 -4.13934 767.852 -63.7274C754.26 -89.9341 740.115 -117.125 729.702 -136.274C713.456 -166.189 690.043 -188.263 661.994 -200.109C575.029 -236.851 483.055 -159.316 394.115 -84.3306C373.479 -66.9333 352.144 -48.9445 331.205 -32.6729C273.445 12.2761 227.115 37.1539 185.398 45.6163C167.782 49.1898 151.033 49.7767 135.064 47.3426Z" fill="#EFEFEF"/>
<path d="M126.795 38.5654C95.8864 33.8547 67.7957 18.5809 41.7584 -7.51624C-7.14621 -56.5298 -85.9344 -118.878 -183.556 -137.552C-241.912 -148.734 -279.847 -138.765 -280.223 -138.664L-280.822 -140.865C-280.44 -140.97 -242.115 -151.047 -183.278 -139.822C-129.042 -129.476 -45.6975 -98.4008 43.3731 -9.12605C113.546 61.2077 198.419 53.0354 318.572 -35.6297C341.17 -52.2826 364.185 -71.0066 386.441 -89.1118C475 -161.154 566.576 -235.65 653.561 -197.218C681.533 -184.86 705.172 -162.314 721.925 -132.013C731.331 -115.017 743.797 -91.3153 760.045 -59.5507C790.463 -0.0700226 835.642 48.3704 890.691 80.5345C945.454 112.527 1006.17 126.233 1066.28 120.163C1118.19 114.925 1164.52 100.496 1209.33 86.5445C1287.66 62.153 1355.3 41.0977 1417.77 84.558C1444.23 102.967 1470.33 127.744 1497.58 160.297C1539.7 210.637 1583.19 232.546 1630.55 227.269C1670.53 222.816 1704.63 200.046 1732.02 181.749C1745.12 173.004 1756.43 165.453 1765.43 162.105L1766.23 164.247C1757.47 167.498 1746.27 174.983 1733.29 183.649C1700.32 205.675 1653.39 237.012 1599.08 228.737C1566.81 223.821 1531.94 204.919 1495.82 161.765C1468.71 129.368 1442.76 104.727 1416.46 86.4349C1354.91 43.5957 1287.76 64.5164 1210.01 88.7252C1165.09 102.711 1118.65 117.174 1066.51 122.438C1005.91 128.553 944.714 114.74 889.54 82.5097C834.112 50.1241 788.631 1.36168 758.01 -58.5095C741.777 -90.249 729.318 -113.93 719.927 -130.905C703.416 -160.765 680.149 -182.974 652.638 -195.126C566.93 -232.978 475.909 -158.943 387.884 -87.3353C365.606 -69.2119 342.568 -50.4719 319.929 -33.787C263.352 7.96532 215.309 31.4891 173.06 38.1315C156.944 40.657 141.548 40.8145 126.795 38.5654Z" fill="#EFEFEF"/>
<path d="M118.971 29.92C86.2276 24.9285 56.5952 8.91263 29.3702 -18.0865C-18.7533 -65.8053 -95.8947 -128.707 -190.123 -157.363C-246.466 -174.503 -282.663 -171.155 -283.021 -171.119L-283.25 -173.391C-282.886 -173.425 -246.343 -176.825 -189.604 -159.592C-137.312 -143.709 -56.5988 -106.551 30.9781 -19.71C102.005 50.7265 189.822 45.2989 307.346 -36.7945C331.584 -53.6987 356.228 -73.046 380.062 -91.7586C467.769 -160.613 558.454 -231.817 644.243 -192.227C671.655 -179.574 695.134 -156.904 712.143 -126.667C722.268 -108.688 735.076 -84.3512 750.215 -54.3312C780.009 4.74538 825.625 50.7608 882.13 78.7418C936.259 105.542 998.15 115.007 1061.11 106.115C1108.64 99.4021 1151.96 85.7313 1193.85 72.5103C1276.19 46.525 1347.31 24.0836 1410.76 71.0558C1436.72 90.2799 1462.48 115.322 1489.5 147.612C1584.21 260.778 1667.67 211.769 1722.9 179.34C1736.2 171.528 1747.69 164.783 1757.74 161.05L1758.54 163.192C1748.68 166.854 1737.27 173.551 1724.06 181.306C1690.34 201.105 1646.21 227.009 1595.44 219.275C1562.06 214.189 1525.82 194.559 1487.75 149.076C1460.85 116.927 1435.22 92.0061 1409.4 72.8894C1346.89 26.6045 1276.29 48.8884 1194.54 74.6841C1152.56 87.9325 1109.15 101.631 1061.43 108.369C998.006 117.329 935.66 107.787 881.121 80.7809C824.165 52.5807 778.198 6.21361 748.18 -53.3082C733.057 -83.2986 720.263 -107.606 710.161 -125.553C693.387 -155.372 670.264 -177.713 643.29 -190.16C558.774 -229.165 468.643 -158.402 381.475 -89.9707C357.617 -71.2399 332.945 -51.8719 308.657 -34.9312C234.94 16.5689 172.756 38.1175 118.971 29.92Z" fill="#EFEFEF"/>
<path d="M111.781 21.7022C77.2377 16.4366 45.9768 -0.216354 16.9795 -28.6563C-30.388 -75.1147 -105.933 -138.605 -196.824 -177.252C-251.116 -200.333 -285.511 -203.58 -285.851 -203.607L-285.65 -205.881C-285.305 -205.852 -250.55 -202.575 -195.931 -179.35C-145.58 -157.946 -67.4958 -114.707 18.5782 -30.2867C56.9948 7.39429 99.406 24.1249 148.233 20.8482C192.247 17.9003 240.62 -1.33295 296.118 -37.9521C321.941 -54.9635 348.154 -74.827 373.504 -94.0351C460.416 -159.891 550.291 -227.994 634.924 -187.226C661.774 -174.297 685.094 -151.502 702.363 -121.313C713.022 -102.694 725.815 -78.3982 740.382 -49.0997C770.06 10.5819 814.867 53.0215 873.563 77.0339C926.862 98.8405 989.929 104.04 1055.94 92.0771C1098.95 84.2792 1138.94 71.3961 1177.61 58.9378C1264.34 30.9934 1339.24 6.86453 1403.73 57.5632C1429.54 77.8491 1454.22 102.435 1481.43 134.941C1576.12 248.091 1656.74 206.561 1715.62 176.237C1727.92 169.898 1739.55 163.909 1750.04 160.009L1750.84 162.151C1740.47 166 1728.91 171.958 1716.66 178.267C1682.15 196.046 1640.24 217.628 1592.45 210.349C1557.76 205.065 1519.99 184.583 1479.68 136.407C1452.58 104.028 1428 79.5457 1402.32 59.3603C1338.78 9.40369 1264.42 33.3659 1178.31 61.1094C1139.57 73.5928 1099.51 86.5009 1056.35 94.3217C989.911 106.367 926.405 101.122 872.7 79.1461C813.476 54.9167 768.271 12.1118 738.34 -48.0859C723.791 -77.341 711.019 -101.598 700.383 -120.178C683.346 -149.965 660.367 -172.441 633.937 -185.171C550.553 -225.327 465.231 -160.67 374.888 -92.2152C349.511 -72.9843 323.266 -53.1003 297.381 -36.0477C241.545 0.795197 192.809 20.1494 148.393 23.127C135.776 23.9696 123.584 23.5015 111.781 21.7022Z" fill="#EFEFEF"/>
<path d="M105.607 13.7944C68.8099 8.18407 35.2606 -9.48729 4.59131 -39.2265C-156.829 -195.759 -287.39 -235.758 -288.69 -236.144L-288.039 -238.333C-286.735 -237.948 -155.68 -197.83 6.18094 -40.8683C80.2047 30.9155 171.374 31.4863 284.893 -39.1123C312.253 -56.1009 339.973 -76.3754 366.782 -95.9831C409.941 -127.549 454.57 -160.19 497.73 -178.94C546.235 -200.011 588.061 -201.089 625.605 -182.232C651.892 -169.032 675.049 -146.115 692.581 -115.961C703.672 -96.901 716.448 -72.6511 730.552 -43.8755C762.384 21.0511 846.311 123.225 1050.76 78.0406C1089.1 69.5646 1125.42 57.5287 1160.54 45.8901C1252.04 15.5686 1331.08 -10.6176 1396.71 44.068C1421.94 65.0937 1446.3 89.9372 1473.35 122.264C1569.13 236.713 1647.74 201.048 1710.91 172.398C1721.92 167.402 1732.33 162.685 1742.34 158.963L1743.14 161.104C1733.2 164.797 1722.83 169.498 1711.85 174.476C1647.98 203.448 1568.49 239.501 1471.6 123.727C1444.64 91.5128 1420.38 66.756 1395.25 45.8193C1330.59 -8.04872 1252.12 17.9457 1161.26 48.0571C1126.09 59.7116 1089.71 71.7658 1051.26 80.2669C962.846 99.8084 803.354 109.798 728.505 -42.8731C714.425 -71.5985 701.671 -95.8027 690.607 -114.817C673.302 -144.586 650.471 -167.194 624.584 -180.193C542.29 -221.521 457.696 -159.649 368.132 -94.1426C341.291 -74.5098 313.531 -54.208 286.101 -37.1783C218.468 4.88908 158.662 21.88 105.607 13.7944Z" fill="#EFEFEF"/>
<path d="M100.053 6.0675C60.9145 0.100952 24.7271 -18.6253 -7.79907 -49.7985C-166.517 -201.924 -290.282 -268.068 -291.513 -268.719L-290.446 -270.737C-289.21 -270.087 -165.165 -203.79 -6.21625 -51.4472C32.3442 -14.4878 76.0847 4.78424 123.774 5.82776C169.221 6.82333 219.653 -8.68335 273.669 -40.2698C302.516 -57.1123 331.694 -77.711 359.91 -97.6315C449.333 -160.763 533.79 -220.406 616.287 -177.231C642.002 -163.778 665.002 -140.738 682.799 -110.606C694.237 -91.2539 706.995 -67.0452 720.722 -38.6486C774.08 71.7545 883.387 106.284 1045.6 64.0046C1079.07 55.2774 1111.33 44.2029 1142.53 33.4914C1239.26 0.283661 1322.79 -28.3915 1389.69 30.5754C1414.3 52.2724 1438.32 77.3832 1465.28 109.591C1563.56 227.029 1641.38 195.465 1710.03 167.624C1718.53 164.176 1726.55 160.924 1734.65 157.917L1735.44 160.059C1727.38 163.052 1719.37 166.299 1710.9 169.738C1641.52 197.877 1562.88 229.774 1463.52 111.057C1436.64 78.9359 1412.7 53.9074 1388.18 32.288C1322.28 -25.8067 1239.32 2.67435 1143.27 35.6514C1112.03 46.3744 1079.73 57.4626 1046.17 66.2104C981.705 83.0141 925.508 87.7499 877.798 80.4795C804.562 69.3227 751.3 29.8721 718.662 -37.6553C704.965 -65.9971 692.236 -90.1511 680.83 -109.444C663.248 -139.21 640.563 -161.951 615.225 -175.208C533.979 -217.732 450.063 -158.485 361.226 -95.7637C332.968 -75.8158 303.749 -55.1851 274.818 -38.297C220.432 -6.49811 169.598 9.11816 123.722 8.11118C115.721 7.93536 107.827 7.25262 100.053 6.0675Z" fill="#EFEFEF"/>
<path d="M94.7399 -1.18213C53.1692 -7.51862 14.7892 -27.2496 -20.1877 -60.3683C-176.138 -208.041 -293.137 -300.406 -294.302 -301.321L-292.888 -303.116C-291.723 -302.2 -174.649 -209.777 -18.6163 -62.0283C58.9065 11.3858 153.47 18.3159 262.443 -41.4273C292.736 -58.0095 323.318 -78.8503 352.893 -99.0037C441.651 -159.491 525.492 -216.625 606.968 -172.233C632.469 -158.343 654.689 -135.806 673.016 -105.253C684.74 -85.7233 697.482 -61.5557 710.889 -33.4217C762.735 75.3968 867.442 101.896 1040.43 49.9664C1068.78 41.4538 1096.54 31.5095 1123.39 21.8918C1225.86 -14.8164 1314.37 -46.5239 1382.67 17.0806C1406.53 39.3097 1430.22 64.6784 1457.2 96.9157C1503.38 152.094 1548.55 181.311 1595.33 186.257C1637.14 190.673 1676.84 175.723 1715.23 161.267C1719.13 159.796 1723.04 158.326 1726.95 156.874L1727.75 159.015C1723.84 160.465 1719.94 161.936 1716.04 163.404C1677.4 177.954 1637.44 193 1595.09 188.524C1547.65 183.505 1502.02 154.028 1455.45 98.3793C1428.53 66.2197 1404.91 40.9149 1381.11 18.7498C1313.84 -43.9071 1225.94 -12.4211 1124.16 24.0405C1097.28 33.6673 1069.5 43.623 1041.08 52.1539C983.847 69.3343 914.59 84.9141 851.671 75.326C794.051 66.544 741.75 36.6563 708.824 -32.4421C695.452 -60.5099 682.744 -84.6136 671.056 -104.08C652.942 -134.28 631.011 -156.534 605.872 -170.23C525.619 -213.953 442.341 -157.199 354.177 -97.1199C324.558 -76.9345 293.928 -56.0618 263.537 -39.4248C202.692 -6.06638 146.266 6.67053 94.7399 -1.18213Z" fill="#EFEFEF"/>
<path d="M90.4738 -8.05289C46.2217 -14.7981 4.87024 -35.9243 -32.5756 -70.9427C-185.746 -214.177 -295.95 -332.752 -297.044 -333.933L-295.37 -335.486C-294.276 -334.305 -184.125 -215.787 -31.0157 -72.6073C49.0401 2.26132 143.999 12.3563 251.218 -42.585C282.915 -58.8064 314.854 -79.8138 345.74 -100.129C433.882 -158.108 517.135 -212.868 597.645 -167.237C622.556 -153.116 644.622 -130.46 663.23 -99.8987C675.236 -80.1928 687.963 -56.0685 701.055 -28.1971C729.556 32.4915 774.809 64.8954 839.429 70.9122C889.855 75.5932 950.25 64.8064 1035.25 35.9326C1058.17 28.1461 1080.91 19.5833 1102.89 11.3036C1156.34 -8.82468 1206.82 -27.8364 1252.86 -33.3531C1304.66 -39.5594 1343.68 -27.8227 1375.64 3.58569C1398.95 26.4906 1421.61 51.3662 1449.12 84.2382C1551.25 206.275 1622.38 191.815 1719.25 155.826L1720.05 157.967C1674.3 174.961 1632.92 188.515 1589.72 182.208C1589.41 182.165 1589.1 182.117 1588.8 182.071C1541.28 174.826 1496.31 144.18 1447.37 85.7019C1419.91 52.8892 1397.29 28.0639 1374.04 5.21149C1305.19 -62.4438 1211.82 -27.2815 1103.7 13.4386C1081.7 21.7252 1058.94 30.2971 1035.99 38.0904C950.671 67.0761 889.983 77.8995 839.222 73.1819C773.724 67.0944 727.866 34.2543 698.992 -27.229C685.937 -55.025 673.249 -79.0786 661.286 -98.7159C642.879 -128.937 621.09 -151.324 596.521 -165.25C517.226 -210.201 434.542 -155.808 346.999 -98.2227C316.062 -77.8706 284.068 -56.8289 252.262 -40.5527C198.483 -12.9965 146.943 -1.68216 99.0707 -6.92715C96.1951 -7.23999 93.3265 -7.61676 90.4738 -8.05289Z" fill="#EFEFEF"/>
<path d="M86.9906 -14.4785C86.9243 -14.4877 86.8672 -14.4968 86.801 -14.5082C39.888 -21.6987 -4.44403 -44.2429 -44.9641 -81.5082C-195.063 -220.593 -298.723 -365.095 -299.753 -366.538L-297.894 -367.862C-296.866 -366.421 -193.331 -222.103 -43.4133 -83.1866C-3.23578 -46.2363 40.692 -23.8862 87.1482 -16.7643C87.2075 -16.7551 87.276 -16.746 87.3354 -16.7368C135.662 -9.37054 187.017 -18.454 239.999 -43.7428C273.06 -59.503 306.31 -80.6108 338.466 -101.027C426.043 -156.623 508.764 -209.142 588.326 -162.236C612.646 -147.901 634.556 -125.128 653.449 -94.5465C665.703 -74.7242 678.411 -50.6433 691.224 -22.9706C719.424 37.9555 765.141 68.2199 830.974 69.5557C892.233 70.8002 962.876 47.386 1030.09 21.8986C1047.13 15.4388 1064.22 8.62048 1080.75 2.02597C1191.89 -42.3157 1296.88 -84.2027 1368.62 -9.90945C1396.66 19.1333 1420.97 47.571 1441.05 71.5605C1490.4 130.537 1534.1 162.81 1578.58 173.134C1621.26 183.044 1662.61 172.962 1711.56 154.777L1712.35 156.919C1663.02 175.246 1621.3 185.396 1578.06 175.356C1533.08 164.916 1488.99 132.398 1439.3 73.0242C1419.25 49.0666 1394.98 20.6678 1366.98 -8.32477C1296.31 -81.5151 1192.01 -39.9067 1081.59 4.14496C1065.06 10.7418 1047.95 17.5623 1030.9 24.0313C963.474 49.5987 892.58 73.0882 830.931 71.8369C764.129 70.4896 717.759 39.78 689.155 -22.0115C676.383 -49.6021 663.716 -73.6031 651.51 -93.3477C632.814 -123.61 611.166 -146.127 587.171 -160.272C508.807 -206.461 426.664 -154.315 339.692 -99.0997C307.479 -78.6494 274.169 -57.5027 240.986 -41.6809C187.586 -16.1957 135.772 -7.04376 86.9906 -14.4785Z" fill="#EFEFEF"/>
<path d="M84.0213 -20.3608C80.826 -20.8471 77.6467 -21.402 74.472 -22.0254C28.1757 -31.1133 -16.1769 -54.6828 -57.3502 -92.0783C-204.69 -226.658 -301.473 -397.424 -302.433 -399.134L-300.441 -400.253C-299.484 -398.545 -202.872 -228.09 -55.8131 -93.768C-14.955 -56.6579 29.0276 -33.2712 74.9128 -24.2654C124.226 -14.602 175.997 -21.5276 228.773 -44.8983C263.163 -60.1104 297.685 -81.2617 331.072 -101.714C418.131 -155.048 500.366 -205.427 579.008 -157.238C602.722 -142.706 624.479 -119.813 643.669 -89.192C655.987 -69.5455 668.677 -45.508 681.392 -17.744C741.227 113.916 872.373 71.7477 1024.92 7.86911C1035.48 3.44843 1046 -1.03165 1056.47 -5.4957C1175.37 -56.151 1287.67 -103.993 1361.59 -23.4023C1388.04 5.42813 1411.36 33.0598 1432.98 58.8852C1528.62 173.161 1591.9 195.331 1703.86 153.734L1704.66 155.876C1646.99 177.299 1605.66 181.075 1566.42 168.501C1524.19 154.967 1482.5 121.608 1431.23 60.3489C1409.63 34.5417 1386.33 6.93518 1359.91 -21.861C1287.08 -101.26 1175.5 -53.7237 1057.37 -3.39725C1046.89 1.06454 1036.37 5.54916 1025.81 9.96985C956.597 38.9555 883.894 67.5074 822.601 70.5717C809.308 71.2385 796.812 70.6836 785.121 68.9002C736.865 61.5499 702.073 33.2676 679.32 -16.7986C666.648 -44.4691 654.007 -68.4198 641.742 -87.9818C622.739 -118.301 601.233 -140.948 577.824 -155.292C500.361 -202.749 418.709 -152.728 332.265 -99.7665C298.814 -79.2752 264.225 -58.0851 229.698 -42.8067C179.88 -20.7489 130.921 -13.2137 84.0213 -20.3608Z" fill="#EFEFEF"/>
<path d="M81.6027 -25.7426C75.0888 -26.7358 68.6023 -28.0009 62.1455 -29.5467C16.587 -40.4295 -27.7862 -65.0242 -69.7383 -102.65C-214.312 -232.716 -304.203 -429.738 -305.093 -431.713L-303.013 -432.652C-302.122 -430.681 -212.421 -234.084 -68.2149 -104.349C-26.5483 -66.9788 17.4891 -42.5599 62.6754 -31.7639C112.918 -19.7554 165.025 -24.5689 217.552 -46.049C253.232 -60.6332 288.99 -81.7707 323.568 -102.21C410.153 -153.39 491.943 -201.732 569.687 -152.235C592.792 -137.527 614.389 -114.513 633.885 -83.8349C646.52 -63.9555 659.196 -39.9614 671.559 -12.5147C688.397 25.0178 711.559 48.8932 742.369 60.4724C814.918 87.741 919.044 40.0016 1019.76 -6.16226L1029.41 -10.5944C1090.72 -38.7329 1154.1 -67.8305 1210.04 -78.2132C1272.87 -89.8769 1320.15 -76.359 1354.56 -36.8925C1376.2 -12.0809 1395.48 11.009 1414.13 33.3317L1424.9 46.2124C1478.16 109.858 1517.26 143.749 1555.63 159.529C1596.25 176.235 1638.28 174.193 1696.16 152.69L1696.95 154.832C1638.49 176.55 1595.97 178.587 1554.76 161.639C1516.02 145.708 1476.66 111.625 1423.14 47.6761L1412.37 34.7953C1393.74 12.4772 1374.46 -10.6012 1352.84 -35.3945C1318.53 -74.7401 1273.29 -87.6277 1210.46 -75.9709C1154.8 -65.6384 1091.54 -36.6002 1030.37 -8.51877L1020.71 -4.08893C919.572 42.2736 814.993 90.2093 741.561 62.6074C710.149 50.7998 686.572 26.5317 669.474 -11.5831C657.154 -38.9293 644.533 -62.8298 631.955 -82.6133C612.642 -113.008 591.277 -135.785 568.46 -150.312C491.888 -199.063 410.697 -151.061 324.73 -100.246C290.082 -79.7659 254.251 -58.5872 218.415 -43.9391C172.181 -25.0301 126.255 -18.9357 81.6027 -25.7426Z" fill="#EFEFEF"/>
<path d="M79.6292 -30.6452C56.0608 -34.237 32.6591 -41.343 9.50418 -51.954C-47.424 -78.0558 -134.154 -140.973 -224.01 -292.489C-277.709 -383.04 -307.446 -463.478 -307.738 -464.282L-305.596 -465.067C-305.301 -464.266 -275.623 -383.992 -222.023 -293.619C-172.595 -210.279 -92.1398 -101.061 10.4612 -54.0274C74.4331 -24.7037 140.333 -22.4066 206.328 -47.2068C243.267 -61.0854 280.224 -82.1568 315.962 -102.536C390.445 -145.006 460.798 -185.111 528.388 -162.892C579.129 -146.204 622.744 -95.307 661.724 -7.29041C677.856 29.1324 699.992 51.9779 729.399 62.5479C798.984 87.5787 895.91 39.1131 998.533 -12.1769C1130.83 -78.307 1267.64 -146.684 1347.53 -50.3899C1359.07 -36.4907 1370 -23.1807 1380.44 -10.4826C1440.9 63.0959 1484.58 116.254 1529.76 144.591C1576.09 173.647 1623.55 175.76 1688.46 151.642L1689.25 153.784C1649.41 168.587 1616.52 173.252 1586.9 168.74C1515.85 157.917 1463.55 94.2577 1378.67 -9.03265C1368.24 -21.7307 1357.31 -35.0362 1345.78 -48.9331C1267.03 -143.832 1131.05 -75.8614 999.552 -10.1356C906.594 36.3274 818.273 80.4681 750.116 70.0854C742.705 68.9551 735.542 67.1832 728.629 64.6989C698.604 53.9052 676.036 30.6599 659.637 -6.36792C620.932 -93.7588 577.765 -144.247 527.675 -160.722C461.04 -182.636 391.125 -142.768 317.097 -100.554C281.279 -80.1314 244.245 -59.0121 207.135 -45.0695C164.429 -29.024 121.764 -24.222 79.6292 -30.6452Z" fill="#EFEFEF"/>
</g>
</svg>
