<svg width="55" height="55" viewBox="0 0 55 55" fill="none" xmlns="http://www.w3.org/2000/svg">
<g clip-path="url(#clip0)">
<path d="M49.2001 2.67212H13.6352C10.5487 2.67212 8.0375 5.15978 8.0375 8.20761L7.80831 39.5243H0.867638C0.375759 39.5243 0 39.9592 0 40.4511V44.7611C0 48.7957 3.22874 52.0953 7.12551 52.2762V52.328H37.0749V52.2697C37.2976 52.2788 37.4324 52.328 37.5855 52.328H37.6068C41.7628 52.3036 45.1128 48.9161 45.0911 44.7602V17.3685H54.1324C54.6242 17.3685 55 16.9231 55 16.4317V8.52378C55.0057 5.30983 52.414 2.69517 49.2001 2.67212V2.67212ZM7.51518 50.5466H7.50909C4.3408 50.5466 1.78138 47.928 1.78138 44.7602V41.3057H30.0607V44.7454C30.0538 46.7503 30.8457 48.6752 32.2614 50.0947C32.4118 50.2461 32.5693 50.3239 32.7302 50.5466H7.51518ZM43.3097 44.7593C43.3097 47.928 40.7751 50.5466 37.6055 50.5466H37.5872C34.402 50.5236 31.8347 47.9311 31.8421 44.7458V40.4511C31.8447 39.9523 31.4503 39.5417 30.9514 39.5243H9.58969L9.81888 8.2137C9.81888 6.14224 11.5307 4.4535 13.6352 4.4535H44.995C43.9799 5.56686 43.3097 6.97552 43.3097 8.5477V44.7593ZM53.2186 8.53944V15.5871H45.0911V8.54596C45.0911 6.31663 46.9455 4.4535 49.174 4.4535H49.1988C51.4329 4.47568 53.2291 6.29837 53.2186 8.53292V8.53944Z" fill="#4A90E2"/>
<path d="M37.0748 30.2832H15.6983C15.2064 30.2832 14.8076 30.682 14.8076 31.1739C14.8076 31.6658 15.2064 32.0646 15.6983 32.0646H37.0748C37.5667 32.0646 37.9655 31.6658 37.9655 31.1739C37.9655 30.682 37.5667 30.2832 37.0748 30.2832Z" fill="#4A90E2"/>
<path d="M37.0748 34.4028H15.6983C15.2064 34.4028 14.8076 34.8016 14.8076 35.2935C14.8076 35.7854 15.2064 36.1842 15.6983 36.1842H37.0748C37.5667 36.1842 37.9655 35.7854 37.9655 35.2935C37.9655 34.8016 37.5667 34.4028 37.0748 34.4028Z" fill="#4A90E2"/>
<path fill-rule="evenodd" clip-rule="evenodd" d="M32.9359 13.3898C33.273 13.6305 33.3511 14.0989 33.1103 14.436L25.6103 24.936C25.4763 25.1236 25.2635 25.2391 25.0331 25.2493C24.8028 25.2595 24.5806 25.1632 24.4306 24.9882L21.4306 21.4882C21.161 21.1737 21.1974 20.7002 21.5119 20.4306C21.8264 20.161 22.2999 20.1975 22.5695 20.512L24.9463 23.2849L31.8897 13.5641C32.1305 13.2271 32.5989 13.149 32.9359 13.3898Z" fill="#4A90E2" stroke="#4A90E2" stroke-width="1.5" stroke-linecap="round" stroke-linejoin="round"/>
</g>
<defs>
<clipPath id="clip0">
<rect width="55" height="55" fill="white"/>
</clipPath>
</defs>
</svg>
