<svg width="38" height="38" viewBox="0 0 38 38" fill="none" xmlns="http://www.w3.org/2000/svg">
<circle cx="19" cy="19" r="19"/>
<path d="M24.4659 16.818L16.2585 25.6549L13.4332 25.9914C12.6143 26.089 11.9173 25.3453 12.008 24.4569L12.3205 21.4148L20.5279 12.578C21.2436 11.8073 22.4 11.8073 23.1126 12.578L24.4628 14.0317C25.1785 14.8023 25.1785 16.0508 24.4659 16.818ZM21.378 17.8578L19.5621 15.9027L13.7551 22.1585L13.5269 24.3559L15.5678 24.1103L21.378 17.8578ZM23.4033 15.1758L22.0531 13.7221C21.925 13.5841 21.7156 13.5841 21.5905 13.7221L20.6248 14.7619L22.4407 16.7171L23.4064 15.6772C23.5314 15.5359 23.5314 15.3138 23.4033 15.1758Z" fill="#4A90E2"/>
</svg>
