<svg width="14" height="14" viewBox="0 0 14 14" fill="none" xmlns="http://www.w3.org/2000/svg">
<g clip-path="url(#clip0)">
<path d="M9.66794 4.82633L8.57206 4.78613L8.33447 11.2744L9.43035 11.3144L9.66794 4.82633Z" fill="#414141"/>
<path d="M7.54825 4.80664H6.45166V11.2949H7.54825V4.80664Z" fill="#414141"/>
<path d="M5.66502 11.2744L5.42743 4.78613L4.33154 4.82636L4.56916 11.3146L5.66502 11.2744Z" fill="#414141"/>
<path d="M0.475098 2.10156V3.19816H1.61777L2.52427 13.4995C2.54912 13.7826 2.78619 13.9997 3.07037 13.9997H10.9109C11.1951 13.9997 11.4324 13.7824 11.457 13.4993L12.3636 3.19816H13.5247V2.10156H0.475098ZM10.4087 12.9031H3.57246L2.71857 3.19816H11.2628L10.4087 12.9031Z" fill="#414141"/>
<path d="M8.791 0H5.20875C4.70486 0 4.29492 0.409937 4.29492 0.913828V2.65013H5.39151V1.09659H8.60823V2.65013H9.70482V0.913828C9.70482 0.409937 9.29489 0 8.791 0Z" fill="#414141"/>
</g>
<defs>
<clipPath id="clip0">
<rect width="14" height="14" fill="white"/>
</clipPath>
</defs>
</svg>
