<svg width="13" height="13" viewBox="0 0 13 13" fill="none" xmlns="http://www.w3.org/2000/svg">
<path d="M8.22976 9.38776L5.57072 12.0473C4.29997 13.3181 2.24055 13.3176 0.969258 12.0473C-0.300951 10.7766 -0.300951 8.71718 0.969258 7.44643L3.62938 4.78684L4.39638 5.5533L1.73626 8.21289C0.891258 9.05897 0.891258 10.4348 1.73626 11.2803C2.58234 12.1259 3.95817 12.1259 4.80372 11.2803L7.4633 8.62076L8.22976 9.38776ZM7.4633 0.952927L4.77988 3.63634L5.54688 4.40334L8.2303 1.71939C9.07638 0.873844 10.4522 0.873844 11.2978 1.71939C12.1433 2.56493 12.1433 3.94076 11.2978 4.7863L8.6138 7.47026L9.38134 8.23726L12.0653 5.5533C13.335 4.28309 13.335 2.22314 12.0653 0.952386C10.794 -0.317823 8.73405 -0.317281 7.4633 0.952927Z" fill="#414141"/>
</svg>
