<svg width="59" height="45" viewBox="0 0 59 45" fill="none" xmlns="http://www.w3.org/2000/svg">
<path d="M56.3633 12.1041L33.1234 0.751288C31.12 -0.250429 27.7142 -0.250429 25.7107 0.751288L1.93665 12.1041C0.267125 12.9055 0 14.0407 0 14.6418C0 15.2428 0.267125 16.3113 1.93665 17.1794L3.87331 18.1144V28.7994C2.67125 29.2668 1.80309 30.4689 1.80309 31.8045C1.80309 33.1401 2.67125 34.3422 3.80652 34.8097L0.801374 44.3594H9.2158L6.21065 34.8097C7.41271 34.3422 8.21408 33.1401 8.21408 31.8045C8.21408 30.4021 7.34592 29.2668 6.14386 28.7994V19.2497L9.68326 20.986V34.8764C9.68326 35.0768 9.75005 35.2771 9.88361 35.4775C10.2175 35.8782 16.4282 44.3594 29.1166 44.3594C41.805 44.3594 48.0156 35.8114 48.2828 35.4775C48.4163 35.2771 48.4831 35.0768 48.4831 34.8764V21.0528L56.3633 17.1794C58.0328 16.3781 58.2999 15.2428 58.2999 14.6418C58.2332 14.0407 58.0328 12.9055 56.3633 12.1041ZM46.3461 34.5425C45.2776 35.8782 39.5344 42.2891 29.1166 42.2891C18.6987 42.2891 12.9555 35.8782 11.887 34.5425V21.9209L25.7107 28.5322C26.7125 28.9997 28.0481 29.2668 29.3837 29.2668C30.7861 29.2668 32.1217 28.9997 33.1234 28.4655L46.3461 21.9877V34.5425ZM55.4283 15.3096L47.4146 19.2497C47.0807 19.2497 46.8136 19.3832 46.68 19.6503L32.1885 26.6624C30.7861 27.397 28.0481 27.397 26.5789 26.6624L8.74833 18.1144L29.2501 15.7103C29.8512 15.6435 30.2519 15.1092 30.1851 14.575C30.1183 13.974 29.584 13.5733 29.0498 13.64L5.27571 16.4449L2.87159 15.3096C2.27056 15.0424 2.137 14.7085 2.137 14.7085C2.137 14.6418 2.27056 14.3746 2.87159 14.1075L26.6457 2.68794C27.3803 2.35403 28.382 2.15369 29.3837 2.15369C30.4522 2.15369 31.5207 2.35403 32.1885 2.68794L55.4283 14.0407C56.0294 14.3079 56.1629 14.575 56.1629 14.7085C56.1629 14.7085 55.9626 15.0424 55.4283 15.3096Z" fill="#4A90E2"/>
</svg>
