<svg width="35" height="48" viewBox="0 0 35 48" fill="none" xmlns="http://www.w3.org/2000/svg">
<path d="M23.3697 22.4123L23.3697 22.4123C21.7451 23.985 19.6172 24.7659 17.4996 24.7659C15.3825 24.7659 13.2539 23.9851 11.6298 22.4123C8.37065 19.2567 8.37065 14.1107 11.6296 10.9549L23.3697 22.4123ZM23.3697 22.4123C26.6289 19.2567 26.6289 14.1105 23.3697 10.9547L23.3697 10.9547M23.3697 22.4123L23.3697 10.9547M23.3697 10.9547C21.7977 9.43289 19.7095 8.59756 17.4996 8.59756C15.29 8.59756 13.2013 9.43243 11.6298 10.9547L23.3697 10.9547ZM17.5057 46.4433C17.0432 45.8908 16.3931 45.1017 15.6167 44.1259C14.0183 42.1168 11.889 39.3212 9.7617 36.1719C7.63225 33.0194 5.51762 29.5313 3.93872 26.1353C2.35055 22.7194 1.34961 19.491 1.34961 16.8315C1.34961 8.25718 8.56484 1.2251 17.4996 1.2251C26.4347 1.2251 33.6496 8.25717 33.6496 16.8315C33.6496 19.344 32.6548 22.4983 31.0667 25.8946C29.4897 29.267 27.3777 32.775 25.251 35.9647C23.1265 39.1511 21.0001 42.001 19.4039 44.0553C18.6221 45.0614 17.9684 45.8755 17.5057 46.4433Z" stroke="#4A90E2" stroke-width="2" stroke-linecap="round" stroke-linejoin="round"/>
</svg>
