<svg width="53" height="45" viewBox="0 0 53 45" fill="none" xmlns="http://www.w3.org/2000/svg">
<path d="M52.1167 5.71821H48.5833V1.30154C48.5851 0.813721 48.191 0.416774 47.7031 0.415117C47.6773 0.415007 47.6515 0.416111 47.6258 0.418209L45.3212 0.612542C39.7324 1.07475 34.2509 2.41134 29.0767 4.57341L26.5 5.64489L23.926 4.57694C18.7512 2.41454 13.269 1.07773 7.6797 0.615192L5.3742 0.418209C4.88804 0.377244 4.46072 0.738086 4.41976 1.22425C4.41755 1.24998 4.41656 1.27582 4.41667 1.30154V5.71821H0.883333C0.395512 5.71821 0 6.11372 0 6.60154V43.7015C0 44.1894 0.395512 44.5849 0.883333 44.5849H52.1167C52.6045 44.5849 53 44.1894 53 43.7015V6.60154C53 6.11372 52.6045 5.71821 52.1167 5.71821ZM1.76667 42.82V7.48487H4.41667V38.4015C4.41501 38.8615 4.76658 39.2458 5.22492 39.2849L7.60197 39.488C8.24978 39.5423 8.89749 39.6091 9.5453 39.6886C9.76172 39.7142 9.97637 39.7486 10.1928 39.7769C10.6212 39.8343 11.0496 39.8917 11.4763 39.9597C11.7307 40.0004 11.9842 40.0481 12.2377 40.0931C12.6246 40.1611 13.0115 40.2292 13.3966 40.3051C13.6616 40.3581 13.9266 40.4164 14.1916 40.4738C14.5635 40.5533 14.9354 40.6346 15.3055 40.7229C15.5705 40.7865 15.8399 40.8546 16.1067 40.9226C16.4715 41.0162 16.8354 41.1116 17.1985 41.2123C17.4635 41.2865 17.7285 41.3642 17.9935 41.442C18.3539 41.5485 18.7134 41.6593 19.072 41.7741C19.3347 41.8577 19.5968 41.9437 19.8582 42.032C20.2195 42.1531 20.5781 42.2803 20.9368 42.4101C21.1912 42.4984 21.4465 42.5947 21.6991 42.691C21.8086 42.7325 21.9173 42.7793 22.0259 42.82H1.76667ZM25.6167 42.3765L23.9878 41.6964C18.817 39.53 13.3381 38.1887 7.75125 37.7214L6.18333 37.5906V2.26261L7.5313 2.37568C12.938 2.82242 18.2409 4.11518 23.2467 6.20669L25.6167 7.19072V42.3765ZM27.3833 42.3765V7.19072L29.756 6.20581C34.7608 4.11474 40.0629 2.82231 45.4687 2.37568L46.8167 2.26261V37.588L45.3653 37.7064C39.7751 38.1704 34.2913 39.5038 29.112 41.6584L27.3833 42.3765ZM51.2333 42.8182H30.9873C31.1084 42.7714 31.2285 42.7219 31.3495 42.676C31.6145 42.5744 31.8795 42.4781 32.1507 42.3818C32.4969 42.2564 32.8447 42.1348 33.1939 42.017C33.466 41.9287 33.7398 41.8404 34.0128 41.752C34.3617 41.6407 34.7123 41.5347 35.063 41.4305C35.3386 41.3492 35.6151 41.2688 35.8916 41.1929C36.2449 41.0939 36.5983 41.0012 36.9604 40.9102C37.2343 40.8404 37.509 40.7706 37.7846 40.7053C38.1521 40.6169 38.5222 40.5374 38.8923 40.4588C39.1573 40.4014 39.4223 40.3422 39.6926 40.2892C40.0813 40.2124 40.4717 40.1444 40.8612 40.0763C41.1139 40.0322 41.3656 39.988 41.6191 39.9438C42.0546 39.8749 42.491 39.8158 42.9282 39.7575C43.1376 39.7301 43.3469 39.6965 43.5572 39.6691C44.205 39.5908 44.856 39.5239 45.5102 39.4686L47.7724 39.2849C48.2318 39.2471 48.5849 38.8624 48.5833 38.4015V7.48487H51.2333V42.8182V42.8182Z" fill="#4A90E2"/>
</svg>
