<svg width="38" height="38" viewBox="0 0 38 38" fill="none" xmlns="http://www.w3.org/2000/svg">
<circle cx="19" cy="14" r="4" stroke="#5E5E5E" stroke-width="2"/>
<path d="M11.2474 27.3415C10.8837 27.7571 10.9259 28.3889 11.3415 28.7526C11.7571 29.1163 12.3889 29.0741 12.7526 28.6585L11.2474 27.3415ZM25.2474 28.6585C25.6111 29.0741 26.2429 29.1163 26.6585 28.7526C27.0741 28.3889 27.1163 27.7571 26.7526 27.3415L25.2474 28.6585ZM12.7526 28.6585L15.2371 25.819L13.732 24.502L11.2474 27.3415L12.7526 28.6585ZM22.7629 25.819L25.2474 28.6585L26.7526 27.3415L24.268 24.502L22.7629 25.819ZM15.2371 25.819C17.2292 23.5424 20.7708 23.5424 22.7629 25.819L24.268 24.502C21.4792 21.3147 16.5208 21.3147 13.732 24.502L15.2371 25.819Z" fill="#5E5E5E"/>
</svg>
