<svg width="28" height="28" viewBox="0 0 28 28" fill="none" xmlns="http://www.w3.org/2000/svg">
<path d="M14 0C6.268 0 0 6.268 0 14C0 21.7319 6.268 27.9999 14 27.9999C21.7319 27.9999 27.9999 21.7319 27.9999 14C27.9917 6.27146 21.7285 0.00826171 14 0ZM21.707 9.70698L11.707 19.707C11.3164 20.0974 10.6834 20.0974 10.293 19.707L6.29296 15.707C5.8957 15.3233 5.88468 14.6903 6.26835 14.293C6.65203 13.8957 7.28507 13.8847 7.68234 14.2684C7.69066 14.2765 7.69886 14.2846 7.70695 14.293L11 17.586L20.293 8.293C20.6903 7.90933 21.3233 7.92035 21.707 8.31755C22.0813 8.70509 22.0813 9.31945 21.707 9.70698Z" fill="#4A90E2"/>
</svg>
