<svg width="39" height="55" viewBox="0 0 39 55" fill="none" xmlns="http://www.w3.org/2000/svg">
<path d="M19.5 0C8.74778 0 0 8.57629 0 19.1177C0 32.3672 19.5192 55 19.5192 55C19.5192 55 39 31.7156 39 19.1177C39 8.57629 30.2526 0 19.5 0ZM25.3836 24.7154C23.7612 26.3056 21.6308 27.1009 19.5 27.1009C17.3696 27.1009 15.2384 26.3056 13.6168 24.7154C10.3725 21.5351 10.3725 16.36 13.6168 13.1793C15.1877 11.6385 17.2774 10.7899 19.5 10.7899C21.7226 10.7899 23.8119 11.6388 25.3836 13.1793C28.6278 16.36 28.6278 21.5351 25.3836 24.7154Z" fill="#DF054E"/>
</svg>
