<svg width="229" height="183" viewBox="0 0 229 183" fill="none" xmlns="http://www.w3.org/2000/svg">
<path d="M62.1539 157.492L88.1464 106.512L103.194 111.94L120.857 72.7746L138.542 79.3088L161.595 25.8075L171.241 29.2791V0.281738L143.611 20.498L152.885 23.357L129.706 57.8673L109.432 47.8615L82.8254 85.5421L60.9259 74.6707L11.0476 157.492H62.1539Z" fill="#F2F2F2"/>
<path d="M9.71989 181.953C4.39221 181.953 0.057373 177.628 0.057373 172.312V77.4439C0.057373 72.1283 4.39221 67.8032 9.71989 67.8032H51.2165C56.5441 67.8032 60.8796 72.1283 60.8796 77.4439V172.312C60.8796 177.629 56.5441 181.953 51.2165 181.953H9.71989Z" fill="#707070"/>
<path d="M14.4624 181.953C9.13416 181.953 4.79932 177.628 4.79932 172.312V77.4439C4.79932 72.1283 9.13416 67.8032 14.4624 67.8032H55.959C61.2867 67.8032 65.6222 72.1283 65.6222 77.4439V172.312C65.6222 177.629 61.2867 181.953 55.959 181.953H14.4624Z" fill="url(#paint0_linear)"/>
<path d="M55.959 70.7297H46.3112C45.7997 70.7297 45.3485 71.0618 45.1974 71.5482L44.751 72.9823C44.503 73.7799 43.7637 74.3239 42.9262 74.3239H27.494C26.6571 74.3239 25.9172 73.7799 25.6691 72.9823L25.2228 71.5482C25.0717 71.0612 24.6204 70.7297 24.109 70.7297H14.4612C10.7446 70.7297 7.73236 73.7358 7.73236 77.4434V172.312C7.73236 176.02 10.7453 179.026 14.4612 179.026H55.9578C59.6743 179.026 62.6866 176.02 62.6866 172.312V77.444C62.6884 73.7358 59.6755 70.7297 55.959 70.7297Z" fill="#37383E"/>
<path d="M39.4891 72.0468H30.933C30.6764 72.0468 30.4688 71.8391 30.4688 71.5836C30.4688 71.3276 30.6764 71.1199 30.933 71.1199H39.4891C39.7457 71.1199 39.9533 71.3276 39.9533 71.5836C39.9533 71.8391 39.7457 72.0468 39.4891 72.0468Z" fill="#292E4A"/>
<path d="M2.15909 87.0234V101.17" stroke="white" stroke-opacity="0.31" stroke-width="1.4467" stroke-miterlimit="10" stroke-linecap="round" stroke-linejoin="round"/>
<path d="M2.15909 105.585V112.194" stroke="white" stroke-opacity="0.31" stroke-width="1.4467" stroke-miterlimit="10" stroke-linecap="round" stroke-linejoin="round"/>
<path d="M134.879 177.556L146.087 113.569H228.842L217.633 177.556H134.879Z" fill="url(#paint1_linear)"/>
<path d="M215.364 174.853H138.112L148.356 116.271H225.609L215.364 174.853Z" fill="#37383E"/>
<path d="M217.96 177.556H80.1303V182.17H217.96V177.556Z" fill="url(#paint2_linear)"/>
<path d="M143.448 177.556H80.1303V182.17H143.448V177.556Z" fill="#BBBBBB"/>
<path d="M217.961 177.556H80.1303" stroke="#828282" stroke-width="0.9823" stroke-miterlimit="10"/>
<path d="M197.082 161.29C197.082 161.29 197.952 163.69 197.645 164.864C197.338 166.038 196.417 167.059 196.365 168.795C196.315 170.531 196.482 173.594 197.038 173.696C197.593 173.798 197.213 171.398 197.711 171.194C198.208 170.99 199.897 174.722 199.897 174.722H204.911C204.911 174.722 203.172 163.945 202.916 162.107C202.66 160.27 197.082 161.29 197.082 161.29Z" fill="#F9B989"/>
<path d="M111.89 132.497C111.89 132.497 103.805 131.834 101.759 131.324C99.712 130.813 94.3395 132.497 94.3395 132.497L103.342 139.893C103.342 139.893 105.596 138.482 108.052 138.068C110.508 137.654 112.197 137.807 112.197 137.807L111.89 132.497Z" fill="#F9B989"/>
<path d="M146.522 86.2812C146.421 88.309 145.875 93.3642 146.189 95.7081C146.503 98.052 147.731 99.6901 150.177 99.3115C152.623 98.9329 154.799 109.245 154.799 109.245L160.058 110.029L163.857 104.274L160.303 97.9625C160.303 97.9625 162.877 90.9947 161.534 86.9061C160.19 82.8175 150.463 79.6068 146.816 80.9411C143.17 82.2747 146.522 86.2812 146.522 86.2812Z" fill="#F9B989"/>
<path d="M151.691 103.667L157.735 106.053L159.014 108.81V105.288L163.528 100.54L164.719 103.143L176.769 150.774H158.81L148.295 108.81L151.442 106.742L151.691 103.667Z" fill="#8D7EE1"/>
<path d="M186.63 174.722H149.956L156.814 150.774H184.667L186.63 174.722Z" fill="white"/>
<path d="M151.442 106.742C153.232 111.618 161.291 145.515 162.532 150.11C163.773 154.704 164.489 167.365 164.489 167.365C164.489 167.365 153.846 167.569 151.442 167.365C149.037 167.161 152.209 152.459 152.107 149.089C152.004 145.72 145.557 128.26 145.557 128.26C145.557 128.26 133.482 138.777 131.64 138.981C129.798 139.185 110.764 138.47 110.764 138.47V131.834C110.764 131.834 126.728 130.915 128.468 129.996C130.207 129.077 140.748 116.927 143.306 113.864C145.864 110.801 148.218 106.87 151.442 106.742Z" fill="#6470B5"/>
<path d="M141.694 120.756C140.313 120.909 138.855 129.639 137.089 132.166C135.967 133.772 134.351 136.243 133.38 138.068C137.269 135.477 145.557 128.261 145.557 128.261C144.764 126.423 143.076 120.603 141.694 120.756Z" fill="#495285"/>
<path d="M196.668 162.748H203.632L200.891 147.413C200.007 141.755 198.186 136.286 195.497 131.226C190.94 122.648 183.829 109.825 180.914 107.585C178.991 106.107 170.322 102.837 164.719 103.143C164.719 103.143 171.09 142.197 172.011 148.324C172.932 154.45 176.769 166.549 176.769 166.549H189.64L186.631 148.97L183.216 132.549L190.486 142.297L196.668 162.748Z" fill="#6470B5"/>
<path d="M183.216 132.549C183.216 132.549 178.841 126.499 177.844 123.13C176.846 119.761 176.309 115.089 176.769 113.788C177.23 112.486 175.695 111.95 175.004 117.54C174.313 123.13 174.313 128.108 177.69 133.621C181.067 139.135 178.688 142.351 181.374 147.252C184.06 152.153 187.505 154.081 187.505 154.081L183.216 132.549Z" fill="#495285"/>
<path d="M142.115 80.3481C143.87 76.5358 148.072 78.8129 152.715 79.3606C157.357 79.9083 161.686 80.4982 163.19 83.7965C164.695 87.0948 162.829 93.8097 160.304 97.9632C160.304 97.9632 158.264 95.4251 158.243 93.6792C158.223 91.9332 160.303 90.8073 159.44 89.1201C158.577 87.433 157.338 88.4989 157.063 89.2243C156.788 89.9502 156.625 90.7142 156.309 90.3319C155.991 89.9496 156.579 88.3874 156.405 87.0856C156.231 85.7838 155.601 83.8535 152.685 84.2946C149.768 84.7357 146.706 84.0832 146.706 84.0832L146.522 86.2813C146.522 86.2813 140.138 84.6401 142.115 80.3481Z" fill="#333B66"/>
<path d="M106.705 68.1003C109.213 65.7369 134.627 67.1177 136.389 68.5978C138.151 70.0785 136.96 80.2448 137.009 84.0448C137.038 86.2692 139.107 90.71 141.735 90.9875C138.707 92.5601 133.885 91.4501 131.474 90.0625C129.063 88.6749 128.289 88.9616 123.715 88.9616C119.141 88.9616 111.857 88.9616 108.848 88.9616C105.84 88.9616 104.954 85.9917 104.954 81.4584C104.954 76.925 105.037 69.6735 106.705 68.1003Z" fill="#AFAFAF"/>
<path d="M96.7141 77.9191C94.8734 76.2126 76.2179 77.2096 74.9244 78.2783C73.6313 79.3475 74.5057 86.6882 74.4692 89.432C74.448 91.0382 72.9295 94.2447 71 94.4451C73.2229 95.5806 76.7624 94.7791 78.5323 93.7772C80.3023 92.7752 80.8702 92.9823 84.228 92.9823C87.5854 92.9823 92.9326 92.9823 95.1411 92.9823C97.3496 92.9823 98 90.8378 98 87.5644C98 84.2911 97.9392 79.0551 96.7141 77.9191Z" fill="#D3D3D3"/>
<path d="M123.158 72.4243C123.708 72.5235 124.192 72.681 124.607 72.8966C125.024 73.1122 125.372 73.3579 125.653 73.6342C125.934 73.9099 126.148 74.2002 126.293 74.5035C126.439 74.8073 126.524 75.091 126.546 75.3568C126.558 75.4892 126.516 75.597 126.42 75.6797C126.325 75.763 126.215 75.804 126.091 75.804H124.911C124.72 75.804 124.577 75.7685 124.481 75.6962C124.386 75.6246 124.298 75.5278 124.22 75.4065C124.052 75.1308 123.796 74.89 123.452 74.686C123.109 74.482 122.601 74.3797 121.927 74.3797C121.634 74.3797 121.356 74.4104 121.092 74.471C120.829 74.5317 120.597 74.6205 120.401 74.7363C120.204 74.8521 120.05 74.993 119.937 75.1584C119.824 75.3244 119.769 75.5118 119.769 75.7214C119.769 75.9756 119.83 76.1827 119.954 76.3425C120.078 76.5024 120.277 76.6403 120.553 76.7567C120.829 76.8731 121.182 76.9803 121.615 77.0795C122.048 77.1794 122.573 77.2952 123.191 77.4275C123.866 77.5708 124.437 77.7399 124.903 77.9329C125.369 78.1259 125.752 78.358 126.049 78.6288C126.347 78.8996 126.561 79.2114 126.691 79.5649C126.819 79.9184 126.884 80.3215 126.884 80.7742C126.884 81.2048 126.799 81.6079 126.631 81.9835C126.462 82.359 126.218 82.6959 125.898 82.9937C125.577 83.292 125.187 83.5407 124.726 83.7392C124.265 83.9377 123.742 84.0756 123.158 84.1534V85.2799C123.158 85.4012 123.113 85.506 123.023 85.5948C122.933 85.683 122.825 85.7272 122.702 85.7272H121.336C121.213 85.7272 121.106 85.683 121.017 85.5948C120.926 85.506 120.881 85.4019 120.881 85.2799V84.1534C120.376 84.0762 119.9 83.9463 119.456 83.7643C119.013 83.5824 118.624 83.3582 118.293 83.0929C117.961 82.8283 117.694 82.5214 117.492 82.174C117.289 81.826 117.177 81.4425 117.155 81.0229C117.142 80.89 117.185 80.7821 117.28 80.7001C117.376 80.6173 117.486 80.5757 117.61 80.5757H118.79C118.981 80.5757 119.127 80.6088 119.228 80.6756C119.329 80.7417 119.414 80.841 119.481 80.9733C119.56 81.1166 119.655 81.2606 119.768 81.4039C119.881 81.5473 120.032 81.6747 120.223 81.785C120.414 81.8953 120.653 81.9865 120.94 82.0582C121.227 82.1305 121.583 82.166 122.011 82.166C122.348 82.166 122.673 82.1409 122.989 82.0913C123.303 82.0417 123.579 81.959 123.815 81.8426C124.052 81.7268 124.242 81.5834 124.389 81.4119C124.534 81.241 124.607 81.0284 124.607 80.7742C124.607 80.5316 124.529 80.3325 124.372 80.1775C124.214 80.0231 123.975 79.8908 123.655 79.7799C123.334 79.6696 122.938 79.5643 122.466 79.465C121.993 79.3652 121.448 79.2384 120.83 79.084C120.268 78.9517 119.776 78.7936 119.355 78.6117C118.933 78.4297 118.585 78.2061 118.309 77.9408C118.034 77.6756 117.829 77.3638 117.694 77.0048C117.559 76.6464 117.492 76.2182 117.492 75.7207C117.492 75.2901 117.576 74.8925 117.744 74.528C117.913 74.1635 118.146 73.8351 118.445 73.5423C118.742 73.2495 119.099 73.0069 119.515 72.8133C119.931 72.6203 120.387 72.4794 120.881 72.3906V71.2646C120.881 71.1433 120.926 71.0385 121.017 70.9497C121.106 70.8615 121.213 70.8174 121.336 70.8174H122.702C122.825 70.8174 122.933 70.8615 123.023 70.9497C123.112 71.0385 123.158 71.1427 123.158 71.2646V72.4243Z" fill="#F2F2F2"/>
<path d="M51.4363 154.756L52.862 179.005H13.6569C13.6569 179.005 14.673 173.597 14.673 169.229C14.673 160.5 19.892 154.756 19.892 154.756H51.4363Z" fill="white"/>
<path d="M39.7034 179.005H52.8614L51.4363 154.756H46.4199L39.7034 179.005Z" fill="#D1D1D1"/>
<path d="M63.537 82.0593C63.537 82.0593 63.1275 87.5728 63.844 88.5426C64.5605 89.5124 64.2904 90.125 63.6322 90.4313C62.974 90.7376 62.9739 95.8425 61.4389 96.2003C59.9039 96.558 58.5734 95.3983 58.011 97.0248C57.448 98.6507 56.732 102.582 56.732 102.582L47.0615 101.918L49.7736 94.771C49.7736 94.771 47.9316 89.4615 49.1596 84.8669C50.3876 80.2723 63.23 77.4647 63.537 82.0593Z" fill="#E39871"/>
<path d="M44.759 99.7742L60.9453 102.049C61.3174 102.102 61.5617 102.466 61.4678 102.829L60.5179 106.513C60.5179 106.513 61.3364 112.23 61.0294 116.519C60.7224 120.807 57.2429 135.714 56.3219 140.308C55.4009 144.903 54.6843 156.236 52.3309 156.339C49.9774 156.441 22.6544 156.339 17.9469 156.339C13.2393 156.339 20.3003 151.54 22.6544 147.353C25.0079 143.167 27.8734 129.077 31.6599 121.011C35.4465 112.945 43.8374 103.909 44.0425 102.148C44.2469 100.387 43.8552 99.6468 44.759 99.7742Z" fill="#DF054E"/>
<path d="M43.3708 116.167C41.6608 114.018 40.7011 114.553 41.6172 118.152C42.5333 121.751 43.6845 124.967 47.0615 127.112C50.11 129.047 50.8456 140.527 55.8153 143.475C55.9854 142.263 56.1506 141.167 56.3225 140.308C57.0759 136.551 59.538 125.904 60.5793 119.8C60.5757 119.801 44.8094 117.975 43.3708 116.167Z" fill="#950032"/>
<path d="M63.9465 120.756C63.9465 120.756 69.7795 128.635 71.6725 129.188C73.5655 129.741 92.4975 131.272 94.1344 131.272C95.7714 131.272 99.507 133.57 100.991 134.284C102.475 134.999 106.363 138.266 104.368 139.441C102.372 140.615 98.8929 140.513 96.8974 139.441C94.902 138.369 93.2644 136.939 91.474 136.939C89.683 136.939 72.1299 137.383 68.2955 136.225C62.974 134.616 54.7157 125.657 53.3704 124.483L63.9465 120.756Z" fill="#E39871"/>
<path d="M92.4588 138.292C92.6123 137.13 92.3821 135.957 94.0706 136.569C95.7591 137.182 97.4857 138.598 98.8291 138.982C100.173 139.365 98.791 140.935 97.7165 140.935C96.642 140.935 92.3041 139.463 92.4588 138.292Z" fill="#F9B989"/>
<path d="M92.2673 132.204C92.2673 132.204 99.2129 130.94 100.979 131.227C102.744 131.514 101.599 132.238 99.5972 132.855C94.9916 134.272 90.3995 133.136 92.2673 132.204Z" fill="#F9B989"/>
<path d="M53.5595 87.8277C53.5595 87.8277 51.7175 85.9899 51.2061 87.8277C50.6946 89.6655 52.7411 91.1971 52.3831 92.2183C52.0251 93.2395 50.4901 97.2215 49.3641 97.0175C48.2386 96.8129 49.6711 94.567 48.3405 92.5246C47.01 90.4827 45.2705 88.0323 46.396 83.4377C47.5214 78.8431 51.1035 80.0683 52.3315 78.3328C53.5595 76.5973 54.5831 74.8611 59.3925 75.3721C64.202 75.8824 66.351 73.0466 68.3981 75.2814C70.4445 77.5162 70.1375 81.6005 65.0211 82.7234C59.9046 83.8463 58.8811 82.3148 57.8066 83.54C56.7321 84.7646 54.8901 87.726 53.5595 87.8277Z" fill="#5C5E74"/>
<path d="M42.2514 114.885L52.2799 126.372L65.1229 121.42C65.1229 121.42 59.0855 112.333 57.0384 109.882C54.9919 107.432 51.4099 104.93 48.3399 105.441C45.2705 105.951 39.7445 111.567 42.2514 114.885Z" fill="#DF054E"/>
<path d="M54.9827 107.863C54.9827 107.863 57.7586 109.849 61.0828 115.456" stroke="#950032" stroke-width="0.7" stroke-miterlimit="10"/>
<defs>
<linearGradient id="paint0_linear" x1="35.2107" y1="67.8032" x2="35.2107" y2="181.953" gradientUnits="userSpaceOnUse">
<stop stop-color="#C0C0C0"/>
<stop offset="1" stop-color="#C0C0C0" stop-opacity="0.35"/>
</linearGradient>
<linearGradient id="paint1_linear" x1="181.861" y1="113.569" x2="181.861" y2="177.556" gradientUnits="userSpaceOnUse">
<stop stop-color="#D7D7D7"/>
<stop offset="1" stop-color="#B3B3B3"/>
</linearGradient>
<linearGradient id="paint2_linear" x1="149.045" y1="177.556" x2="218" y2="178" gradientUnits="userSpaceOnUse">
<stop stop-color="#848484"/>
<stop offset="1" stop-color="#6C6C6C"/>
</linearGradient>
</defs>
</svg>
