<svg width="142" height="142" viewBox="0 0 142 142" fill="none" xmlns="http://www.w3.org/2000/svg">
<circle r="70.25" transform="matrix(-1 0 0 1 71 71)" stroke="#DF054E" stroke-width="1.5"/>
<path d="M39.25 58.8L47.282 73.328V82H52.114V73.328L60.114 58.8H54.322L49.682 68.208L44.85 58.8H39.25ZM66.745 64.848C61.977 64.848 58.777 68.432 58.777 73.616C58.777 78.864 62.041 82.288 66.745 82.288C71.449 82.288 74.713 78.864 74.713 73.616C74.713 68.432 71.513 64.848 66.745 64.848ZM66.745 78.544C64.665 78.544 63.417 76.912 63.417 73.584C63.417 70.416 64.569 68.592 66.745 68.592C68.793 68.592 70.073 70.256 70.073 73.584C70.073 76.688 68.921 78.544 66.745 78.544ZM88.579 65.168V74.768C88.579 77.072 87.491 78.576 85.347 78.576C83.331 78.576 82.435 77.264 82.435 75.216V65.168H77.859V76.048C77.859 79.856 80.099 82.32 83.651 82.32C85.987 82.32 87.971 81.232 88.771 79.6L89.123 82H93.155V65.168H88.579ZM99.1198 74.928H102L102.832 65.648V58.8H98.2238V65.648L99.1198 74.928ZM98.0638 82H103.024V77.616H98.0638V82Z" fill="#DF054E"/>
</svg>
