<svg width="101" height="85" viewBox="0 0 101 85" fill="none" xmlns="http://www.w3.org/2000/svg">
<path d="M27.0677 25.0763L13.6315 29.2329C6.3087 31.4982 2.22055 39.3122 4.50074 46.683C6.78175 54.0565 14.5673 58.1944 21.89 55.9291L35.3262 51.7726L27.0677 25.0763ZM46.8574 70.0705C45.1191 69.368 43.6285 68.1618 42.5823 66.6046L36.349 57.3385L22.6672 61.571L32.6113 75.7032C33.7269 77.2857 35.7352 77.972 37.5852 77.3996L46.766 74.5595C47.7218 74.2639 48.3875 73.3998 48.4296 72.401C48.4716 71.4022 47.8808 70.4852 46.952 70.1114L46.8574 70.0705Z" fill="#df054e"/>
<path d="M33.0816 25.6704C40.1661 22.3643 53.3905 14.8075 59.0581 5.83383L72.7548 49.2855C63.3088 46.4517 49.99 45.6015 40.1661 47.8686" stroke="#df054e" stroke-width="3" stroke-linecap="round"/>
<path d="M75.0192 15.1718L86.1925 3.00002" stroke="#4432a7" stroke-width="3" stroke-linecap="round"/>
<path d="M80.6868 33.2273L97.0554 34.6442" stroke="#4432a7" stroke-width="3" stroke-linecap="round"/>
<path d="M78.7976 23.6732L98 16.6968" stroke="#4432a7" stroke-width="3" stroke-linecap="round"/>
</svg>
