<svg width="106" height="81" viewBox="0 0 106 81" fill="none" xmlns="http://www.w3.org/2000/svg">
<path d="M2 5C2 3.34315 3.34315 2 5 2H101C102.657 2 104 3.34315 104 5V60C104 61.6569 102.657 63 101 63H71.5262C69.7069 63 67.9592 63.7082 66.6531 64.9747L55.0884 76.1889C53.9248 77.3173 52.0752 77.3173 50.9116 76.1889L39.3469 64.9747C38.0408 63.7082 36.2931 63 34.4738 63H5C3.34315 63 2 61.6569 2 60V5Z" stroke="#df054e" stroke-width="4"/>
<path d="M46.254 40L41.214 25.5H38.274L33.394 40H36.194L37.334 36.44H42.214L43.314 40H46.254ZM39.794 28.68L41.534 34.3H38.014L39.794 28.68ZM53.0623 40C55.2823 40 57.0623 39.34 58.4023 38.04C59.7423 36.72 60.4023 34.96 60.4023 32.76C60.4023 30.56 59.7423 28.8 58.4023 27.48C57.0623 26.16 55.2823 25.5 53.0623 25.5H48.0223V40H53.0623ZM50.6623 27.84H52.9023C55.8423 27.84 57.6623 29.62 57.6623 32.72C57.6623 35.78 55.9223 37.66 52.9023 37.66H50.6623V27.84ZM62.0027 35.48C62.0027 36.9 62.4827 38.06 63.4627 38.92C64.4427 39.78 65.8027 40.22 67.5427 40.22C69.1227 40.22 70.4027 39.84 71.4027 39.06C72.4227 38.28 72.9227 37.22 72.9227 35.92C72.9227 33.76 71.7227 32.36 69.3227 31.7L67.1827 31.1C65.8027 30.72 65.2427 30.24 65.2427 29.36C65.2427 28.24 66.1427 27.54 67.5227 27.54C69.0427 27.54 70.0027 28.32 70.0227 29.6H72.6627C72.6427 28.28 72.1627 27.24 71.2227 26.46C70.2827 25.68 69.0427 25.3 67.5227 25.3C65.9427 25.3 64.7027 25.68 63.7627 26.46C62.8427 27.24 62.3827 28.26 62.3827 29.52C62.3827 31.54 63.6227 32.88 66.1227 33.58L68.2627 34.16C69.4627 34.48 70.0627 35 70.0627 36.06C70.0627 37.2 69.0827 37.96 67.5627 37.96C65.7427 37.96 64.6627 37.1 64.6627 35.48H62.0027Z" fill="#4432a7"/>
</svg>
