<svg width="98" height="82" viewBox="0 0 98 82" fill="none" xmlns="http://www.w3.org/2000/svg">
<path d="M48.5041 27.5885C48.3451 27.5547 48.182 27.5486 48.0209 27.5723C46.407 27.3879 45.1894 26.0482 45.1867 24.4545C45.1867 23.6908 44.5555 23.0716 43.7771 23.0716C42.9987 23.0716 42.3675 23.6908 42.3675 24.4545C42.3717 27.1158 44.1859 29.4468 46.8013 30.1512V31.5341C46.8013 32.2979 47.4325 32.9171 48.2109 32.9171C48.9893 32.9171 49.6204 32.2979 49.6204 31.5341V30.2349C52.6392 29.615 54.6909 26.8565 54.3736 23.8468C54.0556 20.8371 51.4712 18.5499 48.3871 18.5492C46.6196 18.5492 45.1867 17.1433 45.1867 15.4092C45.1867 13.6751 46.6196 12.2692 48.3871 12.2692C50.1545 12.2692 51.5875 13.6751 51.5875 15.4092C51.5875 16.1729 52.2186 16.7922 52.9971 16.7922C53.7755 16.7922 54.4066 16.1729 54.4066 15.4092C54.4025 12.6149 52.4072 10.2048 49.6204 9.62816V8.36945C49.6204 7.60571 48.9893 6.98648 48.2109 6.98648C47.4325 6.98648 46.8013 7.60571 46.8013 8.36945V9.71257C43.8927 10.4918 42.0207 13.2625 42.4212 16.1945C42.8218 19.1266 45.3718 21.3152 48.3871 21.3145C50.1311 21.3145 51.5538 22.6846 51.5854 24.3951C51.6178 26.1056 50.2468 27.5264 48.5041 27.5885Z" fill="#909090"/>
<path d="M28.476 20.4148C28.476 31.4116 37.3903 40.3258 48.387 40.3258C59.3837 40.3258 68.298 31.4116 68.298 20.4148C68.298 9.41814 59.3837 0.503845 48.387 0.503845C37.3957 0.515913 28.4887 9.4235 28.476 20.4148ZM48.387 3.25001C57.8671 3.25001 65.5518 10.9347 65.5518 20.4148C65.5518 29.895 57.8671 37.5797 48.387 37.5797C38.9068 37.5797 31.2222 29.895 31.2222 20.4148C31.2329 10.9394 38.9115 3.26073 48.387 3.25001Z" fill="#CBCBCB"/>
<path d="M84.8002 52.7408L70.6397 59.4313C68.6846 55.7948 64.9342 53.4804 60.8069 53.3639L47.7348 53.0047C45.6649 52.9455 43.6339 52.4213 41.7936 51.4706L40.4634 50.7813C33.6529 47.2312 25.5351 47.2401 18.7316 50.8042L18.8145 47.7908C18.8419 46.7925 18.0554 45.9611 17.0572 45.9337L2.72281 45.5392C1.72452 45.5118 0.893941 46.2983 0.866579 47.2965L0.000692873 78.7527C-0.0266693 79.751 0.759778 80.5824 1.75806 80.6098L16.0924 81.0043H16.1418C17.1216 81.0043 17.923 80.2249 17.9495 79.2461L17.991 77.7411L21.7149 75.7472C23.1766 74.9608 24.8854 74.7737 26.4822 75.2256L48.7198 81.4668C48.7587 81.4783 48.7975 81.4871 48.8372 81.496C50.4445 81.8323 52.0827 82.0008 53.7245 82C57.2021 82.0017 60.6392 81.2523 63.8 79.8013C63.8777 79.766 63.9527 79.7245 64.0242 79.6777L96.2668 58.8223C97.07 58.3024 97.3295 57.2476 96.859 56.4144C94.4653 52.167 89.1561 50.5491 84.8002 52.7408ZM3.6646 77.0456L4.43075 49.2031L15.1506 49.4979L14.3845 77.3413L3.6646 77.0456ZM62.1715 76.5725C58.2446 78.3449 53.8586 78.8339 49.6378 77.9715L27.4601 71.7461C24.964 71.0409 22.2922 71.3331 20.0088 72.5608L18.1057 73.5803L18.615 55.0683C24.6454 51.0575 32.3792 50.6453 38.8014 53.9915L40.1316 54.6809C42.4565 55.8813 45.0206 56.5433 47.6359 56.6192L60.7089 56.9784C64.3808 57.0843 67.4992 59.6988 68.2442 63.2965L48.7719 62.7589C47.7736 62.7316 46.943 63.5189 46.9148 64.5163C46.8874 65.5146 47.6747 66.346 48.6721 66.3734L70.1613 66.9648H70.2116C71.1905 66.9639 71.9911 66.1845 72.0175 65.2065C72.0396 64.421 71.9813 63.6345 71.8428 62.8613L86.3669 55.9987C86.381 55.9925 86.3951 55.9854 86.4092 55.9784C88.4694 54.9359 90.9602 55.2846 92.6549 56.8531L62.1715 76.5725Z" fill="#909090"/>
</svg>
