<svg width="109" height="73" viewBox="0 0 109 73" fill="none" xmlns="http://www.w3.org/2000/svg">
<path d="M54.4999 0.956436C45.3534 0.956436 37.9129 8.39679 37.9129 17.5435C37.9129 26.6901 45.3532 34.1305 54.4999 34.1305C63.6466 34.1305 71.0869 26.6899 71.0869 17.5435C71.0869 8.39701 63.6466 0.956436 54.4999 0.956436ZM54.4999 29.3912C47.9694 29.3912 42.6521 24.0739 42.6521 17.5435C42.6521 11.013 47.9694 5.69571 54.4999 5.69571C61.0303 5.69571 66.3476 11.013 66.3476 17.5435C66.3476 24.0739 61.0306 29.3912 54.4999 29.3912Z" fill="#df054e"/>
<path d="M87.6739 19.9131C81.1435 19.9131 75.8262 25.2304 75.8262 31.7608C75.8262 38.2913 81.1435 43.6086 87.6739 43.6086C94.2044 43.6086 99.5217 38.2913 99.5217 31.7608C99.5217 25.2304 94.2044 19.9131 87.6739 19.9131ZM87.6739 38.8695C83.7546 38.8695 80.5652 35.6802 80.5652 31.7608C80.5652 27.8415 83.7546 24.6521 87.6739 24.6521C91.5933 24.6521 94.7826 27.8415 94.7826 31.7608C94.7826 35.6802 91.593 38.8695 87.6739 38.8695Z" fill="#4432a7"/>
<path d="M21.6626 19.9131C15.1273 19.9131 9.81488 25.2304 9.81488 31.7608C9.81488 38.2913 15.1322 43.6086 21.6626 43.6086C28.1931 43.6086 33.5104 38.2913 33.5104 31.7608C33.5104 25.2304 28.1977 19.9131 21.6626 19.9131ZM21.6626 38.8695C17.7433 38.8695 14.5539 35.6802 14.5539 31.7608C14.5539 27.8415 17.7433 24.6521 21.6626 24.6521C25.582 24.6521 28.7713 27.8415 28.7713 31.7608C28.7713 35.6802 25.5817 38.8695 21.6626 38.8695Z" fill="#4432a7"/>
<path d="M87.6739 48.3479C83.7737 48.3479 79.9539 49.4142 76.627 51.4284C75.5134 52.1108 75.1531 53.5656 75.8309 54.6841C76.518 55.8026 77.9681 56.1581 79.0866 55.4803C81.6693 53.9115 84.6361 53.0869 87.6739 53.0869C96.8204 53.0869 104.261 60.5273 104.261 69.6739C104.261 70.9819 105.323 72.0436 106.631 72.0436C107.939 72.0436 109 70.9819 109 69.6739C109 57.9161 99.4317 48.3479 87.6739 48.3479Z" fill="#4432a7"/>
<path d="M32.3683 51.4235C29.0461 49.4142 25.2265 48.3479 21.3261 48.3479C9.5683 48.3479 0 57.9161 0 69.6739C0 70.9819 1.06164 72.0436 2.36964 72.0436C3.67764 72.0436 4.73928 70.9819 4.73928 69.6739C4.73905 60.5273 12.1796 53.0869 21.3261 53.0869C24.3639 53.0869 27.3305 53.9115 29.9087 55.4754C31.0223 56.1532 32.4821 55.7978 33.1645 54.6793C33.8469 53.5607 33.4866 52.1059 32.3683 51.4235Z" fill="#4432a7"/>
<path d="M54.4999 38.8695C37.5148 38.8695 23.6955 52.6888 23.6955 69.6739C23.6955 70.9819 24.7571 72.0436 26.0651 72.0436C27.3731 72.0436 28.4348 70.9819 28.4348 69.6739C28.4348 55.3002 40.1261 43.6088 54.4999 43.6088C68.8737 43.6088 80.565 55.3002 80.565 69.6739C80.565 70.9819 81.6266 72.0436 82.9346 72.0436C84.2426 72.0436 85.3043 70.9819 85.3043 69.6739C85.3043 52.6888 71.485 38.8695 54.4999 38.8695Z" fill="#df054e"/>
</svg>
