<svg width="279" height="152" viewBox="0 0 279 152" fill="none" xmlns="http://www.w3.org/2000/svg">
<g clip-path="url(#clip0)">
<path d="M115.911 119.258C115.911 119.258 176.56 134.547 181.814 70.5235C187.066 6.5013 247.715 1.24575 263.953 23.7013" stroke="#DF054E" stroke-miterlimit="10" stroke-dasharray="5 5"/>
</g>
<path d="M78.5416 90.9772C68.7938 87.0969 62.4956 79.9238 64.4737 74.957C66.4518 69.9902 75.958 69.1084 85.7058 72.9888C97.2579 77.5874 109.152 92.5516 109.152 92.5516C109.152 92.5516 89.7436 95.4364 78.5416 90.9772Z" fill="#FF8FB5"/>
<path d="M65.1529 124.593C55.4051 120.712 49.1073 113.541 51.0849 108.573C53.063 103.606 62.5692 102.724 72.317 106.604C83.8691 111.203 95.763 126.167 95.763 126.167C95.763 126.167 76.3565 129.053 65.1529 124.593Z" fill="#FF8FB5"/>
<path d="M69.5902 111.645C57.0515 105.503 49.4249 95.344 52.5557 88.9543C55.6876 82.5641 68.3901 82.3641 80.9288 88.5057C95.7878 95.7842 110.045 116.853 110.045 116.853C110.045 116.853 84.0002 118.704 69.5902 111.645Z" fill="url(#paint0_linear)"/>
<path d="M56.9584 69.9278C76.8917 77.8627 89.7709 92.529 85.7256 102.686C81.6792 112.844 62.2425 114.645 42.3092 106.71C18.6862 97.3066 -6.2844e-06 68.9498 -6.2844e-06 68.9498C-6.2844e-06 68.9498 34.0498 60.8075 56.9584 69.9278Z" fill="url(#paint1_linear)"/>
<path d="M13.8687 85.9772C5.3205 77.0192 0.00112792 68.9493 0.00112792 68.9493C0.00112792 68.9493 10.554 66.4297 23.8585 65.7651C20.6748 72.5779 17.3605 79.3246 13.8687 85.9772Z" fill="#A21A47"/>
<path d="M38.4509 89.2608C34.7554 90.8515 30.4702 89.1457 28.8798 85.4508C27.2893 81.7558 28.9958 77.471 32.6913 75.8802C36.3869 74.2895 40.672 75.9953 42.2625 79.6903C43.8529 83.3852 42.1464 87.6701 38.4509 89.2608Z" fill="#F287AB"/>
<defs>
<linearGradient id="paint0_linear" x1="69.8108" y1="79.6138" x2="121.785" y2="111.925" gradientUnits="userSpaceOnUse">
<stop stop-color="#FC9F21"/>
<stop offset="1" stop-color="#FC9F21" stop-opacity="0.61"/>
</linearGradient>
<linearGradient id="paint1_linear" x1="31.5836" y1="55.3549" x2="95.4998" y2="90.3437" gradientUnits="userSpaceOnUse">
<stop stop-color="#DF054E"/>
<stop offset="1" stop-color="#E93C76"/>
</linearGradient>
<clipPath id="clip0">
<rect width="129" height="176" fill="white" transform="matrix(-4.37114e-08 1 1 4.37114e-08 103 0)"/>
</clipPath>
</defs>
</svg>
