<svg width="108" height="108" viewBox="0 0 108 108" fill="none" xmlns="http://www.w3.org/2000/svg">
<g clip-path="url(#clip0)">
<path d="M74.9148 88.2609L90.4596 80.9188C93.8868 79.188 98.069 80.4569 99.9573 83.7993L68.3598 104.238C64.1239 106.193 59.3699 106.731 54.8036 105.773L33.0117 99.6564C31.0057 99.0941 28.8606 99.3286 27.0242 100.312L22.4665 102.75L23.0798 80.5244L23.2614 80.5287C29.774 75.9018 38.3262 75.3032 45.4192 78.9786L46.7236 79.6542C48.7624 80.7103 51.0149 81.2925 53.3114 81.3548L66.1212 81.7086C70.1417 81.8184 73.6605 84.4402 74.9148 88.2609Z" fill="#F7CAA5"/>
<path d="M79.1801 49.2703C79.1801 62.4796 68.4714 73.1883 55.262 73.1883C42.0526 73.1883 31.344 62.4796 31.344 49.2703C31.344 36.0609 42.0526 25.3522 55.262 25.3522C68.4714 25.3522 79.1801 36.0609 79.1801 49.2703Z" fill="#FEDB41"/>
<path d="M22.4665 102.75L22.3982 105.252L8.35233 104.867L9.20002 74.0404L23.2485 74.4261L23.0798 80.5244L22.4665 102.75Z" fill="#909090"/>
<path d="M55.4091 58.9418C55.211 58.8986 55.0069 58.8908 54.8053 58.9193C52.7709 58.697 51.2329 56.9739 51.2407 54.9274C51.2407 53.9491 50.4475 53.1558 49.4692 53.1558C48.4908 53.1558 47.6976 53.9491 47.6976 54.9274C47.6855 58.3424 49.9726 61.337 53.2691 62.2262V63.996C53.2691 64.9743 54.0623 65.7675 55.0406 65.7675C56.0189 65.7675 56.8121 64.9743 56.8121 63.996V62.3317C60.606 61.5377 63.1854 58.0033 62.7858 54.148C62.387 50.2927 59.1381 47.3621 55.262 47.3612C53.0407 47.3612 51.2407 45.5612 51.2407 43.3399C51.2407 41.1194 53.0407 39.3185 55.262 39.3185C57.4834 39.3185 59.2834 41.1194 59.2834 43.3399C59.2834 44.3182 60.0766 45.1114 61.0549 45.1114C62.0333 45.1114 62.8265 44.3182 62.8265 43.3399C62.8213 39.7614 60.3136 36.6742 56.8121 35.9363V34.3231C56.8121 33.3448 56.0189 32.5516 55.0406 32.5516C54.0623 32.5516 53.2691 33.3448 53.2691 34.3231V36.0445C49.6136 37.0418 47.2608 40.5909 47.7642 44.3458C48.2685 48.1017 51.4734 50.9051 55.262 50.9043C57.4661 50.887 59.2739 52.6472 59.3137 54.8504C59.3544 57.0544 57.6131 58.8795 55.4091 58.9427V58.9418Z" fill="#6D6D6D"/>
<path d="M29.5724 49.2703C29.5724 63.458 41.0743 74.9598 55.262 74.9598C69.4497 74.9598 80.9516 63.458 80.9516 49.2703C80.9516 35.0826 69.4497 23.5807 55.262 23.5807C41.0812 23.5971 29.5889 35.0895 29.5724 49.2703ZM55.262 27.1237C67.4931 27.1237 77.4086 37.0392 77.4086 49.2703C77.4086 61.5013 67.4931 71.4168 55.262 71.4168C43.0309 71.4168 33.1155 61.5013 33.1155 49.2703C33.1293 37.0453 43.037 27.1376 55.262 27.1237Z" fill="#6D6D6D"/>
<path d="M89.6837 79.3255L75.81 85.8787C73.888 82.3192 70.2135 80.0555 66.1705 79.9379L53.359 79.5841C51.3306 79.5253 49.3411 79.0124 47.5376 78.0808L46.234 77.4061C39.5597 73.9262 31.6052 73.9348 24.9378 77.4277L25.0191 74.4737C25.0468 73.4963 24.2752 72.6814 23.2969 72.6546L9.24846 72.2688C8.77877 72.2559 8.32291 72.4297 7.9821 72.7524C7.64043 73.0759 7.44148 73.5213 7.42937 73.991L6.58167 104.818C6.55486 105.796 7.32557 106.61 8.30388 106.637L22.3497 107.023H22.399C23.3583 107.022 24.1429 106.258 24.1688 105.3L24.2095 103.827L27.8606 101.873C29.2922 101.103 30.9677 100.919 32.5325 101.361L54.3252 107.477C54.3624 107.488 54.4005 107.497 54.4394 107.505C56.0154 107.835 57.6217 108.001 59.2315 108C62.6387 108.002 66.0062 107.268 69.102 105.845C69.1781 105.81 69.2516 105.769 69.3217 105.724L100.919 85.2853C101.706 84.7767 101.961 83.743 101.5 82.9265C99.1537 78.7641 93.9516 77.1794 89.6837 79.3255ZM20.7175 102.701L20.6863 103.432L10.1775 103.144L10.9248 75.8594L21.4406 76.1475L20.7175 102.701ZM67.5061 102.681C63.6577 104.418 59.3604 104.897 55.224 104.051L33.49 97.9506C31.0447 97.2604 28.4263 97.5467 26.1886 98.7499L24.3219 99.749L24.8227 81.6065C30.7315 77.6759 38.3115 77.272 44.6044 80.5521L45.9088 81.2268C48.1863 82.4032 50.7 83.0528 53.2621 83.1254L66.0728 83.4801C69.345 83.5735 72.2082 85.7074 73.2323 88.8162C73.324 89.0965 73.4002 89.3811 73.4598 89.67L54.3763 89.1432C53.398 89.1164 52.584 89.8871 52.5563 90.8654C52.5295 91.8437 53.3011 92.6577 54.2785 92.6854L75.3352 93.2649H75.3845C76.3438 93.2658 77.1292 92.502 77.156 91.5419C77.1767 90.772 77.1188 90.0022 76.9838 89.2436L91.2174 82.5191C91.2312 82.513 91.2451 82.5061 91.2589 82.4992C93.2778 81.4776 95.7188 81.8193 97.3796 83.3564L67.5061 102.681Z" fill="#6D6D6D"/>
<path d="M57.0335 18.6009V1.77151C57.0335 0.793199 56.2403 -3.8147e-06 55.262 -3.8147e-06C54.2837 -3.8147e-06 53.4905 0.793199 53.4905 1.77151V18.6009C53.4905 19.5792 54.2837 20.3724 55.262 20.3724C56.2403 20.3724 57.0335 19.5792 57.0335 18.6009Z" fill="#CBCBCB"/>
<path d="M70.3199 18.6009V10.6291C70.3199 9.65077 69.5267 8.85757 68.5484 8.85757C67.5701 8.85757 66.7769 9.65077 66.7769 10.6291V18.6009C66.7769 19.5792 67.5701 20.3724 68.5484 20.3724C69.5267 20.3724 70.3199 19.5792 70.3199 18.6009Z" fill="#CBCBCB"/>
<path d="M43.7472 18.6009V10.6291C43.7472 9.65077 42.954 8.85757 41.9756 8.85757C40.9973 8.85757 40.2041 9.65077 40.2041 10.6291V18.6009C40.2041 19.5792 40.9973 20.3724 41.9756 20.3724C42.954 20.3724 43.7472 19.5792 43.7472 18.6009Z" fill="#CBCBCB"/>
</g>
<defs>
<clipPath id="clip0">
<rect width="108" height="108" fill="white"/>
</clipPath>
</defs>
</svg>
