<svg width="19" height="19" viewBox="0 0 19 19" fill="none" xmlns="http://www.w3.org/2000/svg">
<path d="M10.6135 9.50537L18.758 1.36085C19.0723 1.05726 19.081 0.556352 18.7774 0.242008C18.4739 -0.0723355 17.9729 -0.0810518 17.6586 0.222536C17.652 0.228888 17.6455 0.235378 17.6391 0.242008L9.49457 8.38653L1.35004 0.241962C1.0357 -0.0616255 0.534789 -0.0529092 0.231201 0.261435C-0.0649682 0.568082 -0.0649682 1.0542 0.231201 1.36085L8.37572 9.50537L0.231201 17.6499C-0.0777181 17.9589 -0.0777181 18.4598 0.231201 18.7687C0.540167 19.0776 1.04108 19.0776 1.35004 18.7687L9.49457 10.6242L17.6391 18.7687C17.9534 19.0723 18.4543 19.0636 18.7579 18.7493C19.0541 18.4426 19.0541 17.9565 18.7579 17.6499L10.6135 9.50537Z" fill="#333333"/>
</svg>
