<svg width="154" height="154" viewBox="0 0 154 154" fill="none" xmlns="http://www.w3.org/2000/svg">
<g clip-path="url(#clip0)">
<path fill-rule="evenodd" clip-rule="evenodd" d="M96.2501 134.75C129.95 128.083 154 103.276 154 66.6756V19.25H89.9425V83.4167H115.5C115.5 97.6039 105.471 115.064 89.8591 120.948L96.2501 134.75ZM14.2472 134.75C47.9476 128.083 71.8882 103.276 71.8882 66.6756V19.25H7.83057V83.4167H33.4972C33.4972 97.6039 23.468 115.064 7.86265 120.948L14.2472 134.75ZM17.8855 127.332L16.3391 123.996C31.7006 115.07 39.9139 97.3087 39.9139 83.4167V77H14.2472V25.6667H65.4715V66.6756C65.4715 96.7505 47.3765 119.6 17.8855 127.332ZM99.8883 127.339L98.3419 123.996C113.703 115.07 121.917 97.3087 121.917 83.4167V77H96.3591V25.6667H147.583V66.6756C147.583 96.7441 129.443 119.594 99.8883 127.339Z" fill="#F2F2F2"/>
</g>
<defs>
<clipPath id="clip0">
<rect width="154" height="154" fill="white"/>
</clipPath>
</defs>
</svg>
