<svg width="253" height="39" viewBox="0 0 253 39" fill="none" xmlns="http://www.w3.org/2000/svg">
<path fill-rule="evenodd" clip-rule="evenodd" d="M8.31309 13.1721V18.3942C8.31309 19.6395 9.30818 20.6454 10.5383 20.6454C11.7691 20.6454 12.7642 19.6395 12.7642 18.3942V13.1721H17.9235C19.1543 13.1721 20.1494 12.1653 20.1494 10.92C20.1494 9.67472 19.1543 8.66879 17.9235 8.66879H12.7642V3.44906C12.7642 2.20377 11.7691 1.19702 10.5383 1.19702C9.30818 1.19702 8.31309 2.20377 8.31309 3.44906V8.66879H3.15143C1.92056 8.66879 0.92627 9.67472 0.92627 10.92C0.92627 12.1653 1.92056 13.1721 3.15143 13.1721H8.31309Z" fill="#DF054E"/>
<path fill-rule="evenodd" clip-rule="evenodd" d="M23.4499 37.9216C17.3515 37.9216 11.6647 35.4715 7.43737 31.0216C6.79316 30.3439 6.81474 29.2668 7.48373 28.6159C8.15432 27.9641 9.21894 27.986 9.86235 28.6636C13.4495 32.4391 18.2746 34.5189 23.4499 34.5189C28.4829 34.5189 33.2162 32.5353 36.7753 28.9345C37.4315 28.269 38.4969 28.2698 39.1539 28.9345C39.8101 29.5992 39.8101 30.6763 39.1531 31.3402C34.9586 35.5839 29.3813 37.9216 23.4499 37.9216Z" fill="#303248"/>
<path fill-rule="evenodd" clip-rule="evenodd" d="M34.7884 17.4689C31.2197 17.4689 28.3168 14.532 28.3168 10.9214C28.3168 7.31087 31.2197 4.37311 34.7884 4.37311C38.357 4.37311 41.2607 7.31087 41.2607 10.9214C41.2607 14.532 38.357 17.4689 34.7884 17.4689ZM34.7885 0.970215C29.3655 0.970215 24.9535 5.43468 24.9535 10.9212C24.9535 13.6083 26.0133 16.048 27.7302 17.8399L24.637 22.031C24.0224 22.8631 24.191 24.0429 25.0142 24.664C25.3483 24.9163 25.7384 25.0384 26.1252 25.0384C26.6927 25.0384 27.2522 24.778 27.6175 24.2823L30.7754 20.0022C32.0022 20.5593 33.3594 20.8715 34.7885 20.8715C40.2123 20.8715 44.6243 16.4078 44.6243 10.9212C44.6243 5.43468 40.2123 0.970215 34.7885 0.970215Z" fill="#303248"/>
<path fill-rule="evenodd" clip-rule="evenodd" d="M230.885 8.66316C230.885 9.809 229.966 10.7389 228.833 10.7389C227.699 10.7389 226.78 9.809 226.78 8.66316C226.78 7.51652 227.699 6.5874 228.833 6.5874C229.966 6.5874 230.885 7.51652 230.885 8.66316Z" fill="#DF054E"/>
<path fill-rule="evenodd" clip-rule="evenodd" d="M71.5146 19.4149C71.5146 14.6092 68.3 10.5976 62.8354 10.5976H58.728V28.3762H62.8354C68.3 28.3762 71.5146 24.3653 71.5146 19.4149ZM75.5152 19.4149C75.5152 26.5333 70.0866 32.1339 62.8716 32.1339H54.7998V6.83984H62.8716C70.0866 6.83984 75.5152 12.4404 75.5152 19.4149Z" fill="#303248"/>
<path fill-rule="evenodd" clip-rule="evenodd" d="M81.0496 22.7755C81.0496 26.9311 84.1923 29.0263 86.9426 29.0263C89.6929 29.0263 92.8364 26.9311 92.8364 22.7755C92.8364 18.5472 89.6929 16.452 86.9426 16.452C84.1923 16.452 81.0496 18.5472 81.0496 22.7755ZM96.5856 22.7755C96.5856 29.3157 91.1929 32.496 86.9424 32.496C82.692 32.496 77.2993 29.3157 77.2993 22.7755C77.2993 16.2352 82.692 12.9829 86.9424 12.9829C91.1929 12.9829 96.5856 16.2352 96.5856 22.7755Z" fill="#303248"/>
<path fill-rule="evenodd" clip-rule="evenodd" d="M115.55 17.5358L112.549 18.9089C111.442 17.3911 109.942 16.4515 107.657 16.4515C104.906 16.4515 101.763 18.5474 101.763 22.775C101.763 26.9305 104.906 29.0265 107.657 29.0265C109.942 29.0265 111.442 28.1233 112.549 26.6054L115.586 27.9793C113.871 31.0141 111.014 32.4955 107.621 32.4955C103.407 32.4955 98.0132 29.316 98.0132 22.775C98.0132 16.2347 103.407 12.9824 107.621 12.9824C110.978 12.9824 113.871 14.5002 115.55 17.5358Z" fill="#303248"/>
<path fill-rule="evenodd" clip-rule="evenodd" d="M123.263 16.5964V27.1118C123.263 28.1234 123.621 28.8819 125.013 28.8819C125.727 28.8819 126.406 28.738 127.192 28.4485V31.6644C126.406 32.0623 125.335 32.3509 123.978 32.3509C121.371 32.3509 119.406 31.4121 119.406 27.9795V16.5964H116.834V13.3448H119.406V8.53833H123.263V13.3448H127.192V16.5964H123.263Z" fill="#303248"/>
<path fill-rule="evenodd" clip-rule="evenodd" d="M131.835 22.7755C131.835 26.9311 134.978 29.0263 137.728 29.0263C140.478 29.0263 143.622 26.9311 143.622 22.7755C143.622 18.5472 140.478 16.452 137.728 16.452C134.978 16.452 131.835 18.5472 131.835 22.7755ZM147.371 22.7755C147.371 29.3157 141.978 32.496 137.728 32.496C133.477 32.496 128.084 29.3157 128.084 22.7755C128.084 16.2352 133.477 12.9829 137.728 12.9829C141.978 12.9829 147.371 16.2352 147.371 22.7755Z" fill="#303248"/>
<path fill-rule="evenodd" clip-rule="evenodd" d="M161.335 13.1277V16.8498C160.978 16.7771 160.62 16.7771 160.335 16.7771C156.834 16.7771 153.977 19.3065 153.549 23.2817V32.1346H149.691V13.3444H153.549V18.1501C154.334 15.3684 156.727 13.0549 160.228 13.0549C160.62 13.0549 160.978 13.0549 161.335 13.1277Z" fill="#303248"/>
<path fill-rule="evenodd" clip-rule="evenodd" d="M179.37 22.7392C179.37 18.5472 176.299 16.452 173.406 16.452C170.513 16.452 167.405 18.5472 167.405 22.7392C167.405 26.9311 170.513 29.0263 173.406 29.0263C176.299 29.0263 179.37 26.9311 179.37 22.7392ZM183.121 22.7391C183.121 29.3157 178.084 32.4952 173.906 32.4952C170.691 32.4952 168.477 30.6168 167.727 29.0626H167.513V38.9999H163.655V13.3444H167.513V16.4156H167.727C168.477 14.8622 170.691 12.9829 173.906 12.9829C178.084 12.9829 183.121 16.1625 183.121 22.7391Z" fill="#DF054E"/>
<path fill-rule="evenodd" clip-rule="evenodd" d="M188.37 21.2939H199.549C199.191 17.9696 196.37 16.3435 193.977 16.3435C191.619 16.3435 188.977 17.9696 188.37 21.2939ZM203.013 24.1847H188.334C188.905 27.5089 191.477 29.1707 194.441 29.1707C196.905 29.1707 198.227 28.5205 199.584 27.437L201.763 29.5321C200.12 31.4114 197.763 32.4958 194.334 32.4958C189.655 32.4958 184.548 29.279 184.548 22.7752C184.548 16.235 189.798 12.9827 193.977 12.9827C198.191 12.9827 203.906 16.235 203.013 24.1847Z" fill="#DF054E"/>
<path fill-rule="evenodd" clip-rule="evenodd" d="M219.941 22.7392C219.941 18.5472 216.834 16.452 213.94 16.452C211.048 16.452 207.976 18.5472 207.976 22.7392C207.976 26.9311 211.048 29.0263 213.94 29.0263C216.834 29.0263 219.941 26.9311 219.941 22.7392ZM223.691 6.58667V32.1346H219.834V29.0626H219.62C218.869 30.6168 216.655 32.4953 213.441 32.4953C209.262 32.4953 204.226 29.3157 204.226 22.7391C204.226 16.1625 209.262 12.983 213.441 12.983C216.655 12.983 218.869 14.8622 219.62 16.4156H219.834V6.58667H223.691Z" fill="#DF054E"/>
<mask id="mask0" mask-type="alpha" maskUnits="userSpaceOnUse" x="0" y="0" width="253" height="39">
<path fill-rule="evenodd" clip-rule="evenodd" d="M0.925781 38.03H252.548V0H0.925781V38.03Z" fill="white"/>
</mask>
<g mask="url(#mask0)">
<path fill-rule="evenodd" clip-rule="evenodd" d="M226.904 32.1347H230.761V13.3445H226.904V32.1347Z" fill="#DF054E"/>
<path fill-rule="evenodd" clip-rule="evenodd" d="M248.797 22.7392C248.797 18.5472 245.69 16.452 242.797 16.452C239.904 16.452 236.832 18.5472 236.832 22.7392C236.832 26.9311 239.904 29.0263 242.797 29.0263C245.69 29.0263 248.797 26.9311 248.797 22.7392ZM233.082 22.7391C233.082 16.1625 238.118 12.9829 242.297 12.9829C245.511 12.9829 247.726 14.8622 248.476 16.4156H248.69V13.3444H252.547V32.1346H248.69V29.0626H248.476C247.726 30.6168 245.511 32.4952 242.297 32.4952C238.118 32.4952 233.082 29.3157 233.082 22.7391Z" fill="#DF054E"/>
</g>
</svg>
