<svg width="50" height="50" viewBox="0 0 50 50" fill="none" xmlns="http://www.w3.org/2000/svg">
<path d="M25 50C22.4246 50 20.582 48.0633 19.106 46.5139C18.4778 45.7507 17.7271 45.0964 16.8865 44.5771C15.8605 44.3217 14.799 44.24 13.7458 44.3363C11.5264 44.3363 9.02432 44.4201 7.26553 42.6718C5.50674 40.9234 5.61143 38.4214 5.65332 36.202C5.75176 35.1487 5.67012 34.0872 5.4125 33.0612C4.89326 32.2206 4.23896 31.4699 3.47578 30.8418C1.96816 29.418 0 27.5754 0 25C0 22.4246 1.96816 20.582 3.47568 19.106C4.23887 18.4778 4.89316 17.7271 5.4125 16.8865C5.67002 15.8605 5.75166 14.799 5.65332 13.7458C5.65332 11.5368 5.56953 9.02432 7.31787 7.27598C9.06621 5.52764 11.5787 5.56953 13.7981 5.61143C14.8514 5.70986 15.9129 5.6292 16.9389 5.37061C17.7795 4.85137 18.5291 4.19707 19.1583 3.43389C20.582 1.96816 22.4246 0 25 0C27.5754 0 29.418 1.96816 30.894 3.48613C31.5222 4.24932 32.2729 4.90361 33.1135 5.42285C34.1395 5.68037 35.201 5.76201 36.2542 5.66367C38.4736 5.66367 40.9757 5.57988 42.7345 7.32822C44.4933 9.07656 44.4409 11.5891 44.399 13.798C44.3006 14.8513 44.3822 15.9128 44.6398 16.9388C45.1591 17.7794 45.8134 18.5301 46.5766 19.1582C48.0318 20.582 50 22.4246 50 25C50 27.5754 48.0318 29.418 46.5243 30.894C45.7611 31.5222 45.1068 32.2729 44.5876 33.1135C44.3301 34.1395 44.2484 35.201 44.3468 36.2542C44.3468 38.4632 44.4306 40.9757 42.6822 42.724C40.9339 44.4724 38.4214 44.4305 36.202 44.3886C35.1487 44.2892 34.0872 44.3708 33.0612 44.6294C32.2206 45.1486 31.471 45.8029 30.8418 46.5661C29.418 48.0318 27.5754 50 25 50ZM14.7613 40.0021C16.0469 39.9435 17.3314 40.1392 18.5406 40.5778C19.9592 41.2939 21.2134 42.2958 22.2257 43.5196C23.1365 44.4723 24.3195 45.6658 24.9896 45.6658C25.6596 45.6658 26.8426 44.4724 27.7533 43.5196C28.7657 42.2958 30.0198 41.2939 31.4384 40.5778C32.9909 40.0606 34.6346 39.869 36.2645 40.0125C37.479 40.0125 39.154 40.0125 39.6042 39.6146C40.0544 39.2168 40.0229 37.5208 40.0021 36.275C39.8586 34.645 40.0502 33.0014 40.5674 31.4488C41.2835 30.0303 42.2854 28.7761 43.5092 27.7638C44.4618 26.8529 45.6554 25.6699 45.6554 24.9999C45.6554 24.3299 44.4619 23.1469 43.5092 22.2361C42.2854 21.2238 41.2835 19.9696 40.5674 18.5511C40.0502 16.9985 39.8576 15.3549 40.0021 13.7249C40.0021 12.5104 40.0021 10.8354 39.6042 10.3853C39.2063 9.93506 37.5104 9.95605 36.2645 9.9874C34.6346 10.1309 32.9919 9.93818 31.4384 9.42207C30.0198 8.70596 28.7656 7.7041 27.7533 6.48027C26.8425 5.52764 25.6595 4.33408 24.9896 4.33408C24.3195 4.33408 23.1365 5.52754 22.2257 6.48027C21.2133 7.7041 19.9592 8.70596 18.5406 9.42207C16.987 9.93818 15.3444 10.1309 13.7145 9.9874C12.5 9.9874 10.825 9.9874 10.3748 10.3853C9.92461 10.7831 9.95605 12.4791 9.97695 13.7249C10.1204 15.3549 9.92881 16.9985 9.41162 18.5511C8.69551 19.9696 7.69365 21.2238 6.46982 22.2361C5.51719 23.147 4.32363 24.33 4.32363 25C4.32363 25.67 5.51709 26.853 6.46982 27.7638C7.69365 28.7761 8.69551 30.0303 9.41162 31.4488C9.92881 33.0014 10.1214 34.645 9.97695 36.275C9.97695 37.4895 9.97695 39.1645 10.3748 39.6146C10.7727 40.0648 12.4687 40.0334 13.7145 40.0125L14.7613 40.0021Z" fill="#AFD4FF"/>
<path d="M22.9063 32.3912C22.4153 32.3923 21.9389 32.2257 21.5558 31.9201L16.3213 27.7325C15.3906 26.9871 15.2409 25.6272 15.9864 24.6965C16.7318 23.7657 18.0916 23.6161 19.0224 24.3615L22.7493 27.3452L30.8 19.2945C31.6439 18.4507 33.0132 18.4507 33.857 19.2945C34.7007 20.1384 34.7008 21.5077 33.857 22.3514L24.4349 31.7735C24.0276 32.1734 23.478 32.3954 22.9063 32.3912Z" fill="white"/>
</svg>
