<?xml version="1.0" standalone="no"?>
<!DOCTYPE svg PUBLIC "-//W3C//DTD SVG 20010904//EN"
 "http://www.w3.org/TR/2001/REC-SVG-20010904/DTD/svg10.dtd">
<svg version="1.0" xmlns="http://www.w3.org/2000/svg"
 width="127.000000pt" height="127.000000pt" viewBox="0 0 127.000000 127.000000"
 preserveAspectRatio="xMidYMid meet">
<metadata>
Created by potrace 1.11, written by Peter Selinger 2001-2013
</metadata>
<g transform="translate(0.000000,127.000000) scale(0.100000,-0.100000)"
fill="#000000" stroke="none">
<path d="M230 1138 c-17 -18 -20 -35 -20 -104 l0 -82 -90 -4 c-75 -2 -92 -6
-104 -23 -21 -28 -20 -57 4 -83 18 -19 31 -22 105 -22 l85 0 0 -83 c0 -74 3
-86 23 -105 30 -28 58 -28 85 1 19 20 22 35 22 105 l0 82 73 0 c39 0 82 3 93
6 28 7 48 46 41 77 -9 34 -46 47 -132 47 l-75 0 0 83 c0 70 -3 87 -20 105 -12
12 -32 22 -45 22 -13 0 -33 -10 -45 -22z"/>
<path d="M913 1151 c-112 -29 -198 -131 -209 -249 -7 -70 6 -125 45 -182 l28
-42 -48 -71 c-54 -78 -58 -95 -29 -122 31 -28 62 -12 116 60 48 63 50 64 84
57 62 -13 163 -6 200 13 104 53 163 139 166 242 5 124 -50 219 -159 275 -43
21 -144 32 -194 19z m154 -111 c88 -40 127 -152 84 -245 -22 -48 -44 -69 -94
-90 -80 -33 -171 -8 -224 62 -24 31 -28 45 -28 103 0 56 4 73 28 109 50 75
147 101 234 61z"/>
<path d="M186 374 c-35 -35 -5 -79 104 -153 235 -161 571 -140 780 48 46 41
52 50 46 74 -12 48 -48 46 -114 -5 -121 -96 -224 -129 -377 -124 -151 5 -247
47 -369 158 -24 22 -50 23 -70 2z"/>
</g>
</svg>
