<?xml version="1.0" encoding="UTF-8"?>
<svg width="67px" height="68px" viewBox="0 0 67 68" version="1.1" xmlns="http://www.w3.org/2000/svg" xmlns:xlink="http://www.w3.org/1999/xlink">
    <!-- Generator: Sketch 52.6 (67491) - http://www.bohemiancoding.com/sketch -->
    <title>Headshot 1</title>
    <desc>Created with Sketch.</desc>
    <defs>
        <ellipse id="path-1" cx="33.87891" cy="34.0212048" rx="33.1311879" ry="33.1113691"></ellipse>
        <polygon id="path-3" points="0.730381889 0.404 17.345 0.404 17.345 19.8205 0.730381889 19.8205"></polygon>
    </defs>
    <g id="Directory" stroke="none" stroke-width="1" fill="none" fill-rule="evenodd">
        <g id="Directory---Desktop" transform="translate(-741.000000, -1029.000000)">
            <g id="Dr-Block" transform="translate(123.000000, 1026.000000)">
                <g transform="translate(616.632812, 0.106124)" id="Dr-David-Jones-Copy-4">
                    <g transform="translate(0.945312, 0.144531)">
                        <g id="Headshot-1" transform="translate(0.000000, 2.781250)">
                            <mask id="mask-2" fill="white">
                                <use xlink:href="#path-1"></use>
                            </mask>
                            <use id="Mask" stroke="#303248" stroke-width="0.5" fill="#303248" xlink:href="#path-1"></use>
                            <g id="DP-logo" mask="url(#mask-2)">
                                <g transform="translate(13.421875, 19.968095)">
                                    <path d="M6.0291,10.8434 L6.0291,15.0554 C6.0291,16.0604 6.8411,16.8714 7.8451,16.8714 C8.8501,16.8714 9.6621,16.0604 9.6621,15.0554 L9.6621,10.8434 L13.8731,10.8434 C14.8781,10.8434 15.6891,10.0314 15.6891,9.0274 C15.6891,8.0224 14.8781,7.2094 13.8731,7.2094 L9.6621,7.2094 L9.6621,2.9994 C9.6621,1.9944 8.8501,1.1834 7.8451,1.1834 C6.8411,1.1834 6.0291,1.9944 6.0291,2.9994 L6.0291,7.2094 L1.8161,7.2094 C0.8121,7.2094 0.0001,8.0224 0.0001,9.0274 C0.0001,10.0314 0.8121,10.8434 1.8161,10.8434 L6.0291,10.8434 Z" id="Fill-1" fill="#FFFFFF"></path>
                                    <path d="M20.7654,32.5954 C15.7874,32.5954 11.1464,30.6184 7.6964,27.0294 C7.1704,26.4834 7.1884,25.6144 7.7344,25.0884 C8.2814,24.5634 9.1504,24.5804 9.6754,25.1264 C12.6034,28.1724 16.5414,29.8504 20.7654,29.8504 C24.8734,29.8504 28.7364,28.2504 31.6414,25.3454 C32.1774,24.8094 33.0464,24.8094 33.5824,25.3454 C34.1194,25.8814 34.1194,26.7504 33.5824,27.2864 C30.1594,30.7104 25.6074,32.5954 20.7654,32.5954" id="Fill-3" fill="#FFFFFF"></path>
                                    <g id="Group-7" stroke-width="1" fill="none" transform="translate(21.000000, 0.595700)">
                                        <mask id="mask-4" fill="white">
                                            <use xlink:href="#path-3"></use>
                                        </mask>
                                        <g id="Clip-6"></g>
                                        <path d="M9.3172,13.7145 C6.4052,13.7145 4.0362,11.3445 4.0362,8.4325 C4.0362,5.5195 6.4052,3.1495 9.3172,3.1495 C12.2302,3.1495 14.6002,5.5195 14.6002,8.4325 C14.6002,11.3445 12.2302,13.7145 9.3172,13.7145 M9.3172,0.4035 C4.8912,0.4035 1.2912,4.0055 1.2912,8.4325 C1.2912,10.5995 2.1552,12.5685 3.5562,14.0135 L1.0322,17.3945 C0.5302,18.0665 0.6692,19.0175 1.3392,19.5195 C1.6132,19.7225 1.9312,19.8205 2.2472,19.8205 C2.7102,19.8205 3.1672,19.6105 3.4642,19.2105 L6.0432,15.7575 C7.0442,16.2075 8.1512,16.4595 9.3172,16.4595 C13.7442,16.4595 17.3452,12.8585 17.3452,8.4325 C17.3452,4.0055 13.7442,0.4035 9.3172,0.4035" id="Fill-5" fill="#FFFFFF" mask="url(#mask-4)"></path>
                                    </g>
                                </g>
                            </g>
                        </g>
                    </g>
                </g>
            </g>
        </g>
    </g>
</svg>