<?xml version="1.0" encoding="UTF-8"?>
<svg width="40px" height="40px" viewBox="0 0 40 40" version="1.1" xmlns="http://www.w3.org/2000/svg" xmlns:xlink="http://www.w3.org/1999/xlink">
    <!-- Generator: Sketch 52.6 (67491) - http://www.bohemiancoding.com/sketch -->
    <title>Group 3</title>
    <desc>Created with Sketch.</desc>
    <defs>
        <polygon id="path-1" points="0.000179999989 0.000179999989 54.2435968 0.000179999989 54.2435968 54.2437768 0.000179999989 54.2437768"></polygon>
    </defs>
    <g id="Directory" stroke="none" stroke-width="1" fill="none" fill-rule="evenodd">
        <g id="Directory---Desktop" transform="translate(-544.000000, -1034.000000)">
            <g id="Group-3" transform="translate(536.498207, 1026.713465)">
                <mask id="mask-2" fill="white">
                    <use xlink:href="#path-1"></use>
                </mask>
                <g id="Clip-2"></g>
                <path d="M20.6216749,17.6247951 C20.6713549,17.6252271 20.7206029,17.6234991 20.7702829,17.6381871 L24.3070666,18.7047951 C24.7680106,18.843035 25.0643625,19.456907 25.0496745,19.919579 L24.9688906,22.5387947 C24.9866026,23.4390827 24.5973706,23.5997867 23.8616746,23.7807946 L22.3496748,23.9834026 L22.5384587,25.0361865 C22.7859947,26.7153704 23.3519147,27.9798343 24.4288906,29.4641862 C25.6350345,30.8496101 26.7284264,31.680346 28.3302823,32.326186 L29.3424582,32.7720099 L29.9230662,31.381402 C30.2824901,30.7269221 30.5209541,30.4011941 31.408282,30.6387941 L34.0270658,31.2055781 C34.4893058,31.3053701 35.0150498,31.733482 35.0396738,32.204794 L35.2288897,35.8094017 C35.2496257,36.2159137 34.7942978,36.5373216 34.0404578,36.5921856 C29.5550022,36.9192096 24.9969706,35.0650658 22.0122828,31.3135781 L22.0122828,31.3001861 C19.027595,27.5486983 18.2953551,22.7621387 19.717067,18.5834031 C19.926155,17.9690991 20.2717549,17.6226351 20.6216749,17.6247951 M27.1288904,7.59418794 C16.3448752,7.59418794 7.59428394,16.3443472 7.59428394,27.1287944 C7.59428394,37.9128095 16.3448752,46.6500088 27.1288904,46.6500088 C37.9124735,46.6500088 46.6496728,37.9128095 46.6496728,27.1287944 C46.6496728,16.3443472 37.9124735,7.59418794 27.1288904,7.59418794" id="Fill-1" fill="#DF064E" mask="url(#mask-2)"></path>
            </g>
        </g>
    </g>
</svg>