<svg width="17" height="16" viewBox="0 0 17 16" fill="none" xmlns="http://www.w3.org/2000/svg">
<g clip-path="url(#clip0_836_22700)">
<path d="M1.42655 15.6537C1.22266 15.6537 1.01877 15.5762 0.863856 15.4202C0.552868 15.1094 0.552868 14.6056 0.863856 14.2948L14.7494 0.41911C15.0604 0.108344 15.5646 0.108344 15.8756 0.41911C16.1866 0.729877 16.1866 1.23371 15.8756 1.54467L1.99021 15.4202C1.83414 15.5752 1.63025 15.6537 1.42655 15.6537Z" fill="white"/>
<path d="M15.3131 15.6537C15.1092 15.6537 14.9055 15.5762 14.7504 15.4202L0.863856 1.54467C0.552868 1.23371 0.552868 0.729877 0.863856 0.41911C1.17484 0.108344 1.67903 0.108344 1.99021 0.41911L15.8756 14.2948C16.1866 14.6056 16.1866 15.1094 15.8756 15.4202C15.7195 15.5752 15.5158 15.6537 15.3131 15.6537Z" fill="white"/>
</g>
<defs>
<clipPath id="clip0_836_22700">
<rect width="15.4786" height="15.4676" fill="white" transform="translate(0.622559 0.186035)"/>
</clipPath>
</defs>
</svg>
