<svg width="16" height="16" viewBox="0 0 16 16" fill="none" xmlns="http://www.w3.org/2000/svg">
<g clip-path="url(#clip0_711_9276)">
<path d="M0.83068 16C0.619921 16 0.409161 15.9199 0.249032 15.7585C-0.0724313 15.4371 -0.0724313 14.9159 0.249032 14.5944L14.6024 0.241098C14.9238 -0.0803659 15.445 -0.0803659 15.7665 0.241098C16.0879 0.562561 16.0879 1.08373 15.7665 1.4054L1.41333 15.7585C1.252 15.9189 1.04124 16 0.83068 16V16Z" fill="#9F9F9F"/>
<path d="M15.185 16C14.9743 16 14.7637 15.9199 14.6034 15.7585L0.249032 1.4054C-0.0724313 1.08373 -0.0724313 0.562561 0.249032 0.241098C0.570496 -0.0803659 1.09167 -0.0803659 1.41333 0.241098L15.7665 14.5944C16.0879 14.9159 16.0879 15.4371 15.7665 15.7585C15.6051 15.9189 15.3946 16 15.185 16Z" fill="#9F9F9F"/>
</g>
<defs>
<clipPath id="clip0_711_9276">
<rect width="16" height="16" fill="white"/>
</clipPath>
</defs>
</svg>
