<svg width="25" height="24" viewBox="0 0 25 24" fill="none" xmlns="http://www.w3.org/2000/svg">
<path d="M23.6468 21.8602L17.7304 15.9194C19.2516 14.1735 20.0851 11.9768 20.0851 9.68999C20.0851 4.34701 15.5826 0 10.0484 0C4.51427 0 0.0117188 4.34701 0.0117188 9.68999C0.0117188 15.033 4.51427 19.38 10.0484 19.38C12.126 19.38 14.1058 18.775 15.7986 17.6265L21.7599 23.6124C22.0091 23.8622 22.3442 24 22.7034 24C23.0433 24 23.3658 23.8749 23.6106 23.6474C24.1308 23.1641 24.1473 22.3628 23.6468 21.8602ZM10.0484 2.52782C14.139 2.52782 17.4668 5.74069 17.4668 9.68999C17.4668 13.6393 14.139 16.8522 10.0484 16.8522C5.9578 16.8522 2.62999 13.6393 2.62999 9.68999C2.62999 5.74069 5.9578 2.52782 10.0484 2.52782Z" fill="#E6E6E6"/>
</svg>
