<svg width="13" height="18" viewBox="0 0 13 18" fill="none" xmlns="http://www.w3.org/2000/svg">
<path d="M4.93476 16.6974C0.772578 10.5263 0 9.89296 0 7.625C0 4.51839 2.46242 2 5.5 2C8.53758 2 11 4.51839 11 7.625C11 9.89296 10.2274 10.5263 6.06524 16.6974C5.7921 17.1009 5.20787 17.1009 4.93476 16.6974ZM5.5 9.96875C6.76566 9.96875 7.79167 8.91942 7.79167 7.625C7.79167 6.33057 6.76566 5.28125 5.5 5.28125C4.23434 5.28125 3.20833 6.33057 3.20833 7.625C3.20833 8.91942 4.23434 9.96875 5.5 9.96875Z" fill="#333333"/>
</svg>
