<svg width="14" height="14" viewBox="0 0 14 14" fill="none" xmlns="http://www.w3.org/2000/svg">
<g clip-path="url(#clip0)">
<path d="M13.6005 9.89364L10.538 8.58114C10.4072 8.52538 10.2618 8.51363 10.1237 8.54766C9.98562 8.58169 9.86232 8.65965 9.77238 8.76981L8.41613 10.4268C6.28762 9.42327 4.57467 7.71031 3.57109 5.5818L5.22813 4.22555C5.33851 4.13578 5.41663 4.01248 5.45067 3.87433C5.48472 3.73619 5.47283 3.59071 5.4168 3.45993L4.1043 0.397425C4.0428 0.256443 3.93405 0.141336 3.79678 0.0719524C3.65951 0.0025685 3.50233 -0.0167432 3.35234 0.0173473L0.508594 0.673597C0.363992 0.706989 0.234977 0.788408 0.142607 0.904566C0.0502374 1.02072 -3.33104e-05 1.16476 1.65599e-08 1.31317C1.65599e-08 8.32684 5.68477 14.0007 12.6875 14.0007C12.836 14.0008 12.9801 13.9505 13.0963 13.8581C13.2125 13.7658 13.2939 13.6367 13.3273 13.4921L13.9836 10.6483C14.0175 10.4976 13.9977 10.3398 13.9278 10.2021C13.8579 10.0643 13.7422 9.95525 13.6005 9.89364Z" fill="#333333"/>
</g>
<defs>
<clipPath id="clip0">
<rect width="14" height="14" fill="white"/>
</clipPath>
</defs>
</svg>
