<svg width="24" height="24" viewBox="0 0 24 24" fill="none" xmlns="http://www.w3.org/2000/svg">
<path d="M12 24C10.7638 24 9.87938 23.0704 9.17086 22.3267C8.86936 21.9603 8.50903 21.6463 8.10553 21.397C7.61306 21.2744 7.10353 21.2352 6.59798 21.2814C5.53266 21.2814 4.33167 21.3217 3.48745 20.4825C2.64323 19.6433 2.69348 18.4423 2.71359 17.3769C2.76084 16.8714 2.72166 16.3619 2.598 15.8694C2.34877 15.4659 2.0347 15.1056 1.66838 14.8041C0.944719 14.1206 0 13.2362 0 12C0 10.7638 0.944719 9.87938 1.66833 9.17086C2.03466 8.86936 2.34872 8.50903 2.598 8.10553C2.72161 7.61306 2.7608 7.10353 2.71359 6.59798C2.71359 5.53767 2.67337 4.33167 3.51258 3.49247C4.35178 2.65327 5.55778 2.67338 6.62311 2.69348C7.12866 2.74073 7.63819 2.70202 8.13066 2.57789C8.53416 2.32866 8.89397 2.01459 9.19598 1.64827C9.87938 0.944719 10.7638 0 12 0C13.2362 0 14.1206 0.944719 14.8291 1.67334C15.1306 2.03967 15.491 2.35373 15.8945 2.60297C16.3869 2.72658 16.8965 2.76577 17.402 2.71856C18.4673 2.71856 19.6683 2.67834 20.5125 3.51755C21.3568 4.35675 21.3316 5.56275 21.3115 6.62306C21.2643 7.12861 21.3035 7.63814 21.4271 8.13061C21.6764 8.53411 21.9904 8.89444 22.3568 9.19594C23.0553 9.87937 24 10.7638 24 12C24 13.2362 23.0553 14.1206 22.3317 14.8291C21.9653 15.1306 21.6513 15.491 21.402 15.8945C21.2784 16.3869 21.2393 16.8965 21.2865 17.402C21.2865 18.4623 21.3267 19.6683 20.4875 20.5075C19.6483 21.3467 18.4423 21.3266 17.3769 21.3065C16.8714 21.2588 16.3619 21.298 15.8694 21.4221C15.4659 21.6713 15.1061 21.9854 14.8041 22.3517C14.1206 23.0553 13.2362 24 12 24Z" fill="#6754CE"/>
<path fill-rule="evenodd" clip-rule="evenodd" d="M15.1016 12.2648C15.1016 10.3999 13.8541 8.84302 11.7334 8.84302H10.1394V15.7425H11.7334C13.8541 15.7425 15.1016 14.186 15.1016 12.2648ZM16.6546 12.2647C16.6546 15.0272 14.5478 17.2007 11.7479 17.2007H8.61536V7.38461H11.7479C14.5478 7.38461 16.6546 9.55809 16.6546 12.2647Z" fill="white"/>
</svg>
