<svg width="24" height="24" viewBox="0 0 24 24" fill="none" xmlns="http://www.w3.org/2000/svg">
<g clip-path="url(#clip0)">
<path d="M14.3966 15.3735C14.0514 15.3083 13.6972 15.4292 13.4638 15.6918L12.3383 16.9581C12.3265 16.9713 12.3122 16.9818 12.2961 16.989C12.28 16.9963 12.2625 17 12.2449 17H12.2448H10.5C9.94771 17 9.5 17.4477 9.5 18V19.875C9.5 19.944 9.44404 20 9.375 20H7.5C6.94772 20 6.5 20.4477 6.5 21V22.875C6.5 22.944 6.44404 23 6.375 23H1.125C1.05596 23 1 22.944 1 22.875V19.216C1 19.1829 1.01315 19.1511 1.03659 19.1276C1.03662 19.1276 1.03664 19.1275 1.03667 19.1275L8.62106 11.5431C8.88808 11.2761 8.98191 10.8814 8.86364 10.5228C8.62815 9.80872 8.5 9.04517 8.5 8.25C8.5 4.24594 11.7459 1.00004 15.75 1C19.7675 0.999959 23 4.23248 23 8.25005C23 12.2541 19.7541 15.5 15.75 15.5C15.2873 15.5 14.8352 15.4562 14.3966 15.3735Z" stroke="#E1E1E1" stroke-width="2" stroke-linecap="round" stroke-linejoin="round"/>
<path d="M14 8C14 9.10458 14.8954 10 16 10C17.1046 10 18 9.10458 18 8C18 6.89542 17.1046 6 16 6C14.8954 6 14 6.89542 14 8Z" stroke="#E1E1E1" stroke-width="2" stroke-linecap="round" stroke-linejoin="round"/>
</g>
<defs>
<clipPath id="clip0">
<rect width="24" height="24" fill="white"/>
</clipPath>
</defs>
</svg>
