<svg width="295" height="367" viewBox="0 0 295 367" xmlns="http://www.w3.org/2000/svg" xmlns:xlink="http://www.w3.org/1999/xlink"><title>clipboard icon</title><defs><path id="a" d="M.771.165h100.96V30.83H.77z"/><path id="c" d="M0 367.206h293.995V1.04H0z"/></defs><g transform="translate(.265 -.654)" fill="none" fill-rule="evenodd"><path d="M293.995 220.208c0 81.185-65.813 146.997-146.998 146.997C65.812 367.205 0 301.393 0 220.208 0 139.024 65.812 73.211 146.997 73.211c81.185 0 146.998 65.813 146.998 146.997" fill="#4A90E2"/><path d="M254.49 325.77c0 5.684-4.65 10.336-10.335 10.336H49.839c-5.684 0-10.336-4.652-10.336-10.337V51.17c0-5.684 4.652-10.335 10.336-10.335h194.316c5.684 0 10.335 4.65 10.335 10.335v274.6z" fill="#996239"/><path fill="#C9C9C2" d="M226.866 320.622L41.983 304.587 64.661 43.11l184.88 16.036z"/><path fill="#FFFFF5" d="M238.151 50.356l-185.575.565.798 262.457 158.022-.482 27.47-27.638z"/><path fill="#E8E8DF" d="M211.396 312.896l27.47-27.638-27.554.084z"/><path d="M146.997 7.241c5.422 0 9.82 4.396 9.82 9.82s-4.398 9.82-9.82 9.82c-5.424 0-9.82-4.396-9.82-9.82s4.396-9.82 9.82-9.82zm55.029 49.031v-.003l-.275-1.482-4.275-23.083-.211-1.137c-.622-3.354-3.92-6.098-7.331-6.098h-25.101a6.199 6.199 0 0 0 2.319-4.824V7.243c0-3.41-2.79-6.202-6.202-6.202h-27.907c-3.411 0-6.201 2.791-6.201 6.202v12.402c0 1.945.908 3.685 2.319 4.824h-25.102c-3.41 0-6.709 2.744-7.33 6.098l-.212 1.137-4.275 23.083-.274 1.482v.003l-1.13 6.096h112.317l-1.129-6.096z" fill="#E6E7E9"/><path fill="#C9CACC" d="M91.968 56.27v.002l-1.13 6.096h112.317l-1.129-6.096v-.002l-.275-1.482H92.242zm55.029-31.453a7.927 7.927 0 0 1-7.927-7.927 7.927 7.927 0 1 1 7.927 7.927m0-18.435c-5.804 0-10.509 4.704-10.509 10.508 0 5.803 4.705 10.508 10.51 10.508 5.801 0 10.506-4.705 10.506-10.508 0-5.804-4.705-10.508-10.507-10.508"/><g transform="translate(95.745 .875)"><mask id="b" fill="#fff"><use xlink:href="#a"/></mask><path d="M51.252 26.006c-5.424 0-9.821-4.396-9.821-9.82 0-5.423 4.397-9.82 9.82-9.82s9.82 4.397 9.82 9.82c0 5.424-4.397 9.82-9.82 9.82zm50.267 3.685c-.621-3.353-3.92-6.097-7.33-6.097H69.088a6.195 6.195 0 0 0 2.318-4.824V6.367c0-3.41-2.79-6.202-6.201-6.202H37.298c-3.411 0-6.202 2.791-6.202 6.202V18.77c0 1.945.909 3.685 2.32 4.824H8.312c-3.41 0-6.708 2.744-7.33 6.097L.771 30.83h100.96l-.212-1.138z" fill="#B3B3B3" mask="url(#b)"/></g><path fill="#2BB673" d="M182.553 299.077l25.048-25.048 12.525-12.525-12.525-12.523-12.525 12.523-12.523 12.525-12.525-12.525-12.524 12.525z"/><path fill="#D1D3D4" d="M213.45 154.182l-.518-7.926-134.896.019.58 8.855 114.866-.016h20.091v-.932zm0 20.312l-.518-7.926-134.896.018.58 8.856 114.866-.016h20.091v-.932zm0 20.312l-.518-7.927-134.896.02.58 8.855 114.866-.017h20.091v-.931zm0 20.311l-.518-7.927-134.896.019.58 8.856 114.866-.016h20.091v-.932zm0 20.312l-.518-7.927-134.896.019.58 8.856 114.866-.017h20.091v-.931z"/><path d="M146.997 72.373c16.076 0 29.114 13.037 29.114 29.113 0 16.077-13.038 29.115-29.114 29.115-16.077 0-29.115-13.038-29.115-29.115 0-16.076 13.038-29.113 29.115-29.113" fill="#EE4540"/><mask id="d" fill="#fff"><use xlink:href="#c"/></mask><path fill="#FFF" mask="url(#d)" d="M140.47 121.233h13.054V81.737H140.47z"/><path fill="#FFF" mask="url(#d)" d="M127.249 108.012h39.495V94.96h-39.495z"/></g></svg>