<svg width="21" height="21" viewBox="0 0 21 21" fill="none" xmlns="http://www.w3.org/2000/svg"><path d="M16.191 10.023l4.086-3.98c.4-.39.4-1.02 0-1.41L15.822.293c-.4-.39-1.047-.39-1.448 0l-4.085 3.98L6.203.292a1.066 1.066 0 0 0-.729-.29c-.257 0-.523.1-.719.29L.3 4.633c-.4.39-.4 1.02 0 1.41l4.086 3.98L.3 14.003c-.4.39-.4 1.02 0 1.41l4.455 4.34c.4.39 1.048.39 1.448 0l4.086-3.98 4.085 3.98a1.066 1.066 0 0 0 1.458 0l4.455-4.34c.4-.39.4-1.02 0-1.41l-4.096-3.98zm-5.882-3.02c.565 0 1.027.45 1.027 1s-.462 1-1.027 1c-.564 0-1.026-.45-1.026-1s.462-1 1.026-1zm-4.835 1.96l-3.726-3.62 3.726-3.63 3.716 3.62-3.716 3.63zm2.782 2.04c-.565 0-1.027-.45-1.027-1s.462-1 1.027-1 1.027.45 1.027 1-.462 1-1.027 1zm2.053 2c-.564 0-1.026-.45-1.026-1s.462-1 1.026-1c.565 0 1.027.45 1.027 1s-.462 1-1.027 1zm2.053-4c.565 0 1.027.45 1.027 1s-.462 1-1.027 1c-.564 0-1.026-.45-1.026-1s.462-1 1.026-1zm2.73 9.34l-3.726-3.62 3.727-3.63 3.716 3.62-3.716 3.63z" fill="#555"/></svg>