<svg width="44" height="37" viewBox="0 0 44 37" xmlns="http://www.w3.org/2000/svg"><title>Logo</title><path d="M22.645 37c-6.16 0-11.902-2.255-16.17-6.35a1.48 1.48 0 0 1 .046-2.212c.677-.6 1.751-.58 2.402.043 3.623 3.474 8.496 5.388 13.722 5.388 5.082 0 9.861-1.825 13.455-5.139.663-.612 1.739-.611 2.403 0a1.48 1.48 0 0 1-.001 2.214C34.267 34.85 28.633 37 22.645 37m11.692-19.863c-3.507 0-6.358-3.051-6.358-6.8 0-3.75 2.851-6.802 6.358-6.802 3.506 0 6.359 3.051 6.359 6.801s-2.853 6.801-6.359 6.801zm0-17.137c-5.328 0-9.662 4.637-9.662 10.336 0 2.79 1.04 5.325 2.727 7.186l-3.039 4.354c-.604.865-.437 2.089.37 2.735.329.262.712.389 1.093.389.557 0 1.106-.272 1.464-.785l3.105-4.446a9.083 9.083 0 0 0 3.942.902c5.329 0 9.663-4.636 9.663-10.335C44 4.637 39.666 0 34.337 0zM7.301 12.314v5.371c0 1.28.983 2.315 2.2 2.315 1.216 0 2.2-1.034 2.2-2.315v-5.371H16.8c1.216 0 2.2-1.035 2.2-2.315s-.984-2.315-2.2-2.315h-5.1V2.315C11.7 1.035 10.718 0 9.5 0 8.285 0 7.302 1.034 7.302 2.315v5.369h-5.1C.982 7.684 0 8.718 0 9.999c0 1.28.983 2.315 2.2 2.315h5.101" fill="#FFFFFE" fill-rule="evenodd"/></svg>