<svg width="260" height="40" viewBox="0 0 260 40" xmlns="http://www.w3.org/2000/svg" xmlns:xlink="http://www.w3.org/1999/xlink"><title>Logo</title><defs><path id="a" d="M0 39.192h259.848V0H0z"/></defs><g transform="translate(0 -1)" fill="none" fill-rule="evenodd"><path d="M7.628 13.574v5.382a2.307 2.307 0 0 0 2.298 2.32 2.307 2.307 0 0 0 2.3-2.32v-5.382h5.327a2.308 2.308 0 0 0 2.299-2.32 2.307 2.307 0 0 0-2.299-2.32h-5.328v-5.38a2.308 2.308 0 0 0-2.299-2.32 2.308 2.308 0 0 0-2.298 2.32v5.38h-5.33A2.306 2.306 0 0 0 0 11.253a2.307 2.307 0 0 0 2.298 2.32h5.33zM23.26 39.08c-6.297 0-12.17-2.525-16.536-7.11a1.765 1.765 0 0 1 .048-2.48 1.725 1.725 0 0 1 2.457.05c3.704 3.89 8.687 6.033 14.031 6.033 5.198 0 10.086-2.044 13.761-5.755a1.724 1.724 0 0 1 2.457 0 1.765 1.765 0 0 1-.001 2.48C35.145 36.67 29.386 39.08 23.26 39.08m11.71-21.077c-3.686 0-6.683-3.027-6.683-6.748 0-3.72 2.997-6.748 6.683-6.748 3.685 0 6.684 3.027 6.684 6.748 0 3.72-2.999 6.748-6.684 6.748M34.97 1c-5.6 0-10.157 4.6-10.157 10.255 0 2.77 1.095 5.283 2.868 7.13l-3.195 4.32a1.95 1.95 0 0 0 .39 2.713 1.91 1.91 0 0 0 2.688-.393l3.261-4.412a10 10 0 0 0 4.145.896c5.6 0 10.157-4.6 10.157-10.254S40.571 1 34.97 1m202.507 7.928a2.13 2.13 0 0 1-2.119 2.139 2.13 2.13 0 0 1-2.12-2.14c0-1.18.95-2.138 2.12-2.138 1.17 0 2.119.957 2.119 2.139m-164.58 11.08c0-4.952-3.32-9.087-8.963-9.087h-4.242v18.322h4.242c5.643 0 8.963-4.133 8.963-9.235m4.13 0c0 7.336-5.605 13.108-13.056 13.108h-8.336V7.049h8.336c7.45 0 13.057 5.772 13.057 12.96m5.715 3.462c0 4.283 3.246 6.442 6.086 6.442 2.84 0 6.086-2.16 6.086-6.442 0-4.357-3.246-6.516-6.086-6.516-2.84 0-6.086 2.159-6.086 6.516m16.044 0c0 6.74-5.569 10.018-9.958 10.018-4.39 0-9.959-3.278-9.959-10.018s5.57-10.091 9.96-10.091c4.39 0 9.958 3.351 9.958 10.091m19.583-5.399l-3.098 1.415c-1.143-1.564-2.693-2.533-5.052-2.533-2.841 0-6.087 2.16-6.087 6.517 0 4.282 3.246 6.442 6.087 6.442 2.36 0 3.909-.93 5.052-2.495l3.136 1.416c-1.77 3.128-4.722 4.654-8.225 4.654-4.353 0-9.923-3.276-9.923-10.017 0-6.74 5.57-10.092 9.923-10.092 3.466 0 6.454 1.564 8.187 4.693m7.966-.969V27.94c0 1.042.369 1.824 1.807 1.824.738 0 1.438-.148 2.25-.447v3.315c-.812.41-1.918.707-3.32.707-2.692 0-4.72-.967-4.72-4.505v-11.73h-2.657v-3.352h2.657V8.8h3.983v4.953h4.057v3.351h-4.057zm8.852 6.368c0 4.283 3.245 6.442 6.085 6.442s6.087-2.16 6.087-6.442c0-4.357-3.247-6.516-6.087-6.516s-6.085 2.159-6.085 6.516m16.044 0c0 6.74-5.57 10.018-9.959 10.018-4.39 0-9.958-3.278-9.958-10.018s5.569-10.091 9.958-10.091c4.39 0 9.959 3.351 9.959 10.091m14.42-9.942v3.835c-.369-.075-.738-.075-1.032-.075-3.616 0-6.566 2.607-7.009 6.704v9.123h-3.983V13.752h3.983v4.952c.812-2.866 3.283-5.25 6.898-5.25.405 0 .774 0 1.143.075m18.626 9.905c0-4.32-3.172-6.48-6.16-6.48s-6.197 2.16-6.197 6.48 3.21 6.479 6.197 6.479c2.988 0 6.16-2.16 6.16-6.48m3.872 0c0 6.778-5.2 10.055-9.516 10.055-3.32 0-5.606-1.936-6.38-3.538h-.222v10.241h-3.983V13.752h3.983v3.165h.221c.775-1.6 3.062-3.537 6.381-3.537 4.315 0 9.516 3.276 9.516 10.054m5.421-1.489h11.544c-.368-3.426-3.282-5.102-5.753-5.102-2.435 0-5.164 1.676-5.791 5.102m15.123 2.979h-15.16c.59 3.425 3.246 5.138 6.307 5.138 2.545 0 3.91-.67 5.31-1.787l2.252 2.16c-1.697 1.936-4.131 3.054-7.672 3.054-4.832 0-10.107-3.315-10.107-10.018 0-6.74 5.422-10.091 9.738-10.091 4.352 0 10.254 3.351 9.332 11.544m17.481-1.49c0-4.32-3.21-6.48-6.197-6.48-2.988 0-6.16 2.16-6.16 6.48s3.172 6.479 6.16 6.479 6.197-2.16 6.197-6.48zm3.872-16.646v26.328h-3.983V29.95h-.221c-.775 1.602-3.062 3.538-6.381 3.538-4.315 0-9.516-3.277-9.516-10.054 0-6.778 5.2-10.054 9.516-10.054 3.32 0 5.606 1.936 6.38 3.537h.222V6.787h3.983z" fill="#FFF"/><mask id="b" fill="#fff"><use xlink:href="#a"/></mask><path fill="#FFF" mask="url(#b)" d="M233.366 33.116h3.983V13.752h-3.983zm22.609-9.682c0-4.32-3.209-6.48-6.196-6.48-2.988 0-6.16 2.16-6.16 6.48s3.172 6.479 6.16 6.479c2.987 0 6.196-2.16 6.196-6.48m-16.229 0c0-6.777 5.201-10.053 9.516-10.053 3.32 0 5.607 1.936 6.381 3.537h.222v-3.165h3.983v19.364h-3.983V29.95h-.222c-.774 1.602-3.061 3.538-6.38 3.538-4.316 0-9.517-3.277-9.517-10.054"/></g></svg>