<svg width="46" height="46" viewBox="0 0 46 46" fill="none" xmlns="http://www.w3.org/2000/svg"><mask id="a" maskUnits="userSpaceOnUse" x="0" y="0" width="46" height="46"><path fill-rule="evenodd" clip-rule="evenodd" d="M23 46c12.703 0 23-10.297 23-23S35.703 0 23 0 0 10.297 0 23s10.297 23 23 23z" fill="#fff"/></mask><path fill-rule="evenodd" clip-rule="evenodd" d="M23 46c12.703 0 23-10.297 23-23S35.703 0 23 0 0 10.297 0 23s10.297 23 23 23z" fill="#8C55F8" mask="url(#a)"/><g clip-path="url(#b)" fill="#fff"><path d="M27.57 27.21h1.524v1.466H27.57V27.21z"/><path d="M24.523 36c2.52 0 4.57-1.971 4.57-4.395v-.073c1.737-.34 3.048-1.82 3.048-3.589 0-2.019-1.709-3.662-3.809-3.662s-3.809 1.643-3.809 3.662c0 1.769 1.311 3.248 3.047 3.589v.073c0 1.616-1.367 2.93-3.047 2.93-1.68 0-3.046-1.314-3.046-2.93V24.24c3.422-.365 6.093-3.163 6.093-6.55v-4.493c0-1.211-1.025-2.197-2.285-2.197H23v1.465h2.285c.42 0 .762.328.762.732v4.492c0 2.828-2.392 5.127-5.332 5.127s-5.332-2.3-5.332-5.127v-4.492c0-.404.342-.732.762-.732h2.285V11h-2.285c-1.26 0-2.286.986-2.286 2.197v4.492c0 3.388 2.671 6.186 6.094 6.551v7.366c0 2.423 2.05 4.394 4.57 4.394zm1.524-8.057c0-1.211 1.025-2.197 2.285-2.197 1.26 0 2.285.986 2.285 2.197 0 1.212-1.025 2.198-2.285 2.198-1.26 0-2.285-.986-2.285-2.198z"/></g><defs><clipPath id="b"><path fill="#fff" transform="translate(10 11)" d="M0 0h26v25H0z"/></clipPath></defs></svg>