<svg width="175" height="175" viewBox="0 0 175 175" xmlns="http://www.w3.org/2000/svg" xmlns:xlink="http://www.w3.org/1999/xlink"><title>DP Icon</title><defs><circle id="a" cx="87.5" cy="87.5" r="87.5"/></defs><g fill="none" fill-rule="evenodd"><mask id="b" fill="#fff"><use xlink:href="#a"/></mask><use fill="#4A90E2" xlink:href="#a"/><path d="M51.575 79.637v10.551a4.546 4.546 0 0 0 4.55 4.55 4.545 4.545 0 0 0 4.55-4.55V79.637H71.22a4.546 4.546 0 0 0 4.55-4.55 4.546 4.546 0 0 0-4.55-4.55H60.675V59.992a4.545 4.545 0 0 0-4.55-4.55 4.546 4.546 0 0 0-4.55 4.55v10.547h-10.55a4.545 4.545 0 0 0-4.55 4.549 4.546 4.546 0 0 0 4.55 4.55h10.55zM112.41 61.86c-7.295 0-13.23 5.934-13.23 13.23 0 7.294 5.935 13.23 13.23 13.23 7.295 0 13.23-5.936 13.23-13.23 0-7.296-5.935-13.23-13.23-13.23m0 33.336c-11.086 0-20.105-9.02-20.105-20.107 0-11.086 9.019-20.106 20.105-20.106 11.088 0 20.106 9.02 20.106 20.106 0 11.087-9.018 20.107-20.106 20.107M88.486 134.12c-12.467 0-24.093-4.951-32.735-13.942a3.438 3.438 0 1 1 4.957-4.765c7.334 7.63 17.199 11.83 27.778 11.83 10.288 0 19.963-4.006 27.24-11.282a3.437 3.437 0 1 1 4.861 4.861c-8.574 8.575-19.975 13.298-32.101 13.298" fill="#FFF" mask="url(#b)"/><path d="M94.7 103.615a3.8 3.8 0 0 1-3.043-6.077l7.888-10.564a3.799 3.799 0 0 1 5.321-.772 3.8 3.8 0 0 1 .772 5.32l-7.888 10.566a3.797 3.797 0 0 1-3.05 1.527" fill="#FFF" mask="url(#b)"/></g></svg>