<svg width="352" height="351" viewBox="0 0 352 351" xmlns="http://www.w3.org/2000/svg" xmlns:xlink="http://www.w3.org/1999/xlink"><title>Group 39</title><defs><path id="a" d="M.9.506h282.493V283H.9z"/><path id="c" d="M0 .736h68.9v68.9H0z"/></defs><g fill="none" fill-rule="evenodd"><g transform="translate(68.1 67.829)"><mask id="b" fill="#fff"><use xlink:href="#a"/></mask><path d="M283.394 141.753c0 78.009-63.24 141.247-141.247 141.247C64.137 283 .9 219.762.9 141.753.9 63.745 64.138.506 142.147.506c78.008 0 141.247 63.239 141.247 141.247" fill="#4A90E2" mask="url(#b)"/></g><g transform="translate(.1 117.829)"><mask id="d" fill="#fff"><use xlink:href="#c"/></mask><path d="M34.45.736C15.426.736 0 16.163 0 35.186c0 19.025 15.426 34.45 34.45 34.45 19.023 0 34.45-15.425 34.45-34.45C68.9 16.163 53.473.736 34.45.736" fill="#E6E6E6" mask="url(#d)"/></g><path d="M24.142 135.131c-6.15 3.586-10.282 10.254-10.282 17.884 0 11.425 9.265 20.691 20.69 20.691 11.426 0 20.69-9.266 20.69-20.69 0-11.419-9.25-20.678-20.666-20.69-10.068-31.505-8.61-73.087 9.57-99.353 12.969-18.739 36.36-21.625 50.01-2.188 14.96 21.301 13.068 50.901 12.066 75.757-1.19 29.49-2.397 59.396 14.575 77.895 21.637 23.585 62.562 27.838 86.5 5.87 9.579-8.786 15.76-21.409 15.76-37.64H212.25c0 12.927-4.807 22.872-12.257 29.707-19.64 18.021-53.665 13.946-71.266-5.238-13.963-15.222-12.848-42.89-11.748-70.172 1.107-27.418 2.502-58.883-14.006-82.382-17.946-25.552-50.491-22.58-67.69 2.27-19.988 28.88-22.033 73.692-11.141 108.28" fill="#626790"/><path d="M273.01 132.768c3.958 3.198 6.196 7.052 4.974 8.564l-20.32 25.154c-1.223 1.514-5.46.135-9.418-3.062-3.96-3.199-6.197-7.052-4.974-8.566l20.319-25.152c1.224-1.514 5.46-.136 9.419 3.062" fill="#F2CAAA"/><path d="M262.335 12.098c7.249.358 29.32 2.506 33.829 15.39 5.414 15.465-.382 36.35-16.622 64.575-16.24 28.227 6.378 6.767 6.378 6.767s29.964-46.978 19.722-72.494C296.8 4.31 272.215 3.663 262.335 5.446v6.652zm-92.005 0c-7.25.358-29.321 2.506-33.83 15.39-5.414 15.465.382 36.35 16.623 64.575 16.239 28.227-6.38 6.767-6.38 6.767s-29.962-46.978-19.72-72.494C135.866 4.31 160.45 3.663 170.33 5.446v6.652z" fill="#E6E6E6"/><path d="M285.392 106.778c4.804-11.435-5.417-20.033-15.872-6.765-35.773 45.4-70.546 45.4-106.32 0-10.454-13.268-20.676-4.67-15.87 6.765 24.844 59.13 113.217 59.13 138.062 0M257.403 3.24h6.394c2.423 0 4.404 1.703 4.404 3.782v4.605c0 2.079-1.981 3.78-4.404 3.78h-6.24a9.065 9.065 0 0 1-6.824 3.09 9.088 9.088 0 0 1-9.087-9.087 9.088 9.088 0 0 1 9.087-9.087 9.064 9.064 0 0 1 6.67 2.918m-82.141-.001h-6.394c-2.423 0-4.404 1.703-4.404 3.782v4.605c0 2.079 1.98 3.78 4.404 3.78h6.238a9.07 9.07 0 0 0 6.826 3.09c5.017 0 9.087-4.07 9.087-9.087 0-5.017-4.07-9.087-9.087-9.087a9.064 9.064 0 0 0-6.67 2.918" fill="#626790"/><path d="M257.495 166.688c-4.155 3.99-10.13 9.087-10.13 15.07v106.374h-64.193V182.77c0-5.533-6.528-23.892-6.632-29.001.455-13.361-.566-32.552.003-45.382 24.08.146 51.014 3.834 74.77 3.398-.141 8.378 4.57 39.32 3.908 50.317-.168 2.796 3.515 3.394 2.274 4.586" fill="#F2CAAA"/><path d="M226.477 96.757c-4.854 0-8.825 2.317-8.825 5.147v47.066c0 2.832 3.971 5.148 8.825 5.148 4.856 0 8.826-2.316 8.826-5.148v-47.066c0-2.83-3.97-5.147-8.826-5.147m20.786.491c-4.854 0-8.825 2.316-8.825 5.146v47.066c0 2.832 3.971 5.149 8.825 5.149 4.854 0 8.827-2.317 8.827-5.15v-47.065c0-2.83-3.973-5.146-8.827-5.146m-61.938-.728c-4.854 0-8.825 2.538-8.825 5.629v44.463c0 3.094 3.97 5.63 8.825 5.63 4.854 0 8.826-2.533 8.826-5.63v-44.463c0-3.095-3.972-5.628-8.826-5.628m20.474-.87c-4.854 0-8.826 2.315-8.826 5.147v47.065c0 2.833 3.972 5.15 8.826 5.15 4.854 0 8.825-2.317 8.825-5.15v-47.065c0-2.832-3.971-5.147-8.825-5.147" fill="#F2CAAA"/><path d="M178.914 188.354l-.147 158.922a141.725 141.725 0 0 0 31.392 3.506c13.896 0 27.32-2.016 40.003-5.755l.144-155.853-71.392-.82z" fill="#FFF"/><path d="M220.429 188.833l-.147 161.585a140.715 140.715 0 0 0 29.88-5.39l.144-155.854-29.877-.34z" fill="#E5E5E5"/><path d="M192.72 199.327a4.373 4.373 0 0 0-4.386 4.356 4.372 4.372 0 0 0 8.742.029 4.37 4.37 0 0 0-4.356-4.385m-.043 12.938a4.372 4.372 0 1 0 4.357 4.385 4.372 4.372 0 0 0-4.357-4.385m-.041 12.94a4.37 4.37 0 1 0-.029 8.74 4.37 4.37 0 1 0 .029-8.74" fill="#666"/></g></svg>