<svg width="24" height="21" viewBox="0 0 24 21" fill="none" xmlns="http://www.w3.org/2000/svg"><path fill-rule="evenodd" clip-rule="evenodd" d="M4.057 6.876v2.779a1.21 1.21 0 0 0 1.222 1.198 1.21 1.21 0 0 0 1.223-1.198V6.876h2.833a1.21 1.21 0 0 0 1.223-1.198A1.21 1.21 0 0 0 9.335 4.48H6.502V1.702A1.21 1.21 0 0 0 5.279.504a1.21 1.21 0 0 0-1.222 1.198V4.48H1.222C.546 4.48 0 5.015 0 5.678a1.21 1.21 0 0 0 1.222 1.198h2.835z" fill="#DF054E"/><path fill-rule="evenodd" clip-rule="evenodd" d="M12.37 20.044c-3.349 0-6.472-1.304-8.794-3.672a.893.893 0 0 1 .026-1.28.937.937 0 0 1 1.306.025c1.97 2.01 4.62 3.116 7.463 3.116a10.39 10.39 0 0 0 7.319-2.971.936.936 0 0 1 1.306 0c.36.353.36.927 0 1.28-2.304 2.258-5.367 3.502-8.625 3.502zM18.6 9.163c-1.96 0-3.555-1.563-3.555-3.484 0-1.922 1.594-3.485 3.554-3.485 1.96 0 3.555 1.563 3.555 3.485 0 1.92-1.595 3.484-3.555 3.484zm-.002-8.78c-2.978 0-5.402 2.375-5.402 5.295 0 1.43.582 2.728 1.525 3.682l-1.698 2.23a.988.988 0 0 0 .207 1.4c.183.135.397.2.61.2.312 0 .619-.138.82-.402l1.734-2.278a5.46 5.46 0 0 0 2.204.463c2.979 0 5.402-2.375 5.402-5.295S21.577.383 18.598.383z" fill="#333"/></svg>