<svg width="144" height="144" viewBox="0 0 144 144" fill="none" xmlns="http://www.w3.org/2000/svg"><rect x="15" y="11" width="114" height="114" rx="25" fill="url(#a)" filter="url(#b)"/><g clip-path="url(#c)"><path d="M102 92.375A5.625 5.625 0 0 1 96.375 98h-48.75A5.625 5.625 0 0 1 42 92.375V61.522a5.625 5.625 0 0 1 2.155-4.427c2.92-2.288 5.332-4.144 19.242-14.24C65.369 41.419 69.28 37.96 72 38c2.719-.041 6.632 3.419 8.603 4.856 13.909 10.094 16.325 11.952 19.242 14.24A5.63 5.63 0 0 1 102 61.521v30.853zm-7.695-23.04a.937.937 0 0 0-1.329-.223c-2.677 1.977-6.5 4.77-12.373 9.032C78.631 79.582 74.72 83.041 72 83c-2.72.04-6.628-3.415-8.603-4.855a1938.31 1938.31 0 0 1-12.373-9.032.937.937 0 0 0-1.329.223l-1.063 1.547a.937.937 0 0 0 .216 1.285c2.682 1.98 6.498 4.768 12.34 9.008 2.376 1.732 6.624 5.603 10.812 5.575 4.186.028 8.433-3.84 10.812-5.575a1965.16 1965.16 0 0 0 12.34-9.008.937.937 0 0 0 .216-1.285l-1.063-1.547z" fill="#fff"/></g><defs><filter id="b" x="0" y="0" width="144" height="144" filterUnits="userSpaceOnUse" color-interpolation-filters="sRGB"><feFlood flood-opacity="0" result="BackgroundImageFix"/><feColorMatrix in="SourceAlpha" values="0 0 0 0 0 0 0 0 0 0 0 0 0 0 0 0 0 0 127 0"/><feOffset dy="4"/><feGaussianBlur stdDeviation="7.5"/><feColorMatrix values="0 0 0 0 0.266667 0 0 0 0 0.196078 0 0 0 0 0.654902 0 0 0 0.3 0"/><feBlend in2="BackgroundImageFix" result="effect1_dropShadow"/><feBlend in="SourceGraphic" in2="effect1_dropShadow" result="shape"/></filter><linearGradient id="a" x1="72" y1="11" x2="72" y2="125" gradientUnits="userSpaceOnUse"><stop stop-color="#5846BC"/><stop offset="1" stop-color="#4432A7"/></linearGradient><clipPath id="c"><path fill="#fff" transform="translate(42 38)" d="M0 0h60v60H0z"/></clipPath></defs></svg>