<svg width="55" height="43" viewBox="0 0 55 43" fill="none" xmlns="http://www.w3.org/2000/svg"><path d="M29.792 27.745c0-11.782 8.919-24.106 22.916-26.87l2.255 4.872c-5.076 1.914-9.54 8.575-10.037 13.168C50.634 19.813 55 24.752 55 30.715c0 7.292-5.922 11.41-11.914 11.41-6.91 0-13.294-5.282-13.294-14.38zM0 27.745C0 15.963 8.92 3.639 22.917.875l2.255 4.872c-5.076 1.914-9.54 8.575-10.038 13.168 5.709.898 10.074 5.837 10.074 11.8 0 7.292-5.921 11.41-11.914 11.41C6.384 42.125 0 36.843 0 27.745z" fill="#626262"/></svg>