<svg version="1" xmlns="http://www.w3.org/2000/svg" width="129.333" height="129.333" viewBox="0 0 97.000000 97.000000"><path d="M22.6 19.6c-1.1 1-1.6 3.4-1.6 7V32h-5.2c-6 0-7.2.6-8.2 3.6-1.1 3.5 1.7 5.4 8 5.4H21v5.4c0 7.3 2.5 10 7.1 7.6 1.5-.9 1.9-2.2 1.9-7v-6h5.4c7.5 0 10.9-3.6 7-7.4-1-1.1-3.4-1.6-7-1.6H30v-5.4c0-5.5-1.6-8.6-4.5-8.6-.7 0-2.1.7-2.9 1.6zm42-.1c-10.1 3.6-14.4 15.9-9.2 25.8 2.5 4.6 2.5 4.6.5 7-1 1.4-1.9 3-1.9 3.6 0 .6-.5 1.1-1.1 1.1-.6 0-.9 1.2-.7 2.7.5 4.6 3.9 4.2 7.8-.9l3.3-4.3H71c6.8 0 8.1-.3 11.2-2.7 4.3-3.3 7.8-10.1 7.8-15.1 0-13.5-12.4-21.9-25.4-17.2zm13.8 7c5 3.3 6.6 9 4.1 14.8-4.1 9.9-18 9.9-22.2 0-4.7-11.3 7.8-21.5 18.1-14.8zM20.3 69.7c-5.5 2.2 6.4 12.5 18.8 16.3 5.1 1.5 15.6 1.5 20.9 0 2.5-.8 4.7-1.4 5-1.4 5-.8 16.4-10.3 15.4-12.9-1.1-2.9-3.2-2.6-7.7 1-9.8 8-23.6 10.4-34.7 6.1-3-1.2-6.2-2.7-7.1-3.5-.8-.7-1.9-1.3-2.3-1.3-.5 0-1.7-1.1-2.8-2.5-1.9-2.5-3.1-2.8-5.5-1.8z"/></svg>